<svg id="Layer_1" data-name="Layer 1" xmlns="http://www.w3.org/2000/svg" xmlns:xlink="http://www.w3.org/1999/xlink" viewBox="0 0 750 420"><defs><style>.cls-1,.cls-12{fill:#fff;}.cls-2{fill:url(#linear-gradient);}.cls-3{fill:none;stroke:#ff7a59;stroke-miterlimit:10;}.cls-3,.cls-5{opacity:0.25;}.cls-4{fill:#263238;}.cls-5,.cls-7,.cls-8{fill:#ff7a59;}.cls-6{fill:#ebebeb;}.cls-10,.cls-12,.cls-8,.cls-9{fill-rule:evenodd;}.cls-9{fill:#ccc;}.cls-10{fill:#f2f2f2;}.cls-11{fill:#455a64;}.cls-13{fill:#ffc727;}.cls-14{fill:#37474f;}.cls-15{fill:#ffbe9d;}.cls-16{fill:#eb996e;}.cls-17{fill:#e0e0e0;}.cls-18{opacity:0.3;}.cls-19{fill:#ff725e;}.cls-20{opacity:0.2;}.cls-21{opacity:0.5;}.cls-22{fill:#fafafa;}.cls-23{mask:url(#mask);}.cls-24{mask:url(#mask-2-2);}.cls-25{mask:url(#mask-3);}</style><linearGradient id="linear-gradient" x1="351" y1="390" x2="351" y2="334.5" gradientUnits="userSpaceOnUse"><stop offset="0" stop-color="#fff"/><stop offset="1" stop-color="#ff7a59"/></linearGradient><mask id="mask" x="339.21" y="313.19" width="8.71" height="11.93" maskUnits="userSpaceOnUse"><g id="mask-2"><polygon id="path-1" class="cls-1" points="347.92 325.11 339.21 325.11 339.21 313.19 347.92 313.19 347.92 325.11"/></g></mask><mask id="mask-2-2" x="341.86" y="307.31" width="16.51" height="17.55" maskUnits="userSpaceOnUse"><g id="mask-4"><polygon id="path-3" class="cls-1" points="341.86 307.31 358.37 307.31 358.37 324.86 341.86 324.86 341.86 307.31"/></g></mask><mask id="mask-3" x="444.58" y="37.13" width="75.77" height="80.57" maskUnits="userSpaceOnUse"><g id="mask-4-2" data-name="mask-4"><polygon id="path-3-2" data-name="path-3" class="cls-1" points="444.58 37.13 520.35 37.13 520.35 117.7 444.58 117.7 444.58 37.13"/></g></mask></defs><title>Apps</title><polygon class="cls-2" points="317.75 334.5 386 335.1 399.25 390 302.75 389.7 317.75 334.5"/><line class="cls-3" x1="313.69" y1="250.06" x2="296.75" y2="282.75"/><line class="cls-3" x1="386.13" y1="250.5" x2="403.67" y2="282.75"/><line class="cls-3" x1="371.75" y1="250.63" x2="378.5" y2="282.75"/><line class="cls-3" x1="327" y1="250.31" x2="320.25" y2="282.75"/><g id="freepik--Floor--inject-41"><polygon class="cls-4" points="136.67 397.9 194.21 397.65 251.75 397.56 366.83 397.38 481.92 397.56 539.46 397.65 597 397.9 539.46 398.16 481.92 398.24 366.83 398.42 251.75 398.24 194.21 398.16 136.67 397.9"/></g><g id="freepik--Device--inject-41"><path class="cls-5" d="M433.23,63.47c-23.15-42-74.91-43.12-83.36-43.43-8.45.31-60.21,1.4-83.36,43.43-42.37,76.91,33.16,113,46.52,187.31h73.68C400.07,176.48,475.6,140.38,433.23,63.47Z"/><rect class="cls-6" x="261.51" y="327.4" width="22.53" height="9.52"/><rect class="cls-6" x="248.94" y="339.41" width="22.53" height="9.52"/><rect class="cls-6" x="598.47" y="333.41" width="22.53" height="9.52"/><rect class="cls-6" x="554.57" y="65.08" width="22.53" height="9.52"/><rect class="cls-6" x="567.14" y="77.08" width="22.53" height="9.52"/><rect class="cls-6" x="579.9" y="152.41" width="22.53" height="9.52"/><rect class="cls-6" x="595.47" y="138.08" width="22.53" height="9.52"/><rect class="cls-6" x="161.9" y="65.08" width="22.53" height="9.52"/><rect class="cls-6" x="174.47" y="77.08" width="22.53" height="9.52"/><rect class="cls-6" x="206.18" y="65.08" width="22.53" height="9.52"/><path class="cls-6" d="M455.15,170.91a11.39,11.39,0,1,1,5.22-12.34,11.39,11.39,0,0,1-5.22,12.34Z"/><path class="cls-1" d="M452.76,159.9a3.47,3.47,0,1,1-3.43-3.51h0A3.48,3.48,0,0,1,452.76,159.9Z"/><path class="cls-1" d="M455.16,169.48v1.43a11.39,11.39,0,0,1-12-.15v-1.42a6,6,0,0,1,12,.14Z"/><path class="cls-6" d="M255.49,318.08a18.4,18.4,0,1,1,8.45-19.92A18.39,18.39,0,0,1,255.49,318.08Z"/><path class="cls-1" d="M251.63,300.27a5.6,5.6,0,1,1-5.53-5.67A5.6,5.6,0,0,1,251.63,300.27Z"/><path class="cls-1" d="M255.52,315.76v2.32a18.4,18.4,0,0,1-19.35-.24v-2.31a9.68,9.68,0,0,1,19.35.23Z"/><rect class="cls-7" x="324.11" y="206.62" width="24.38" height="24.38"/><path class="cls-1" d="M345.08,214a3.68,3.68,0,0,0-3.87-4q-4.9,0-9.83,0a3.69,3.69,0,0,0-3.85,3.51v10.06a3.73,3.73,0,0,0,3.93,4c3.23,0,6.48,0,9.72,0a3.7,3.7,0,0,0,3.9-3.94C345.1,220.44,345.09,217.19,345.08,214Zm-1.58,9.72a2.13,2.13,0,0,1-2.34,2.36q-4.86,0-9.72,0a2.13,2.13,0,0,1-2.35-2.34v-9.79a2.15,2.15,0,0,1,2.34-2.37q4.86,0,9.72,0a2.15,2.15,0,0,1,2.35,2.36v4.9C343.5,220.45,343.53,222.06,343.5,223.69Z"/><path class="cls-1" d="M336.32,214.21a4.61,4.61,0,1,0,4.55,4.65h0A4.6,4.6,0,0,0,336.32,214.21Zm-.06,7.64a3,3,0,1,1,.18-5.95,3.05,3.05,0,0,1,2.92,2.92A3.1,3.1,0,0,1,336.26,221.85Z"/><path class="cls-1" d="M342.26,214.1a1,1,0,0,1-.94,1h-.15a1,1,0,0,1-1-1.15,1,1,0,0,1,1.05-1h.06a1,1,0,0,1,1,1.06A.49.49,0,0,1,342.26,214.1Z"/><rect class="cls-4" x="369.54" y="64.37" width="24.38" height="24.38"/><path class="cls-8" d="M378.79,69.8a3.38,3.38,0,0,1,.27.85l1.41,5.09a6.22,6.22,0,0,0,.25.83,11.24,11.24,0,0,0,.3,1.17c.15-.08,1.94-1.77,2.11-1.92l.21-.2,2.94-2.71.22-.19c.16-.15.31-.27.43-.4a11.14,11.14,0,0,0,.84-.81l-9.49-3.63Z"/><path class="cls-9" d="M380.72,76.57a6.22,6.22,0,0,1-.25-.83l-1.41-5.09a3.38,3.38,0,0,0-.27-.85l-.12-.38c-.05-.16-.09-.31-.13-.48a5.24,5.24,0,0,0-.29-.92l-.07,9.83c.26-.07,2.26-1.23,2.54-1.28Z"/><path class="cls-8" d="M380.89,82h.29v1.69h-.43v.55l1.52,0v-.57h-.47c-.06-.52,0-1.47.53-1.67s.51.19.51.57a8,8,0,0,1,0,1.1h-.4v.56h1.44v-.56h-.41a3.93,3.93,0,0,1,0-1,.91.91,0,0,1,.48-.63c.5-.2.52.16.52.53v1.13h-.41v.56h1.46v-.57h-.43c-.06-.59.15-1.59-.21-2a1,1,0,0,0-.84-.29,1,1,0,0,0-.43.13c-.15.08-.23.18-.34.23a1.08,1.08,0,0,0-1.5-.13v-.24h-.91Z"/><path class="cls-8" d="M388.65,80.84H389V84.3h.58l.07-.13a1.27,1.27,0,0,0,1.3-.1,1.49,1.49,0,0,0-.58-2.62,1.91,1.91,0,0,0-.75.11V80.27h-.93Zm.94,1.4c0,.24,0,.48,0,.73s0,.39.16.57a.62.62,0,0,0,1-.13c.43-.74-.12-1.83-1.13-1.17Z"/><path class="cls-10" d="M379,80.58h.38V81.7a1.51,1.51,0,0,0-1.53,0,1.47,1.47,0,0,0-.56,1.34,1.32,1.32,0,0,0,.72,1.18,1.2,1.2,0,0,0,1.39-.24c.11.13.07.26.25.33a.75.75,0,0,0,.51,0,.66.66,0,0,0,0-.14.34.34,0,0,0-.05-.14l-.32,0a36.69,36.69,0,0,1-.08-3.71H379Zm.39,1.54c-.09-.18-.49-.31-.67-.34a.9.9,0,0,0-.76.21,1.36,1.36,0,0,0-.2,1.51.88.88,0,0,0,1.33.32.75.75,0,0,0,.3-.7v-1Z"/><path class="cls-8" d="M386.78,81.47a1.41,1.41,0,1,0,1.66,1.11,1.38,1.38,0,0,0-1.66-1.11Zm.06.59c-1,.3-.61,2,.45,1.64s.63-2-.45-1.64Z"/><path class="cls-10" d="M372.47,81.83c.19.13.95,2.2,1.17,2.47h.25l.9-2.09c.22-.5.06-.37.56-.46v-.26a10.85,10.85,0,0,0-1.29,0v.29h.55l-.86,2c-.09-.08-.66-1.38-.76-1.61s-.22-.62-.51-.67-.42,0-.42.18.26.11.39.18Z"/><path class="cls-10" d="M376,81.76h.33c0,.34.05,2,0,2.21l-.48,0v.27l1.29,0V84h-.47V81.46H376Z"/><rect class="cls-11" x="269.66" y="119.37" width="23.94" height="24.38"/><path class="cls-12" d="M282.05,129.56c0-1.29.09-1.08-2.06-1.08-.74,0-.72.15-.72.87v6.4c0,1.86-.22,1.68,1.49,1.68s1.29.32,1.29-3.48c0-1.15-.1-1.91.49-2.71a1.4,1.4,0,0,1,2.16.08,5.76,5.76,0,0,1,.34,2.83v1.6c0,2-.35,1.67,2.26,1.68.3,0,.45-.05.54-.26s0-2.74,0-3.16c0-1.64.14-4.08-1.28-5.1a3.58,3.58,0,0,0-4.17.2l-.36.43,0,0Z"/><path class="cls-12" d="M275.59,128.5c-.45.14-.34.56-.34,1.13v5.89c0,1.87-.22,1.91,1,1.91,1.82,0,1.76.19,1.76-1.15v-5.9c0-1.86.21-1.9-1-1.9a11,11,0,0,0-1.42,0Z"/><path class="cls-12" d="M276.27,124.12a1.8,1.8,0,0,0-1.38,2.16,1.78,1.78,0,0,0,2.11,1.4,1.81,1.81,0,0,0,1.39-2.16,1.78,1.78,0,0,0-2.12-1.4Z"/><rect class="cls-7" x="297.51" y="39.08" width="33.66" height="33.66"/><path class="cls-8" d="M300.38,56.1a11.81,11.81,0,0,0,.13,1.8,13.55,13.55,0,0,0,1.16,4c.26.51.27.56.58,1.13a15.5,15.5,0,0,0,1.81,2.45l.42.45a15.34,15.34,0,0,0,1.85,1.55l.5.33a6.1,6.1,0,0,0,.54.34l.54.3A14,14,0,0,0,314,70a14.09,14.09,0,0,0,3.72-.39,13.22,13.22,0,0,0,2.53-.9,11.53,11.53,0,0,0,1.63-.89l.52-.35.25-.17c.09-.07.16-.11.24-.18l1.15-1,1.41-1.57c.3-.4.6-.82.87-1.25l.61-1.1a14.86,14.86,0,0,0,1-2.83,12.27,12.27,0,0,0,.27-1.44,12.94,12.94,0,0,0,.14-1.55v-.83a13.72,13.72,0,0,0-.4-3,14.4,14.4,0,0,0-1-2.81l-.44-.82c-.11-.19-.22-.35-.32-.53A13.71,13.71,0,0,0,325,46.85a12.57,12.57,0,0,0-1.6-1.58l-.11-.1a14.27,14.27,0,0,0-1.36-1,10.5,10.5,0,0,0-1.08-.63,13.58,13.58,0,0,0-4.54-1.46,12.47,12.47,0,0,0-1.51-.12H314a13.4,13.4,0,0,0-3,.39c-.47.12-.88.25-1.32.39a14.06,14.06,0,0,0-4.56,2.7c-.21.2-.4.34-.68.62s-.53.57-.8.88l-.75,1-.33.5c-.12.18-.23.36-.34.54a13.81,13.81,0,0,0-1.88,6.67Z"/><path class="cls-12" d="M301.11,56.1a11.79,11.79,0,0,0,.12,1.7,12.75,12.75,0,0,0,1.11,3.76c.24.48.25.53.55,1.07A14.38,14.38,0,0,0,304.6,65l.4.42a13.62,13.62,0,0,0,1.75,1.47c.15.11.32.21.48.32l.5.32.51.28a13.3,13.3,0,0,0,5.82,1.5,13.54,13.54,0,0,0,3.53-.37,12,12,0,0,0,2.39-.85,10.9,10.9,0,0,0,1.55-.85l.49-.33.23-.16.24-.17,1.09-.93,1.33-1.48c.29-.39.57-.79.83-1.2l.57-1a14,14,0,0,0,1-2.68,10.93,10.93,0,0,0,.26-1.36,14.09,14.09,0,0,0,.13-1.47v-.79a13.69,13.69,0,0,0-.38-2.82,14,14,0,0,0-1-2.66l-.42-.78c-.09-.18-.2-.33-.3-.49a13.39,13.39,0,0,0-1.12-1.51A13.55,13.55,0,0,0,323,45.82a.43.43,0,0,1-.1-.09,12.87,12.87,0,0,0-1.3-.93,9.34,9.34,0,0,0-1-.61,12.72,12.72,0,0,0-4.31-1.37,11.18,11.18,0,0,0-1.44-.12H314a12.8,12.8,0,0,0-2.82.37c-.44.11-.83.23-1.24.37A13.38,13.38,0,0,0,305.64,46c-.2.19-.37.32-.64.58s-.51.54-.76.84l-.71.91c-.11.15-.21.32-.32.48a5.19,5.19,0,0,0-.31.5,13.25,13.25,0,0,0-1.41,3.46,13.68,13.68,0,0,0-.38,2.87Z"/><path class="cls-8" d="M311.05,67.39l.33.09.33.08c.23.06.46.1.72.15a11.89,11.89,0,0,0,5.53-.38,3.7,3.7,0,0,1,.4-.13c-.13-.25-1.27-3.42-1.41-3.8-.45-1.24-.93-2.62-1.4-3.83l-.81-2.23c0-.11-.07-.25-.15-.3a2.64,2.64,0,0,1-.1.3l-1.23,3.57c-.14.43-.3.85-.45,1.29l-1.33,3.88c-.07.21-.42,1.19-.43,1.31Z"/><path class="cls-8" d="M302.52,55.57a12.94,12.94,0,0,0,.06,1.76c0,.28.08.63.14.91A11.94,11.94,0,0,0,304,61.75a11.67,11.67,0,0,0,1.43,2l.38.42c.17.21.39.36.54.52a12.34,12.34,0,0,0,2.16,1.58,4.31,4.31,0,0,0,.71.36c0-.1-.77-2.11-.88-2.42-.35-1-.78-2.11-1.15-3.16l-.8-2.19c-.36-.91-.7-2-1.06-2.91l-1.06-2.92c-.12-.32-.26-.65-.36-1l-.27-.73c0-.13,0-.18-.13-.21l-.36,1a11.69,11.69,0,0,0-.63,3.44Z"/><path class="cls-8" d="M324.9,51.44c0,2.33-.78,3.85-1.45,5.87-.57,1.74-1.26,3.6-1.84,5.35-.11.31-.21.59-.31.89s-.91,2.52-.92,2.71c.49-.33.58-.34,1.18-.79a12,12,0,0,0,1.06-.91,1.71,1.71,0,0,0,.25-.22l.7-.79L324,63a13.1,13.1,0,0,0,.94-1.51,10.34,10.34,0,0,0,.74-1.74,11.45,11.45,0,0,0,.41-1.56,11.84,11.84,0,0,0-1-7.34c-.08-.15-.19-.47-.31-.55,0,.48.08.64.08,1.14Z"/><path class="cls-8" d="M304.48,49.47h1.25l2.41-.11a.75.75,0,0,1,.55,0,.5.5,0,0,1,0,.8,2.78,2.78,0,0,1-1.06.16l-.55,0a6.21,6.21,0,0,0,.26.8l.53,1.6c.09.28.17.53.27.8.41,1,.68,2.17,1.08,3.22.34.87.78,2.31,1.08,3.21l.94,2.8a2.61,2.61,0,0,1,.13.43c.11,0,.07,0,.11-.14L313.9,56c.16-.49.2-.35.05-.8-.08-.26-.18-.52-.29-.79l-1.31-3.61c-.05-.12-.08-.31-.19-.37a4,4,0,0,0-.5,0l-.5,0c-.37,0-.64-.07-.64-.5,0-.69.87-.42,1.39-.42.28,0,.58.06.88.06s.6,0,.95,0l2.24,0c.45,0,.94-.09,1.36-.09a.49.49,0,0,1,.31.87c-.27.19-1.24.13-1.61.21a5.24,5.24,0,0,0,.25.8c.1.28.18.53.27.81l3.63,10.77c0,.11.08.33.17.39a3.62,3.62,0,0,1,.13-.47l.71-2.39.14-.47.44-1.42c.75-2.22,1-4-.2-6.11l-.59-1-.27-.5a3.66,3.66,0,0,1-.4-1.15,2.29,2.29,0,0,1,.16-1.3,2,2,0,0,1,1.93-1.18c0-.15-.56-.51-.7-.63s-.52-.38-.79-.57a11.68,11.68,0,0,0-6.13-1.93,11.48,11.48,0,0,0-4,.54c-.23.07-.46.14-.69.23a9.65,9.65,0,0,0-1.59.76l-.3.17a10.43,10.43,0,0,0-1.86,1.38l-.47.44c-.09.09-.13.16-.22.25a5.24,5.24,0,0,0-.44.5c-.15.18-.28.34-.42.53l-.2.27a.74.74,0,0,0-.17.3Z"/><rect class="cls-7" x="355.22" y="30.79" width="26.59" height="26.59"/><path class="cls-12" d="M361.69,41.78c-.16.72-.42,1.35-.53,2.14l-.13,1.4.05,1.57c.09.47.15.92.28,1.37s.36.87.5,1.29a14.55,14.55,0,0,0,.84,1.28,3.29,3.29,0,0,0,.53.57l.57.53c.17.08.29.19.46.29l.46.27c.31.17.73.32,1,.47a9,9,0,0,0,1.56.31,6.78,6.78,0,0,0,1.68-.1,9.07,9.07,0,0,0,3.76-1.77,6.88,6.88,0,0,0,1-.89l.83-1c.23-.31.5-.8.75-1.09.21-.61.12-1.28-.53-1.37s-.88.53-1.17,1a6.11,6.11,0,0,1-2.19,2.09A5.59,5.59,0,0,1,368,51a4.07,4.07,0,0,1-2.22-1,2.38,2.38,0,0,1-.48-.63,3.21,3.21,0,0,1-.61-1,9.6,9.6,0,0,1-.42-1.28,9.33,9.33,0,0,1,.13-3.73A11.79,11.79,0,0,1,367,38.18c.2-.18.34-.38.55-.56,2.19-1.94,3.78-.35,3.62,1.19-.07.66-.53,1.2-.36,1.75.23.33.49.62,1,.36a3.8,3.8,0,0,0,.84-.73,4.2,4.2,0,0,0,.43-.85,3,3,0,0,0-.57-2.91,5.89,5.89,0,0,0-1-.77,4.07,4.07,0,0,0-1.32-.47,5.59,5.59,0,0,0-3.33.39,6.44,6.44,0,0,0-1.19.7,6.59,6.59,0,0,0-.54.42l-.5.45a11.16,11.16,0,0,0-2.42,3.32c-.2.42-.35.88-.56,1.31Z"/><rect class="cls-7" x="345.72" y="140.21" width="18.66" height="18.66"/><path class="cls-1" d="M349.18,153.36a5.36,5.36,0,0,0,3.43-1.06c-1.42-.44-2-.88-2.21-1.67l1,0a2.61,2.61,0,0,1-1.86-2.41l1,.26c-1-1.29-1.24-2.29-.62-3.23a7.09,7.09,0,0,0,5,2.52v-.4a2.32,2.32,0,0,1,1.35-2.33,2.37,2.37,0,0,1,2.67.32.47.47,0,0,0,.54.11l1.18-.44a2.4,2.4,0,0,1-.93,1.2l0,.07,1.17-.3.05.05c-.3.3-.59.62-.92.91a.63.63,0,0,0-.25.52,7,7,0,0,1-10.34,6.07Z"/><rect class="cls-7" x="322.39" y="81.64" width="30.46" height="30.46"/><path class="cls-12" d="M333.54,100h.64c.24-.1.57-.1.84-.23A2.2,2.2,0,0,0,336.36,98c.15-.71-.1-2.69,1.29-2.84,0,1,0,1.94,0,2.9,0,1.74-.17,1.76.37,1.75.15,0,.61,0,.66-.07l.05-.13a20.37,20.37,0,0,1,.11-2.6c.13-.76.5-1.7,1.09-1.84l0,4.6a2.85,2.85,0,0,0,1.05,0c.14-1.13-.27-4,1.17-4.61.21.62-.08,3.64.06,4.59a1.58,1.58,0,0,0,1,0c.1-.83-.27-4.84,1.6-4.56-.06.26-.18.45-.26.72a3.7,3.7,0,0,0,.8,3.59c.53.43.78.28,1.32.5h.68c.58-.24.89,0,1.58-.78s.49-1.28.67-1.74v-.8c-.09-.26-.1-.73-.24-1.09-.88-2.33-3.4-1.38-3.5-1.38a1.9,1.9,0,0,0-2.48.75l-.15.19a5,5,0,0,0,0-1c-.12-.31-1.09-.1-1.46.14a1.93,1.93,0,0,0-.78.92V94a2.31,2.31,0,0,0-1.5.25c-.41.25-.5.52-.78.92V94a2.83,2.83,0,0,0-1.69.31c-.64.41-.66.79-.89,1.1A2.43,2.43,0,0,0,333.91,94c-2.54,0-3,2.7-2.41,4.46.49,1.45,1.59,1.36,2,1.54Zm13.19-4.88c-1.63.39-1.5,4.25.7,3.75,1.66-.38,1.47-4.28-.7-3.75Zm-13.2,0c-1.67.41-1.48,4.28.7,3.76.88-.21,1.14-1.16,1-2.22s-.66-1.8-1.75-1.54Z"/><path class="cls-12" d="M326.48,96.64v1l1.16.07a13.56,13.56,0,0,1,0,1.59c0,.32,0,.37.07.46s.89.23,1-.1-.07-1.78,0-1.92,1.58.07,1.77-.11a1.94,1.94,0,0,0,0-1c-.06-.07-.33-.06-.44-.06a5,5,0,0,1-1.33,0,3,3,0,0,1,0-1.26c.26-.19,1.45,0,1.89-.08a2.11,2.11,0,0,0,1.26-.74c-.18-.3-.45-.42-.63-.69h-.09c-.6.76-3.07.16-3.5.44-.18.16,0,2.2-.12,2.35s-.84,0-1.13.08Z"/><rect class="cls-11" x="269.21" y="77.46" width="24.38" height="24.38"/><path class="cls-12" d="M286.76,90.89c0-.14.79-2.35.86-2.47a2.2,2.2,0,0,1,.63,0s.68,1.89.76,2.14a1.42,1.42,0,0,1,.11.33h-.56a2.7,2.7,0,0,0-.18-.57h-.9l-.18.57Zm2.89,0c0-.22,0-2,0-2a3.5,3.5,0,0,0-.66,0v-.39h1.82v.39a4.61,4.61,0,0,0-.66,0,19.17,19.17,0,0,0,0,2Zm-5.26-2.47h.53v1h1v-1h.52V90.9h-.52v-1h-1v1h-.53Zm-2.33,1.23a1.22,1.22,0,0,1,1.88-1.08,2,2,0,0,1-.16.4,3.93,3.93,0,0,0-.41-.14c-.55-.07-.77.29-.77.84,0,1.2.94.76,1.25.72v.41l-.32.1a1.13,1.13,0,0,1-1.47-1.25Zm-.54,1.13a.74.74,0,0,1-.08.46.82.82,0,0,1-.3.3l-.11.08,0,0-.18.08a.19.19,0,0,1-.13,0c0,.2,0,.21.07.36l.14.2,0,0c.25.25.64.18,1,.18h5.52s0,0,0,0l.45.44.08.07.51.49h0l0,0c.16.15.09.13.32.13a.08.08,0,0,0,.09-.08V92.52h2.16a.82.82,0,0,0,.54-.32.87.87,0,0,0,.1-.19V87.36a.79.79,0,0,0-.47-.47l0,0c-.07,0,0,0-.06,0h-9.67Z"/><path class="cls-12" d="M274.52,89.24a.27.27,0,0,0,.18.23.74.74,0,0,0,.35,0c.66-.07.35-1.12.41-2.08H276c0,.38,0,.91,0,1.31s0,.75-.31,1c-.58.46-1.67.18-1.7-.49v-1.8h.49a16.19,16.19,0,0,0,0,1.74c0,.07,0,0,0,0Zm4.89-.83s0,0,.16,0h.64v.38h-.78c-.08,0,0,0-.05.05v.6a3.69,3.69,0,0,0,.88,0v.4h-1.39V87.46h1.39v.4h-.84c-.06,0,0,0,0,0Zm-7,.64s0,0,0,0v.8h-.49V87.46l1,0c.39,0,.79.39.63,1s-.78.53-1.13.57Zm4.62.88c-.64,0-.53,0-.53-.19,0-.67,0-1.71,0-2.28a6.4,6.4,0,0,1,.88,0c.55,0,1,.33.8,1-.05.23-.24.33-.41.45,0,.11.64.92.69,1.07h-.58a17.92,17.92,0,0,0-.58-.94H277Zm-6.17-3.53V91a.38.38,0,0,0,.1.21.83.83,0,0,0,.56.34h2.15v1.13a.15.15,0,0,0,.16.13h.06l.84-.78h0l.38-.37c.07-.08.05-.09.2-.09h4.29a5.12,5.12,0,0,0,1.19,0,.73.73,0,0,0,.39-.28h0l0,0a.75.75,0,0,0,.11-.4c0-.48,0-4.24,0-4.38l-.13-.26a.74.74,0,0,0-.35-.26h-.08c-2.45,0-5,0-7.45,0h-1.81a.54.54,0,0,0-.49.22,1.32,1.32,0,0,0-.15.24Z"/><path class="cls-12" d="M272.35,88.61h.13c.32,0,.54-.07.52-.42s-.34-.33-.65-.3Z"/><path class="cls-12" d="M277,88.44v.11c.27,0,.6,0,.65-.28s-.25-.39-.54-.39H277Z"/><path class="cls-12" d="M287.64,89.87h.6a8.63,8.63,0,0,0-.27-1h0v0l0,0a10.23,10.23,0,0,0-.29,1Z"/><rect class="cls-11" x="405.13" y="70.86" width="17.75" height="17.75"/><path class="cls-8" d="M411,74.33l2,2a3.61,3.61,0,0,1,.17-.63,1.59,1.59,0,1,1,2.12,2.07c-.91.4-3.72-.07-4.59.22a1.48,1.48,0,0,0-1.1,1.49v1h5.32a4.07,4.07,0,0,0,2.17-.78,4.24,4.24,0,0,0,1-5.76,2,2,0,0,0-.22-.29,3.25,3.25,0,0,0-.23-.29,4.19,4.19,0,0,0-2.78-1.25,4.09,4.09,0,0,0-3.32,1.33,2.31,2.31,0,0,0-.55.84Z"/><path class="cls-12" d="M414.65,84.15h-.81v-.77h.81a.47.47,0,0,1,.28.1.46.46,0,0,1,0,.56.45.45,0,0,1-.29.11Zm-1.49-1.05V86h.68V84.79h.44L415,86h.82l-.1-.14-.52-.77a.83.83,0,0,1-.11-.15.4.4,0,0,1-.09-.17.92.92,0,0,0,.51-.31,1.11,1.11,0,0,0,.21-.73,1,1,0,0,0-1-1h-1.21a.37.37,0,0,0-.32.36Z"/><path class="cls-12" d="M408.84,83.46l.33.88a1.92,1.92,0,0,1,.11.31h-.87a1.49,1.49,0,0,1,.09-.3Zm-.19-.72h.59c0,.07.06.14.08.22l.24.6c.22.61.57,1.39.78,2,.05.14.12.27.16.4h-.72c-.1-.2-.16-.47-.26-.67h-1.37c0,.11-.2.51-.24.67h-.74l.75-1.89.38-1c.07-.17.1-.31.29-.36Z"/><path class="cls-12" d="M411.65,85.43a.58.58,0,0,1-.6-.54.66.66,0,0,1,.18-.56.59.59,0,0,1,1,.5.58.58,0,0,1-.58.6Zm.88-2.69h.29V86h-.57c0-.1,0-.17,0-.29a.89.89,0,0,1-.8.35,1.13,1.13,0,0,1-1-1,1.24,1.24,0,0,1,.61-1.35,1.19,1.19,0,0,1,.44-.11.94.94,0,0,1,.74.25c0-.31-.06-.81.09-1a.38.38,0,0,1,.25-.11Z"/><path class="cls-12" d="M416.94,84.17a.58.58,0,0,1,.55.35.74.74,0,0,1-.1.71.57.57,0,0,1-.43.2.63.63,0,0,1,0-1.26Zm.14,1.85h-.3a1,1,0,0,1-.41-.12l-.19-.1a1.23,1.23,0,0,1-.49-1,1.28,1.28,0,0,1,2.16-.87,1.24,1.24,0,0,1-.77,2.1Z"/><path class="cls-12" d="M419.51,82.9v1.87a2.65,2.65,0,0,0,.06.87.59.59,0,0,0,.53.38h.14a.8.8,0,0,0,.4-.14c0-.14-.16-.29-.19-.43s-.16,0-.23,0a.28.28,0,0,1-.07-.2V82.76c-.16,0-.5.13-.64.14Z"/><path class="cls-12" d="M418.4,83.22v2.07A.66.66,0,0,0,419,86c.41,0,.31-.07.52-.12a1.78,1.78,0,0,0-.2-.45c-.15,0-.28,0-.28-.14V83a1.28,1.28,0,0,0-.34.07c-.15,0-.31,0-.31.13Z"/><rect class="cls-7" x="315.66" y="133.54" width="15.45" height="15.45"/><rect class="cls-1" x="317.88" y="137.77" width="11.01" height="6.98"/><path class="cls-7" d="M328.89,137.77c-.44.43-.9.83-1.35,1.25s-.9.82-1.35,1.23l-1.43,1.25s0,0,0,0l-1.27,1.1-.06.05-.06-.05-1.27-1.1,0,0c-.49-.41-1-.83-1.43-1.26s-.91-.81-1.36-1.22-.9-.82-1.35-1.25c.48.37.94.73,1.41,1.12l1.39,1.15c.47.39,1,.86,1.55,1.3h0l1.16,1,1.15-1h0l1.55-1.3,1.39-1.15Z"/><path class="cls-7" d="M322.25,141.5h0l-.18.15c-.27.23-.55.46-.84.67l-1.07.78c-.34.25-.73.5-1.09.73s-.75.47-1.14.68c.33-.29.68-.56,1-.83l1.07-.78c.36-.25.73-.5,1.09-.73l.91-.55.21-.12Z"/><path class="cls-7" d="M328.87,144.53c-.4-.21-.77-.45-1.14-.68l-1.1-.73c-.36-.25-.73-.51-1.07-.78s-.56-.44-.84-.67l-.17-.15h0l.21.12c.31.18.61.37.91.56l1.09.72c.37.25.73.52,1.07.79S328.53,144.24,328.87,144.53Z"/><rect class="cls-4" x="367.85" y="100.67" width="24.38" height="24.38"/><path class="cls-7" d="M387.57,110.86a4,4,0,1,1-4-4A4,4,0,0,1,387.57,110.86Z"/><path class="cls-13" d="M378.62,113.37c.44-.25.86-.34.95-.2s-.21.47-.64.72-.86.34-.95.19S378.19,113.62,378.62,113.37Z"/><path class="cls-13" d="M380.54,115.5c.25-.43.58-.72.71-.63s.06.5-.19.93-.58.72-.72.64S380.29,115.94,380.54,115.5Z"/><path class="cls-13" d="M383.56,115.48c.17,0,.3.41.3.91s-.13.91-.3.91-.3-.41-.3-.91S383.4,115.48,383.56,115.48Z"/><path class="cls-7" d="M383.87,105.33c0,.51-.14.92-.31.92s-.3-.41-.3-.92.14-.91.3-.91S383.87,104.83,383.87,105.33Z"/><path class="cls-7" d="M381.06,105.93c.25.43.34.85.19.93s-.46-.2-.71-.63-.34-.86-.2-.94S380.81,105.49,381.06,105.93Z"/><path class="cls-7" d="M378.93,107.84c.43.25.72.57.64.72s-.51,0-.95-.2-.72-.57-.64-.72S378.49,107.59,378.93,107.84Z"/><ellipse class="cls-7" cx="378.04" cy="110.86" rx="0.91" ry="0.3"/><path class="cls-7" d="M386.07,115.8c-.26-.43-.34-.85-.2-.93s.47.2.72.63.34.86.2.94S386.32,116.24,386.07,115.8Z"/><path class="cls-7" d="M388.2,113.89c-.44-.25-.72-.58-.64-.72s.5,0,.94.2.73.57.64.71S388.64,114.14,388.2,113.89Z"/><ellipse class="cls-7" cx="389.09" cy="110.86" rx="0.91" ry="0.3"/><path class="cls-7" d="M388.5,108.36c-.44.25-.86.34-.94.2s.2-.47.64-.72.86-.34.94-.2S388.94,108.11,388.5,108.36Z"/><path class="cls-7" d="M386.59,106.23c-.25.43-.58.72-.72.63s-.06-.5.2-.93.57-.72.72-.64S386.84,105.79,386.59,106.23Z"/><path class="cls-1" d="M388.79,118.89a2.4,2.4,0,0,1-2.23,2.4H372.91a2.83,2.83,0,0,1-.27-5.65,4.77,4.77,0,0,1,9.25-1.49,2.83,2.83,0,0,1,3.8,1.26,3,3,0,0,1,.3,1.1,1.67,1.67,0,0,1,.39,0,2.41,2.41,0,0,1,2.41,2.41Z"/><rect class="cls-14" x="354.64" y="192.54" width="30.67" height="30.67"/><path class="cls-1" d="M365.42,211.2h-4.1v-4.7h4c0-.36,0-.64,0-.92,0-1.23,0-2.47.09-3.7a5.18,5.18,0,0,1,4.58-5,38,38,0,0,1,5.12,0v4.27h-1.85a9.09,9.09,0,0,0-1.65.11,1.54,1.54,0,0,0-1.3,1.49c-.05,1.2,0,2.4,0,3.7h4.68c-.2,1.54-.37,3-.59,4.38,0,.14-.38.32-.58.32h-3.47v12h-5Z"/><path class="cls-7" d="M388.27,194.28a4.62,4.62,0,1,1-4.63-4.61h0A4.62,4.62,0,0,1,388.27,194.28Z"/><path class="cls-1" d="M385.36,196.45a.41.41,0,0,1-.39.4h-2.62a.41.41,0,0,1-.28-.73l2.17-2a.91.91,0,0,0,.31-.73,1,1,0,0,0-1.6-.7l-.24.21a.4.4,0,0,1-.56-.1.39.39,0,0,1,0-.5l.22-.21a1.76,1.76,0,1,1,2.36,2.61L383.37,196h1.57a.39.39,0,0,1,.42.37Z"/><rect class="cls-4" x="303.97" y="167.13" width="31.23" height="31.23"/><path class="cls-1" d="M309.21,193c.44-1.6.84-3.09,1.28-4.57a1.62,1.62,0,0,0-.12-1.31,10.36,10.36,0,1,1,9.84,5.66,11.05,11.05,0,0,1-5.1-1,1.57,1.57,0,0,0-1-.08C312.53,192.16,310.94,192.59,309.21,193Zm2.5-2.43c1-.26,1.87-.51,2.75-.69a1.41,1.41,0,0,1,.9.12,9.25,9.25,0,0,0,4.15,1.08,8.57,8.57,0,0,0,8.57-10,8,8,0,0,0-6.44-6.72A8.57,8.57,0,0,0,312.26,187a1.68,1.68,0,0,1,.13,1c-.17.83-.43,1.64-.68,2.56Z"/><path class="cls-1" d="M315.11,178.51c.7-.94,1.64-.73,2.13.28a10.59,10.59,0,0,1,.42,1,1.25,1.25,0,0,1-.28,1.63.64.64,0,0,0-.16.9l.08.09a7.28,7.28,0,0,0,3.12,2.64.69.69,0,0,0,.95-.21c.9-1.08.92-1.06,2.21-.47l.45.22a1.18,1.18,0,0,1,.8,1.48,1.28,1.28,0,0,1-.47.65,2.92,2.92,0,0,1-2.88.7,10.49,10.49,0,0,1-6.26-4.76,4,4,0,0,1-.78-2.33A3.49,3.49,0,0,1,315.11,178.51Z"/><rect class="cls-11" x="378.66" y="153.21" width="30.24" height="30.24"/><path class="cls-12" d="M392.49,168.33a3.12,3.12,0,0,0,.07.63,2.89,2.89,0,0,0,.42,1l.11.15a3.92,3.92,0,0,0,.34.37l.24.19a2.69,2.69,0,0,0,.44.26l.12.06a2.76,2.76,0,0,0,1.22.22,2.82,2.82,0,0,0,1.11-.26,2.86,2.86,0,0,0,.62-.4l.05,0a2.82,2.82,0,0,0,.8-1.17,2.13,2.13,0,0,0,.08-.27,2.87,2.87,0,0,0,.06-1.13l-.06-.29a2.58,2.58,0,0,0-.08-.26l-.1-.24a2.36,2.36,0,0,0-.4-.62l-.08-.1a3.23,3.23,0,0,0-.55-.47l-.06,0-.28-.15a3,3,0,0,0-.78-.24,1.73,1.73,0,0,0-.32,0h-.22a3.33,3.33,0,0,0-.61.09,2.57,2.57,0,0,0-.62.24,2.84,2.84,0,0,0-1.27,1.36l-.1.25a.74.74,0,0,0,0,.14,2.7,2.7,0,0,0-.11.77Zm2.92-1.71a1.71,1.71,0,1,1-1.71,1.71,1.7,1.7,0,0,1,1.71-1.71Z"/><path class="cls-12" d="M386.51,168.18a3,3,0,0,0,.09.89,2.35,2.35,0,0,0,.14.37l.17.34a1.48,1.48,0,0,0,.13.21.86.86,0,0,1,.07.1,2.93,2.93,0,0,0,1.55,1l.28.05.36,0h.2a2.89,2.89,0,0,0,.82-.16,2.74,2.74,0,0,0,.68-.35l.24-.19,0,0a3,3,0,0,0,.4-.46,2.72,2.72,0,0,0,.5-1.2,2.9,2.9,0,0,0-.19-1.57l-.11-.23a2.07,2.07,0,0,0-.19-.32l-.08-.1-.07-.09-.25-.26-.05,0-.05,0a2.52,2.52,0,0,0-.51-.34,3.19,3.19,0,0,0-.75-.27,3.64,3.64,0,0,0-.45-.05h-.2l-.33,0a2.57,2.57,0,0,0-.9.29,2.52,2.52,0,0,0-.51.34,3.68,3.68,0,0,0-.35.33,3,3,0,0,0-.59,1.12,3.64,3.64,0,0,0-.09.59Zm2.85-1.56a1.71,1.71,0,1,1-1.71,1.71,1.7,1.7,0,0,1,1.71-1.71Z"/><path class="cls-12" d="M406.46,171.18v-3.27h0v-.27a1.6,1.6,0,0,0,0-.33,2.27,2.27,0,0,0-.51-1,2,2,0,0,0-.2-.21l-.09-.08-.09-.06a2.28,2.28,0,0,0-1.19-.44H404a2.38,2.38,0,0,0-.78.21l-.21.11a2.74,2.74,0,0,0-.54.45,2.11,2.11,0,0,0-.41-.37,2.44,2.44,0,0,0-1.15-.4h-.29a2.9,2.9,0,0,0-.41.06,2.43,2.43,0,0,0-.68.3l0,0a1.53,1.53,0,0,0-.2-.15,1.66,1.66,0,0,0-.81-.23v5.7a1.37,1.37,0,0,0,.71-.13.86.86,0,0,0,.38-.49,1.44,1.44,0,0,0,.05-.37.31.31,0,0,1,0-.1v-2c0-.08,0-.12,0-.21a1.45,1.45,0,0,1,.09-.55,1.13,1.13,0,0,1,.16-.26,1.11,1.11,0,0,1,.87-.42,1.26,1.26,0,0,1,.27,0,1.1,1.1,0,0,1,.76.63,1.45,1.45,0,0,1,.1.55s0,0,0,.09c0,.28,0,.68,0,1l0,1.47a.34.34,0,0,0,0,.1.9.9,0,0,0,.4.57,1.27,1.27,0,0,0,.71.14c0-1,0-2.09,0-3.13,0,0,0-.05,0-.09v-.1l0-.35a.94.94,0,0,1,0-.16,1.06,1.06,0,0,1,.43-.54,1,1,0,0,1,.42-.17,1.13,1.13,0,0,1,1,.28l.07.05h0l.08.09a1.19,1.19,0,0,1,.22.76V168c0,.12,0,1.71,0,2a1.86,1.86,0,0,0,.09.7,1,1,0,0,0,.14.2l.07.08a1.12,1.12,0,0,0,.84.24Z"/><path class="cls-12" d="M381.1,165.48h0a1.72,1.72,0,0,0,.06.53.92.92,0,0,0,.13.24l0,.05.07.07a1.14,1.14,0,0,0,.23.15,1.8,1.8,0,0,0,.74.09h2.43s-2.14,2.15-2.33,2.33l-.4.39v0h0l-.44.44,0,0,0,0h0l-.13.13s0,0,0,.1a1.64,1.64,0,0,0,.09.54.82.82,0,0,0,.41.43l.15,0a.8.8,0,0,0,.27,0h4.5c0-.09,0-.19,0-.28a.94.94,0,0,0-.37-.69l-.15-.08,0,0-.12,0a3.44,3.44,0,0,0-.57,0H383.1c0-.06,3.34-3.34,3.35-3.35l.05-.05s0,0,0-.09,0,0,0-.09a.93.93,0,0,0-.24-.7,1.18,1.18,0,0,0-1-.28Z"/><rect class="cls-4" x="414.07" y="104.83" width="24.38" height="24.38"/><path class="cls-12" d="M422.52,123.75a1,1,0,0,0,.07.15s0,0,0,0,0,0,0,0,0,0,0,0h0s0,0,0,0l0,.06,0,0v0l0,0v0s0,0,0,0l.05.09s0,0,0,0l0,.06s0,0,0,0h0s0,0,0,0l.07.07s0,0,0,0h0s0,0,0,0a.58.58,0,0,0,.4,0,.54.54,0,0,0,.28-.19s0,0,0,0l0-.06,0,0,0-.08s0,0,0,0l.05-.09s0,0,0,0l.2-.38,0,0,0,0,.26-.45c.42,0,.86,0,1.28,0H429c.24,0,.4,0,.61,0l0,0h.08s0,0,0,0h0l0,0h.06s0,0,0,0h0l0,0,.18-.07s0,0,0,0l.07,0s0,0,0,0a1.89,1.89,0,0,0,.31-.22s0,0,0,0,0,0,0,0,.11-.1.17-.17,0,0,0,0,.11-.13.14-.18,0,0,0,0v0s0,0,0,0l.14-.24s0,0,0,0l.09-.17s0,0,0,0l0-.09s0,0,0,0l0-.06s0,0,0,0h0s0,0,0,0l0-.06s0,0,0,0l.05-.09s0,0,0,0l0-.08s0,0,0,0l.09-.17s0,0,0,0v0l0,0,.07-.14s0,0,0,0l0-.06s0,0,0,0l.07-.14,0,0v0s0,0,0,0l.1-.17s0,0,0,0l.05-.09s0,0,0,0l0-.08s0,0,0,0l0-.08s0,0,0,0l0-.06s0,0,0,0l.05-.09s0,0,0,0l0-.09s0,0,0,0l.16-.28s0,0,0,0l.05-.09s0,0,0,0l.09-.17s0,0,0,0l.05-.08s0,0,0,0l.1-.16s0,0,0,0l.05-.08s0,0,0,0l.16-.28s0,0,0,0l0-.09s0,0,0,0l.15-.28s0,0,0,0l.05-.08s0,0,0,0l.35-.61s0,0,0,0l0-.06,0,0,0-.08v0h0l0,0a4.75,4.75,0,0,0,.14-.62,2.28,2.28,0,0,0,0-.37c0-.1,0-.25,0-.34s0,0,0-.05v0l0,0-.07-.23h0v0l0-.08,0,0,0-.09s0,0,0,0l-.16-.28s0,0,0,0l-.11-.2s0,0,0,0l-.16-.28s0,0,0,0l-.05-.09s0,0,0,0l-.1-.17s0,0,0,0l0-.08s0,0,0,0l-.15-.27s0,0,0,0l-.05-.08s0,0,0,0l-.09-.17s0,0,0,0l0-.09s0,0,0,0l-.16-.28s0,0,0,0l0-.08s0,0,0,0l-.16-.27s0,0,0,0l-.05-.08s0,0,0,0l-.09-.17s0,0,0,0l0-.09s0,0,0,0l-.1-.17s0,0,0,0l-.05-.09s0,0,0,0l-.11-.2s0,0,0,0l-.15-.28s0,0,0,0l-.05-.08s0,0,0,0l-.16-.27s0,0,0,0l0-.09s0,0,0,0l-.06-.11,0,0v0s0,0,0,0l-.05-.09s0,0,0,0l0-.09s0,0,0,0h0l0,0s0,0,0,0l-.07-.12s0,0,0,0l0,0s0,0,0,0l-.06-.08s0,0,0,0l-.19-.19s0,0,0,0l-.07-.06s0,0,0,0l0,0s0,0,0,0l-.07,0s0,0,0,0l-.17-.09,0,0h0s0,0,0,0h0l0,0a3.07,3.07,0,0,0-.6-.16h-4.85c-.32,0-.9,0-1.2,0-.12,0-.25,0-.36,0l0,0h-.08l0,0-.11,0,0,0-.15.06s0,0,0,0h0s0,0,0,0l-.09,0s0,0,0,0h0s0,0,0,0,0,0-.07,0,0,0,0,0l0,0s0,0,0,0l-.14.12c-.05,0-.1.11-.14.14s0,0,0,0,0,0,0,0l0,0s0,0,0,0l-.09.13-.08.13s0,0,0,0l-.05.08s0,0,0,0l0,.05s0,0,0,0l0,.08s0,0,0,0l-.05.08s0,0,0,0l0,.09s0,0,0,0l0,.06s0,0,0,0l0,.09s0,0,0,0l-.05.08s0,0,0,0l-.15.28s0,0,0,0l-.05.08s0,0,0,0l-.1.16v0l-.05.08s0,0,0,0l0,.08s0,0,0,0l-.1.16v0l-.05.08s0,0,0,0l-.09.17,0,0,0,.09s0,0,0,0l-.05.09s0,0,0,0l0,.09s0,0,0,0l0,0s0,0,0,0l0,.08,0,0L420,113s0,0,0,0l0,.06s0,0,0,0h0s0,0,0,0l-.09.17,0,0-.05.09s0,0,0,0l0,.06s0,0,0,0h0s0,0,0,0l0,.06v.06l0,0a.24.24,0,0,1-.06.11s0,0,0,0h0s0,0,0,0l0,.06s0,0,0,0h0s0,0,0,0l0,.05s0,0,0,0v0l0,0v0l0,0,0,0s0,0,0,0h0s0,0,0,0l0,0s0,0,0,0l0,.09s0,0,0,0l-.05.09v0l0,.06s0,0,0,0h0s0,0,0,0l0,.06s0,0,0,0l0,.09s0,0,0,0l-.05.09s0,0,0,0l-.11.21,0,0a2.53,2.53,0,0,0-.12.33l0,0,0,.08,0,0v.12l0,.06c0,.13,0,.27,0,.41s0,.28,0,.38,0,0,0,0v0l0,0,0,.16,0,0v0l0,0,0,.08,0,0,0,0,0,.06s0,0,0,0l.05.08s0,0,0,0l.09.16s0,0,0,0l0,.08s0,0,0,0l.05.09s0,0,0,0l.09.17s0,0,0,0h0s0,0,0,0l0,.06s0,0,0,0l.05.09s0,0,0,0l.1.17s0,0,0,0l.11.19s0,0,0,0l0,0s0,0,0,0l0,.08s0,0,0,0l.05.08s0,0,0,0l.09.17s0,0,0,0l0,0v0s0,0,0,0l.05.09s0,0,0,0l.16.28s0,0,0,0l.05.09s0,0,0,0l.1.17s0,0,0,0l.05.08s0,0,0,0l.15.27s0,0,0,0l0,.08s0,0,0,0l.09.17s0,0,0,0l0,.09s0,0,0,0l.05.09s0,0,0,0l.09.17s0,0,0,0l.05.09s0,0,0,0l.09.18s0,0,0,0l.05.08s0,0,0,0l.16.28s0,0,0,0l0,.09s0,0,0,0l.05.09s0,0,0,0l0,.06s0,0,0,0h0s0,0,0,0l.08.14s0,0,0,0l0,.08h0v0h0a7.34,7.34,0,0,0,.41.73h0l0,0,.32.58,0,0Zm4-11-.11.47,0,0-.09.46,0,0v0l0,0v0l0,0V114l-.11.53,0,0,0,.25,0,0-.11.53s0,0,0,0h2.78c0,.08,0,0,0,0l-.09.15s0,0,0,0l-.05.07s0,0,0,0l-.07.12s0,0,0,0l-.05.07s0,0,0,0l-.07.12s0,0,0,0v0s0,0,0,0v0s0,0,0,0l0,0s0,0,0,0l-.05.07s0,0,0,0v0s0,0,0,0v0s0,0,0,0l0,0s0,0,0,0l0,.07s0,0,0,0v0s0,0,0,0l0,.08s0,0,0,0v0s0,0,0,0-.11.15-.16.24,0,0,0,0l-.06.1s0,0,0,0l0,0s0,0,0,0l-.11.18s0,0,0,0l-.06.1s0,0,0,0l-.11.18s0,0,0,0l-.06.11s0,0,0,0l-.19.31s0,0,0,0l-.06.11s0,0,0,0l-.11.18s0,0,0,0l-.06.1s0,0,0,0l-.11.18s0,0,0,0l-.11.18s0,0,0,0l-.06.1s0,0,0,0l-.1.18s0,0,0,0l-.06.11s0,0,0,0l-.06.1s0,0,0,0l-.06.1s0,0,0,0,0,0,0,0,0,0,0,0v0l0,0,.15-.74,0,0,.1-.46v0l0-.25,0,0,.09-.46s0,0,0,0v-.07l.14-.65c-.82,0-1.78,0-2.6,0-.06,0-.13,0-.12,0l0,0s0,0,0,0l.11-.19s0,0,0,0l0-.06s0,0,0,0l0-.05s0,0,0,0l0-.06s0,0,0,0l0,0s0,0,0,0l0,0s0,0,0,0l0,0s0,0,0,0l0-.06s0,0,0,0l0-.06s0,0,0,0l0-.06s0,0,0,0l.38-.63s0,0,0,0l0,0s0,0,0,0l.06-.11s0,0,0,0l.06-.11s0,0,0,0l.06-.11s0,0,0,0l0-.05s0,0,0,0l.06-.11s0,0,0,0l0-.06s0,0,0,0l.06-.11s0,0,0,0l.06-.1s0,0,0,0l0,0s0,0,0,0l.06-.11s0,0,0,0l0-.05s0,0,0,0v0s0,0,0,0l0,0s0,0,0,0l.14-.23s0,0,0,0l.11-.18s0,0,0,0l.05-.11s0,0,0,0l.06-.11s0,0,0,0l0-.05s0,0,0,0l.06-.11s0,0,0,0l0-.06s0,0,0,0l.06-.1s0,0,0,0l.06-.1s0,0,0,0l0,0v0s0,0,0,0l0,0c0,.07,0,0,0,.06v.1l0,0Z"/></g><g id="freepik--character-1--inject-25"><path class="cls-15" d="M234.07,219.56l7.63-3.93,11,.21s.36,1.45-1.89,2.18a29.2,29.2,0,0,1-6.26.82s1.61-.13-1.86,2.49a12.75,12.75,0,0,1-7.78,2.29Z"/><path class="cls-15" d="M251.74,216.42s5.21,1,6.35,1.72.88,1.55.58,1.82-4-.22-4.94-.37c-.59-.08-2.81-.06-2.81-.06s2.74.82,3,1.9-1.24,1.67-1.24,1.67.82,1.61.21,2.38a1.89,1.89,0,0,1-1.28.8s.86,1.13,0,1.89-3.88,0-3.88,0-1.82.57-2.59.19S234.79,227,234.79,227l-.53-6.47,14.83-3.63Z"/><path class="cls-16" d="M249.17,221.86c.13-.05.06-.58.08-1.21s.11-1.16,0-1.21-.46.46-.47,1.2S249.05,221.91,249.17,221.86Z"/><path class="cls-16" d="M252.71,223.1c0-.07-.3-.13-.72-.24a2.41,2.41,0,0,1-.73-.33,1,1,0,0,1-.43-.73.83.83,0,0,1,.34-.72,1.75,1.75,0,0,1,.67-.33c.45-.12.76-.17.73-.24s-.31-.14-.82-.11a1.89,1.89,0,0,0-.89.33,1.22,1.22,0,0,0-.54,1.1,1.45,1.45,0,0,0,.66,1,2,2,0,0,0,.88.3C252.41,223.23,252.71,223.17,252.71,223.1Z"/><path class="cls-16" d="M252.71,223.1a2.66,2.66,0,0,0-1.21-.25,3.29,3.29,0,0,0-1.36.17,3.42,3.42,0,0,0-.73.39,2,2,0,0,0-.57.72,1.56,1.56,0,0,0-.16,1,1.24,1.24,0,0,0,.55.72,3.37,3.37,0,0,0,1.3.49c.78.13,1.25,0,1.24-.06s-.47-.08-1.16-.27a3.82,3.82,0,0,1-1.12-.52.93.93,0,0,1-.35-.48,1.21,1.21,0,0,1,.13-.65,1.62,1.62,0,0,1,.43-.57,2.87,2.87,0,0,1,.62-.34,3.31,3.31,0,0,1,1.2-.26C252.2,223.16,252.71,223.18,252.71,223.1Z"/><path class="cls-16" d="M250,228.5c0-.06-.35-.09-.87-.38l-.42-.23a1.88,1.88,0,0,1-.44-.24c-.17-.16-.06-.39.36-.6a7.68,7.68,0,0,1,2.14-.65c.56-.08.93-.05.95-.12s-.35-.21-1-.22a5.4,5.4,0,0,0-2.36.57,2.61,2.61,0,0,0-.3.2.72.72,0,0,0-.29.33.68.68,0,0,0,.18.83,1.93,1.93,0,0,0,.56.27l.46.18C249.61,228.66,250,228.58,250,228.5Z"/><path class="cls-16" d="M248.94,222.76c0,.13.44.23.94.32s.94.16,1,0-.33-.4-.9-.51S248.93,222.62,248.94,222.76Z"/><path class="cls-16" d="M245.49,227.06a8.85,8.85,0,0,1,.41-3.74,5.74,5.74,0,0,1,.62-1.14l0-.08V222a3.38,3.38,0,0,1,.08-1.7c.14-.42.28-.64.24-.68s-.26.15-.49.57a2.93,2.93,0,0,0-.27,1.91l0-.19a4.88,4.88,0,0,0-.73,1.22,5.34,5.34,0,0,0-.35,2.82C245.2,226.68,245.44,227.08,245.49,227.06Z"/><path class="cls-16" d="M239.67,224.57c0,.06.4.12,1,0a5.31,5.31,0,0,0,3.8-3c.25-.58.28-1,.22-1a7.9,7.9,0,0,1-2.06,2.58A13.86,13.86,0,0,1,239.67,224.57Z"/><path class="cls-16" d="M237.27,223.56a1.82,1.82,0,0,0,.66-.09,11.13,11.13,0,0,0,1.71-.59,12.38,12.38,0,0,0,4.74-3.71l-.21.1h.64a14.59,14.59,0,0,0,6.31-1.31,3.27,3.27,0,0,0,1.45-1.35,1.06,1.06,0,0,0,.16-.73,5,5,0,0,1-.32.62,3.28,3.28,0,0,1-1.45,1.13,16.22,16.22,0,0,1-6.16,1.14h-.74l-.08.1a13.19,13.19,0,0,1-4.5,3.69C238.16,223.26,237.25,223.48,237.27,223.56Z"/><path class="cls-7" d="M166.16,374.86l-.58,14.61s14.66,5.49,14.8,8.21l-28.37-.1,0-22.81Z"/><path class="cls-17" d="M156.81,388.21a1.16,1.16,0,0,0-.8,1.32,1.1,1.1,0,0,0,1.29.81,1.21,1.21,0,0,0,.85-1.4,1.17,1.17,0,0,0-1.45-.72"/><path class="cls-4" d="M152,397.58l.09-2.3,27.18,1s1.25.55,1.11,1.45Z"/><path class="cls-4" d="M166,389.33c0,.13-.73.2-1.38.64s-1,1-1.17,1,.08-.85.91-1.37S166.07,389.2,166,389.33Z"/><path class="cls-4" d="M169,390.54c0,.14-.57.37-1,.95s-.61,1.21-.73,1.2-.22-.79.38-1.51S169,390.44,169,390.54Z"/><path class="cls-4" d="M170.69,394.16c-.12,0-.31-.66,0-1.45s1-1,1.07-.94-.35.52-.63,1.15S170.83,394.12,170.69,394.16Z"/><path class="cls-7" d="M194.09,374.58l-.58,14.62s14.67,5.49,14.82,8.19L180,397.3l0-22.81Z"/><path class="cls-17" d="M184.73,387.91a1.16,1.16,0,0,0-.8,1.32,1.11,1.11,0,0,0,1.3.81,1.22,1.22,0,0,0,.85-1.4,1.15,1.15,0,0,0-1.45-.69"/><path class="cls-4" d="M180,397.28,180,395l27.18.95s1.27.56,1.12,1.45Z"/><path class="cls-4" d="M194,389c0,.14-.73.19-1.38.64s-1,1-1.17,1,.08-.86.92-1.38S194,388.9,194,389Z"/><path class="cls-4" d="M196.94,390.27c0,.14-.56.37-1,1s-.61,1.2-.73,1.2-.21-.79.38-1.51S196.94,390.14,196.94,390.27Z"/><path class="cls-4" d="M198.62,393.84c-.12,0-.31-.67,0-1.45s1-1.06,1.07-.95-.34.53-.63,1.15S198.76,393.82,198.62,393.84Z"/><path class="cls-4" d="M173.58,285.24c4.35,1,5.08,54.75,5.08,54.75l.11,48.82,16.81.15s2.45-21.41,3.4-42.5c.61-13.62,1.45-25.31,1.45-25.31s1.67-17.63,1.8-32.36-1.45-35.46-1.45-35.46l-25,5.85Z"/><path class="cls-4" d="M150.19,264.71s-.85,15.38-1.16,19.23,1.82,103.94,1.82,103.94h16.43s6-57.6,6.3-66.74S177,286.25,177,286.25V264l-25.92.86"/><path class="cls-11" d="M177.89,271.32a11,11,0,0,1,.16,2.07c0,1.28,0,3.05-.15,5s-.39,3.72-.61,5a10.57,10.57,0,0,1-.46,2,14.24,14.24,0,0,1,.21-2.06c.16-1.27.36-3,.51-5s.21-3.71.24-5A15.86,15.86,0,0,1,177.89,271.32Z"/><path class="cls-11" d="M158.68,270.2a4.1,4.1,0,0,1-.64,1.35,10.21,10.21,0,0,1-5.73,4.25,4,4,0,0,1-1.46.22,12.53,12.53,0,0,0,7.86-5.8Z"/><path class="cls-11" d="M199.82,279.18a5.41,5.41,0,0,1-1.73-.37,11.55,11.55,0,0,1-6.41-5.39,4.88,4.88,0,0,1-.66-1.64c.06,0,.31.61.87,1.52a13.37,13.37,0,0,0,2.72,3.14,13.05,13.05,0,0,0,3.57,2.13C199.17,279,199.82,279.12,199.82,279.18Z"/><path class="cls-11" d="M173.51,270.83a.56.56,0,0,1,.25-.17,1.19,1.19,0,0,1,.83,0,1.33,1.33,0,1,1-1.23,2.35,1.39,1.39,0,0,1-.54-1.13,1.25,1.25,0,0,1,.28-.79c.13-.15.24-.18.24-.17a1.66,1.66,0,0,0-.26.95,1.15,1.15,0,0,0,.47.88,1.1,1.1,0,0,0,1.48-.45,1.07,1.07,0,0,0,.12-.66,1.18,1.18,0,0,0-.65-.73A1.76,1.76,0,0,0,173.51,270.83Z"/><path class="cls-11" d="M168.83,333.22a9.82,9.82,0,0,1-1.46,1.56,42.65,42.65,0,0,1-8.09,6.19,11.54,11.54,0,0,1-1.88,1,16.31,16.31,0,0,1,1.75-1.19c1.09-.72,2.57-1.71,4.15-2.9s2.9-2.37,3.91-3.24A16.49,16.49,0,0,1,168.83,333.22Z"/><path class="cls-11" d="M194.13,328a10.65,10.65,0,0,1-1.3,1.61c-.84,1-2.05,2.26-3.45,3.63s-2.74,2.53-3.73,3.34a11.2,11.2,0,0,1-1.66,1.24,12,12,0,0,1,1.49-1.45c1-.86,2.25-2.05,3.63-3.4s2.63-2.62,3.52-3.53A12.76,12.76,0,0,1,194.13,328Z"/><path class="cls-15" d="M149.59,270.59l.83,2.59a26.63,26.63,0,0,1,3.42,1.81,44.5,44.5,0,0,1,2.22,4.69s-.26,3.69-.54,3.86-1.08.48-1.29-.69-.34-3.15-.34-3.15l-1.95-1.78-.47,2.62,1.26,3.92s2.85.72,2.87,1.37a1,1,0,0,1-.83,1.17h-.14a13.14,13.14,0,0,1-2.17-.09s-.18,1.72-1.67,1.37l-1.49-.36s-.53,1.52-1.46,1.54a1.92,1.92,0,0,1-1.45-.79l-2.95-4.35a12.25,12.25,0,0,1-1.65-3.69L140,273.87Z"/><path class="cls-16" d="M147.47,281.89a22.57,22.57,0,0,0,1.72,3.53,2.77,2.77,0,0,0,1,1.26,2.47,2.47,0,0,0,1.29.14,5.61,5.61,0,0,1,.82,0c.18,0,.29.08.3.05s-.08-.1-.27-.17a3.12,3.12,0,0,0-.85-.12,2.23,2.23,0,0,1-1.14-.18c-.36-.19-.56-.67-.82-1.14A22,22,0,0,0,147.47,281.89Z"/><path class="cls-16" d="M145.86,284.12a4.88,4.88,0,0,0,1.29,2.52,3.63,3.63,0,0,0,1.62,1.25c.54.14.87,0,.85-.08a3.39,3.39,0,0,1-.77-.15,4.16,4.16,0,0,1-1.46-1.24A26,26,0,0,1,145.86,284.12Z"/><path class="cls-16" d="M149.77,280.16c0,.1.52.41,1.27.61s1.37.21,1.39.11-.57-.27-1.3-.48S149.81,280.06,149.77,280.16Z"/><path class="cls-7" d="M153.05,181.19s-7.25,3.3-10.32,13.26-10.88,47.84-8.82,60c0,0,4.68,18.75,5.43,19.4l10.57-3.72,5.76-68.53Z"/><path class="cls-7" d="M191.13,180.36l-18.32-3.24s-18.44,2.41-19.76,4.07-2.06,65-2.62,68.4c-.73,4.22,0,18,0,18l51.27,1.65.5-9.11-.86-74.83Z"/><path class="cls-4" d="M157.79,192.63a.54.54,0,0,0,.05.18,5.41,5.41,0,0,1,.12.57c0,.23.11.56.18.91s.1.8.16,1.27a32,32,0,0,1-.23,8.12,96.38,96.38,0,0,1-2.69,11.74,105.4,105.4,0,0,0-3.11,14.37c-.73,5.18-1.11,10.16-1.31,14.66s-.29,8.61-.34,12-.08,6.18-.11,8.12c0,.94,0,1.68,0,2.18v.57a.67.67,0,0,1,0,.2.67.67,0,0,1,0-.2V256.48c0-3.43.07-7.51.26-12s.57-9.51,1.3-14.7a102.81,102.81,0,0,1,3.14-14.41,95.39,95.39,0,0,0,2.75-11.69,33,33,0,0,0,.34-8.06c0-.48-.08-.9-.12-1.27s-.11-.66-.15-.92l-.09-.57A.69.69,0,0,1,157.79,192.63Z"/><path class="cls-4" d="M191.13,240.36a1.45,1.45,0,0,1-.17.26l-.56.73c-.48.62-1.21,1.45-2.18,2.5s-2.12,2.21-3.49,3.46a57.47,57.47,0,0,1-4.69,3.78,59.14,59.14,0,0,1-5.08,3.25,47.85,47.85,0,0,1-4.39,2.22c-1.28.56-2.32,1-3.06,1.26l-.85.3c-.19.06-.29.09-.3.07a2.44,2.44,0,0,1,.28-.14l.82-.36c.73-.29,1.76-.72,3-1.35s2.74-1.37,4.35-2.28a55.71,55.71,0,0,0,5-3.25,58.93,58.93,0,0,0,4.68-3.74c1.39-1.21,2.57-2.38,3.53-3.38s1.73-1.84,2.24-2.43l.6-.67Z"/><path class="cls-4" d="M191.64,216.11a1.28,1.28,0,0,1-.07.34l-.27.94c-.23.82-.62,2-1.15,3.42s-1.21,3.11-2.06,4.93-1.87,3.8-3.05,5.81a62.77,62.77,0,0,1-3.63,5.48c-1.21,1.63-2.32,3-3.32,4.19s-1.83,2.05-2.44,2.65l-.72.73a1.09,1.09,0,0,1-.26.22,1.71,1.71,0,0,1,.21-.26l.65-.73c.57-.63,1.38-1.56,2.35-2.73s2.07-2.59,3.25-4.21,2.38-3.48,3.56-5.47,2.18-4,3.06-5.76,1.57-3.48,2.12-4.89,1-2.57,1.25-3.38l.33-.92A1.24,1.24,0,0,1,191.64,216.11Z"/><g class="cls-18"><path d="M158.15,206.17c-6.64,18.52-8.41,38.45-7.51,58.08,2.47-2.38,3.29-6,3.26-9.44s-.77-6.81-.92-10.23C152.44,231.56,160.6,219,158.15,206.17Z"/></g><g class="cls-18"><path d="M190.62,219.22c.21-.59-1.45,9.52-3.77,13.32a27.55,27.55,0,0,1-9.37,9.31A78.45,78.45,0,0,0,190.62,219.22Z"/></g><path class="cls-7" d="M206.39,190.5c1.26,3.11,7,31.32,7,31.32l21-5.47s5.16,14.27,5.86,14-27.22,11.48-32.7,11.08-7.2-8.33-7.2-8.33L192,181.4S203.69,183.84,206.39,190.5Z"/><path class="cls-4" d="M202.2,201.3a1.67,1.67,0,0,0,0,.39,10,10,0,0,1-.05,1.14c0,1-.08,2.41-.11,4.17-.05,3.53-.1,8.4-.12,13.79s0,10.26,0,13.78c0,1.72,0,3.14,0,4.18v1.13a2.67,2.67,0,0,0,0,.4,1.33,1.33,0,0,0,.05-.4c0-.29,0-.67,0-1.13,0-1,0-2.45.08-4.18,0-3.57.07-8.42.11-13.78s0-10.2,0-13.79v-5.31A1.7,1.7,0,0,0,202.2,201.3Z"/><path class="cls-15" d="M172.61,181.06h0a4.52,4.52,0,0,1-.4-2.17l2-28.34c0-7.92,4.55-14.51,12.46-14.35l.72.06a14.15,14.15,0,0,1,13,14.14c0,6.87-.1,14.44-.45,18.1-.72,7.56-8.37,8.11-8.37,8.11l-.37,2.94s.39,5.15-5.61,6.66c-4.62,1.16-9.51-1.91-11.53-3.39A4.42,4.42,0,0,1,172.61,181.06Z"/><path class="cls-16" d="M191.58,176.57a18.43,18.43,0,0,1-9.67-3.72s1.88,5.64,9.49,5.58Z"/><path class="cls-4" d="M198.05,157a1.09,1.09,0,0,1-1.13,1,1,1,0,0,1-1-1v0a1.09,1.09,0,0,1,1.13-1,1,1,0,0,1,1,1Z"/><path class="cls-4" d="M198.42,153.94c-.14.13-.91-.55-2.07-.64s-2.07.43-2.18.27.1-.31.5-.56a3,3,0,0,1,1.76-.38,2.93,2.93,0,0,1,1.64.68C198.4,153.62,198.52,153.88,198.42,153.94Z"/><path class="cls-4" d="M187.36,156.4a1.08,1.08,0,0,1-1.13,1,1,1,0,0,1-1-1.05h0a1.1,1.1,0,0,1,1.13-1,1,1,0,0,1,1,1Z"/><path class="cls-4" d="M187,153.22c-.15.13-.92-.55-2.09-.64s-2.06.42-2.17.27.1-.31.49-.55a3,3,0,0,1,1.76-.39,2.9,2.9,0,0,1,1.64.68C186.91,152.89,187.05,153.16,187,153.22Z"/><path class="cls-4" d="M190.49,162.19a7.21,7.21,0,0,1,1.91-.19c.31,0,.59,0,.66-.24a1.56,1.56,0,0,0-.13-.9c-.22-.72-.45-1.51-.72-2.32-1-3.33-1.62-6-1.45-6.08a36,36,0,0,1,2,5.92l.66,2.35a1.77,1.77,0,0,1,.05,1.18.76.76,0,0,1-.53.39,2.09,2.09,0,0,1-.5,0A8.14,8.14,0,0,1,190.49,162.19Z"/><path class="cls-4" d="M187,162.74c.19,0,.09,1.27,1.09,2.25s2.37.95,2.36,1.13-.32.22-.88.19a3.16,3.16,0,0,1-2-.88,2.75,2.75,0,0,1-.84-1.87C186.74,163,186.91,162.74,187,162.74Z"/><path class="cls-4" d="M187.64,148.68c-.15.31-1.29.07-2.67.12s-2.51.33-2.67,0,.14-.43.61-.73A4.69,4.69,0,0,1,187,148C187.48,148.27,187.71,148.54,187.64,148.68Z"/><path class="cls-4" d="M198.27,150.54c-.22.25-1-.09-2-.19s-1.8,0-2-.26.08-.39.45-.62a2.91,2.91,0,0,1,3.17.37C198.29,150.13,198.37,150.4,198.27,150.54Z"/><path class="cls-15" d="M174.79,158a2.07,2.07,0,0,0-2-2.17h-.1c-1.45,0-3.06.69-3.21,3.63-.25,5.19,5,4.35,5,4.23S174.69,160.17,174.79,158Z"/><path class="cls-16" d="M173.51,161.67a1.43,1.43,0,0,1-.24.12.89.89,0,0,1-.68,0,2.23,2.23,0,0,1-.94-2,3,3,0,0,1,.32-1.28,1,1,0,0,1,.73-.66.45.45,0,0,1,.52.27c.06.15,0,.26.05.26s.12-.08.09-.3a.61.61,0,0,0-.23-.37.75.75,0,0,0-.5-.16,1.25,1.25,0,0,0-1,.72,3.12,3.12,0,0,0-.39,1.45,2.36,2.36,0,0,0,1.21,2.3.94.94,0,0,0,.83-.09C173.5,161.8,173.53,161.68,173.51,161.67Z"/><path class="cls-4" d="M200.35,150.15c0,1,1.52-2.45,1-3.37a2.73,2.73,0,1,0,1.65-5.21,2.63,2.63,0,0,0-.69-.13,2.46,2.46,0,0,0-.34-3,3.79,3.79,0,0,0-1.51-.66,3.74,3.74,0,0,0-.36-1.86,4.58,4.58,0,0,0-7.08-1.61,4.55,4.55,0,0,0-7.53,0,4.36,4.36,0,0,0-6,1.22,4.58,4.58,0,0,0-.37.69,3.4,3.4,0,0,0-4.05.47,12.83,12.83,0,0,1-1.19,1.37,10.33,10.33,0,0,1-1.92.86,3.7,3.7,0,0,0-1.39,5,5.25,5.25,0,0,0,.33.49,8.8,8.8,0,0,0-2,1.89,2.88,2.88,0,0,0-.45,2.63c.4,1,1.54,1.65,1.93,2.7.18.47.18,1,.35,1.49a2.91,2.91,0,0,0,1.76,1.69c.41,2.11,1.84,2.74,1.86,3.35.18,6.47,3,2.82,4.84-10.73.43-3.18-.68-4.86,1.92-6.72a12.88,12.88,0,0,1,.88,1.3,4.3,4.3,0,0,0,6,.75l.31-.28a3.7,3.7,0,0,0,5,1.49,3.6,3.6,0,0,0,.88-.67c.9.87,3,2.36,4.71.93A13.79,13.79,0,0,1,200.35,150.15Z"/></g><g id="freepik--Character--inject-38"><polygon class="cls-15" points="492.41 317.98 484.52 393.37 498.22 393.37 511.9 328.18 492.41 317.98"/><path class="cls-15" d="M517.77,280.8h23.9l-5.08,43.9,35.74,49.8L565,383.82l-39.69-41.26-8.27-8.88a9.36,9.36,0,0,1-2.49-7Z"/><path class="cls-16" d="M516.72,310.82a2.3,2.3,0,0,0-.18.5c-.1.33-.24.82-.4,1.46-.32,1.28-.75,3.14-1.13,5.47a43.15,43.15,0,0,0-.64,8.26,14.72,14.72,0,0,0,.94,4.86,16,16,0,0,0,3,4.33c5,5.2,9.49,9.86,12.77,13.23l3.92,4,1.08,1.06c.25.24.39.36.4.34a1.86,1.86,0,0,0-.33-.41l-1-1.13-3.79-4.08c-3.29-3.47-7.74-8.15-12.65-13.34a15.32,15.32,0,0,1-3-4.18,14.32,14.32,0,0,1-.93-4.67,45.82,45.82,0,0,1,.52-8.19c.34-2.32.71-4.19,1-5.47l.3-1.49A1.75,1.75,0,0,0,516.72,310.82Z"/><path class="cls-15" d="M470.28,221.83h0l-.42-.06a93.91,93.91,0,0,1-10.1-2c-4.09-1.26-4-1.64-3.77-2.09.58-1.23,7.26,1.94,6.2.42s-8.6-2.92-7.94-4.18c.86-1.63,7.8,1.82,8.41,2.07s1-.63.4-.83c-.8-.28-9.18-3.42-8.35-5,.46-.89,2,.13,2,.13s7.64,3.52,8,2.75-4-3-5.59-3.66-1.85-1.62-1-2.07c.56-.31,5.32,1.55,6.83,2.22s5.62,2.59,4.32,0a.19.19,0,0,0,0-.13c-1.35-2.53-1.56-4.93-1.14-5.67a1,1,0,0,1,1.77.26.91.91,0,0,1,.1.4.81.81,0,0,1,0,.22,15.18,15.18,0,0,0,1.1,2.75,8.18,8.18,0,0,0,1.56,2.13c.72.7,1.37,1.28,1.93,1.75l5.67,2.26-5.14,9.72-3.67-.71"/><path class="cls-19" d="M492.51,215.91l-19-6.26-4.35,13.85L495,232.62a9.46,9.46,0,0,0,11.7-4.91l4.38-16.86-13.3-10.06Z"/><path class="cls-7" d="M532.34,178.61s21.78-2.9,20,19.09c-.58,7.33-3.85,17.8-6.22,23.63a9,9,0,0,0-.21,6.17c2.08,6.51,7.31,16.12,8.2,21.5l-44.93,3.76.13-37.26-7.74-3.17L495,209.76c8.6-36.28,24.6-31.6,24.6-31.6l12.7.41"/><g class="cls-20"><path d="M545.48,223.15c-.43,3.33,1,6.28,2.46,9.67,0,0-6.33,14.82-12.25,15.48-5,.57-16.08,1.61-26.49,2.59l-.35-8.4,42.54-38.92C550.61,208.71,548.2,215.27,545.48,223.15Z"/></g><path class="cls-4" d="M488.91,318.71c10.72-22.22,19.59-46,20.26-70.67l-.28-41.7,17.29,2,7.19,40.23,21,.45c4.22,10,3.36,20.91.49,30.89-3.36,11.71-10.59,23-8.68,35.08.46,2.85,1.32,6.13-.51,8.35-1.22,1.49-3.27,2-5.15,2.34-14.91,3-30.62,5.95-45.08,1.22a5.59,5.59,0,0,1-2.67-1.61C490.14,322.11,488.05,320.41,488.91,318.71Z"/><path class="cls-11" d="M534,251.39a3.92,3.92,0,0,0,.35,2,7.68,7.68,0,0,0,7.81,5,4,4,0,0,0,2-.52c0-.08-.77.14-2,.15a8,8,0,0,1-7.45-4.76C534.16,252.14,534.06,251.37,534,251.39Z"/><path class="cls-4" d="M510.15,193.7a3.73,3.73,0,0,0,.16,1c.14.64.35,1.57.63,2.72v-.14c-.55.93-1.16,2.06-1.77,3.33a20.86,20.86,0,0,0-1.63,4.32,5.64,5.64,0,0,0-.11.92v.87a15.06,15.06,0,0,0,.13,1.67,27.66,27.66,0,0,0,.52,3,24.42,24.42,0,0,0,1.31,4.18v-.07a5.33,5.33,0,0,0,.12,1.38,6.38,6.38,0,0,0,.12-1.38h0a35.7,35.7,0,0,1-1.1-4.18c-.18-.91-.34-1.9-.45-3,0-.53-.09-1.08-.11-1.64v-.85a7.35,7.35,0,0,1,.1-.82,21.78,21.78,0,0,1,1.55-4.22c.59-1.27,1.16-2.4,1.67-3.35v-.14c-.33-1.13-.6-2.05-.8-2.68A3.4,3.4,0,0,0,510.15,193.7Z"/><path class="cls-4" d="M519.15,211a3.58,3.58,0,0,0,.65,1.2,7.12,7.12,0,0,0,5.8,2.65,2.51,2.51,0,0,0,1.31-.33,11.84,11.84,0,0,1-4.32-.82A12,12,0,0,1,519.15,211Z"/><path class="cls-4" d="M545.15,180.78s-12.8,9-19.34,27.54l-2.9-.37s4.9-18.45,20.12-28.12A7.92,7.92,0,0,1,545.15,180.78Z"/><path class="cls-4" d="M517.71,178.29s-8,13.68-8.27,28.62h2.74s3.19-23.14,9-28.91Z"/><path class="cls-11" d="M522.53,207.9A2.63,2.63,0,0,0,522,209a2.93,2.93,0,0,0-.08,1.41,2,2,0,0,0,1.09,1.42,1.64,1.64,0,0,0,1.77-.38,2.42,2.42,0,0,0,.67-1.26c.16-.77.11-1.24,0-1.25s-.16.46-.4,1.15a2.38,2.38,0,0,1-.65,1,1.17,1.17,0,0,1-1.23.27,1.61,1.61,0,0,1-.83-1.06,3.13,3.13,0,0,1,0-1.22C522.48,208.39,522.61,207.93,522.53,207.9Z"/><path class="cls-11" d="M524.08,209.06v.29a.2.2,0,0,1-.08.12h-.1c-.06,0-.08,0-.09-.07a.33.33,0,0,1,0-.14c.07-.1.17-.13.2-.19s-.11-.23-.39-.12a.52.52,0,0,0-.32.41.57.57,0,0,0,.34.59.58.58,0,0,0,.67-.13.51.51,0,0,0,.09-.52C524.33,209,524.09,209,524.08,209.06Z"/><path class="cls-11" d="M510.64,208.55c0,.07.16.15.43.12a1.49,1.49,0,0,0,1.25-1.49c0-.27-.13-.41-.19-.4a3.85,3.85,0,0,1-.56,1C511.16,208.21,510.65,208.41,510.64,208.55Z"/><path class="cls-11" d="M513.91,217a15.19,15.19,0,0,0,3.83.86,15,15,0,0,0,3.9.34,29.12,29.12,0,0,0-7.73-1.2Z"/><path class="cls-11" d="M519.29,262.74a26.19,26.19,0,0,1-1.22,3.19c-.79,1.94-1.88,4.63-3,7.62s-2.17,5.71-2.9,7.69a26.14,26.14,0,0,1-1.26,3.17,3.47,3.47,0,0,1,.21-.9c.15-.57.4-1.38.73-2.38.65-2,1.61-4.76,2.78-7.75s2.31-5.67,3.18-7.59c.44-1,.81-1.73,1.07-2.25A3.56,3.56,0,0,1,519.29,262.74Z"/><path class="cls-19" d="M564.43,384.71l-.91-.8,8.39-10.33,3.79,3.31-.51.65c-2.26,2.87-11.7,14.44-13.87,15.78C558.91,394.81,564.43,384.71,564.43,384.71Z"/><g class="cls-21"><path class="cls-1" d="M572.45,380.42a4.55,4.55,0,0,1-1-3.13,4.48,4.48,0,0,1,1.32-3l2.78,2.45Z"/></g><g class="cls-21"><path class="cls-1" d="M561.91,389.78s-1.76,3.7-1,3.76,10.8-11.27,14.77-16.65l-.24-.18L563.91,390S562.41,389.22,561.91,389.78Z"/></g><path class="cls-4" d="M575.59,376.55a.8.8,0,0,1-.13.19l-.4.51-1.51,1.88c-1.29,1.57-3.1,3.71-5.15,6s-3.95,4.4-5.34,5.87l-1.67,1.74-.46.47a.75.75,0,0,1-.16.15s0-.06.14-.17l.44-.49,1.63-1.77c1.37-1.5,3.26-3.58,5.3-5.9s3.87-4.46,5.18-6l1.55-1.84.42-.49Z"/><path class="cls-4" d="M564.08,390.16a3.44,3.44,0,0,0-2.39-.41A2.12,2.12,0,0,1,564.08,390.16Z"/><path class="cls-4" d="M565.18,385.92c0,.05-.3,0-.66,0a1.57,1.57,0,0,1-.63-.18,1.47,1.47,0,0,1,.66,0A1.53,1.53,0,0,1,565.18,385.92Z"/><path class="cls-4" d="M565.46,384.75a2.38,2.38,0,0,1-.54.14,2.2,2.2,0,0,1-.56,0,2.38,2.38,0,0,1,.54-.14C565.2,384.71,565.46,384.7,565.46,384.75Z"/><path class="cls-4" d="M565,383.41a3,3,0,0,1-.39.58c-.25.29-.48.5-.51.47s.14-.29.39-.58S564.91,383.38,565,383.41Z"/><path class="cls-4" d="M564.47,382.66a1.32,1.32,0,0,1-.35.72,1.4,1.4,0,0,1-.6.53l.48-.63C564.26,382.93,564.42,382.64,564.47,382.66Z"/><path class="cls-4" d="M564,385.5a2.85,2.85,0,0,1-.57.63,4.52,4.52,0,0,1-.75.55,3.33,3.33,0,0,1-.5.25.5.5,0,0,1-.34,0,.34.34,0,0,1-.17-.32,1.58,1.58,0,0,1,1.62-1.15,1.47,1.47,0,0,1,.61.17c.13.07.19.13.18.14a2,2,0,0,0-.8-.19,1.45,1.45,0,0,0-.83.23,1.38,1.38,0,0,0-.62.8c0,.17.14.24.31.18a2,2,0,0,0,.47-.22,5.5,5.5,0,0,0,.75-.51C563.78,385.72,564,385.5,564,385.5Z"/><path class="cls-4" d="M563.91,385.69a.75.75,0,0,1-.51-.32,1.63,1.63,0,0,1-.31-.58.89.89,0,0,1,.14-.82.34.34,0,0,1,.47.06.84.84,0,0,1,.19.36,2.34,2.34,0,0,1,.12.64,1.22,1.22,0,0,1-.06.6v-.58a3.2,3.2,0,0,0-.15-.61c-.06-.2-.24-.48-.41-.34a.71.71,0,0,0-.1.66,1.56,1.56,0,0,0,.25.54A1.45,1.45,0,0,0,563.91,385.69Z"/><path class="cls-4" d="M572.7,374.36a4.82,4.82,0,0,0-.62.76,4.17,4.17,0,0,0-.75,2.18,4.26,4.26,0,0,0,.53,2.24c.29.53.56.79.54.81s-.08-.05-.2-.17a3.95,3.95,0,0,1-1-2.89,4.06,4.06,0,0,1,.82-2.24,3.08,3.08,0,0,1,.49-.53C572.61,374.4,572.69,374.35,572.7,374.36Z"/><path class="cls-4" d="M570.39,380.82a7.37,7.37,0,0,1-1.15,1.57,6.85,6.85,0,0,1-1.4,1.34s.58-.64,1.28-1.45S570.35,380.8,570.39,380.82Z"/><path class="cls-4" d="M572.09,378.87s.09.17.18.37.19.35.16.38-.2-.09-.31-.32S572.05,378.87,572.09,378.87Z"/><path class="cls-4" d="M571.82,377.33s.09.15.11.35,0,.35-.06.35-.09-.15-.1-.34S571.78,377.33,571.82,377.33Z"/><path class="cls-4" d="M572.33,375.91s-.09.17-.17.36-.09.37-.14.37-.1-.19,0-.43S572.31,375.88,572.33,375.91Z"/><path class="cls-4" d="M572.79,375v.23c0,.11-.11.19-.15.17s0-.11,0-.22S572.75,375,572.79,375Z"/><path class="cls-19" d="M484.91,393.71v-1.22l13.31-.06-.16,5h-.82c-3.66.07-18.59.11-21-.72C473.64,395.84,484.91,393.71,484.91,393.71Z"/><g class="cls-21"><path class="cls-1" d="M493.36,397.18a4.65,4.65,0,0,1,1.79-2.76,4.47,4.47,0,0,1,3.12-.85l-.13,3.7Z"/></g><g class="cls-21"><path class="cls-1" d="M479.42,395s-4,1-3.51,1.66,15.56,1.19,22.24.85v-.3l-17.61-.47S480.19,395,479.42,395Z"/></g><path class="cls-4" d="M498.34,397.16h-3.28c-2,0-4.84,0-7.94-.14s-5.9-.27-7.93-.41l-2.4-.18-.65-.06h.65l2.41.13c2,.11,4.83.25,7.92.36s5.91.16,7.94.19h3.06A.91.91,0,0,1,498.34,397.16Z"/><path class="cls-4" d="M480.52,396.89a3.89,3.89,0,0,0-1.19-2.16,2.15,2.15,0,0,1,1.19,2.11Z"/><path class="cls-4" d="M484.49,395.05a3.11,3.11,0,0,1-.4-.52,1.47,1.47,0,0,1-.26-.6,2.6,2.6,0,0,1,.4.52C484.41,394.76,484.53,395,484.49,395.05Z"/><path class="cls-4" d="M485.58,394.5a2.22,2.22,0,0,1-.45-.33c-.22-.21-.38-.41-.35-.44s.24.11.46.32A1.21,1.21,0,0,1,485.58,394.5Z"/><path class="cls-4" d="M486.3,393.3c0,.05-.31.07-.69.06a1.63,1.63,0,0,1-.69-.09,3.53,3.53,0,0,1,.7-.07A1.59,1.59,0,0,1,486.3,393.3Z"/><path class="cls-4" d="M486.57,392.43a1.42,1.42,0,0,1-.78.2,1.28,1.28,0,0,1-.79-.14,5.08,5.08,0,0,1,.78,0A5.25,5.25,0,0,1,486.57,392.43Z"/><path class="cls-4" d="M484.09,393.88a2.43,2.43,0,0,1-.85,0,4.57,4.57,0,0,1-.9-.23,2.94,2.94,0,0,1-.51-.23.45.45,0,0,1-.2-.28.33.33,0,0,1,.14-.33,1.57,1.57,0,0,1,2.07.8,1.18,1.18,0,0,1,.1.3v.23a2.67,2.67,0,0,0-.36-.74,1.52,1.52,0,0,0-.71-.49,1.33,1.33,0,0,0-1,0c-.13.09-.09.25.06.35a2.86,2.86,0,0,0,.47.22,6.68,6.68,0,0,0,.87.26C483.76,393.85,484.09,393.86,484.09,393.88Z"/><path class="cls-4" d="M483.86,393.92a.81.81,0,0,1-.07-.59,1.4,1.4,0,0,1,.25-.62.86.86,0,0,1,.72-.4.33.33,0,0,1,.25.39h0a.87.87,0,0,1-.16.37,1.83,1.83,0,0,1-.42.5,1.37,1.37,0,0,1-.49.33s.17-.15.41-.41a2.64,2.64,0,0,0,.38-.5c.12-.17.21-.49,0-.54s-.44.18-.57.34a1.55,1.55,0,0,0-.26.55A3.64,3.64,0,0,0,483.86,393.92Z"/><path class="cls-4" d="M498.2,393.5h-1a4.32,4.32,0,0,0-2.16.81,4.27,4.27,0,0,0-1.39,1.83c-.23.56-.26.94-.29.94a1.22,1.22,0,0,1,0-.27,3.5,3.5,0,0,1,.17-.71,4,4,0,0,1,1.41-1.92,4.09,4.09,0,0,1,2.25-.79,4.33,4.33,0,0,1,.72,0A.79.79,0,0,1,498.2,393.5Z"/><path class="cls-4" d="M491.74,395.85a7.88,7.88,0,0,1-1.94.11,7.77,7.77,0,0,1-1.92-.24,12,12,0,0,1,1.93.08C490.88,395.88,491.74,395.8,491.74,395.85Z"/><path class="cls-4" d="M494.33,395.92l-.17.38c-.09.2-.15.36-.2.36s-.06-.21.06-.44S494.3,395.89,494.33,395.92Z"/><path class="cls-4" d="M495.35,394.74a.84.84,0,0,1-.2.3c-.14.13-.28.22-.31.18s.06-.16.2-.3S495.32,394.71,495.35,394.74Z"/><path class="cls-4" d="M496.77,394.23a1,1,0,0,0-.39.1c-.2.1-.34.16-.37.13s.08-.21.33-.28S496.78,394.19,496.77,394.23Z"/><path class="cls-4" d="M497.77,394a.37.37,0,0,1-.17.14.4.4,0,0,1-.23,0,.31.31,0,0,1,.17-.15C497.65,394,497.76,394,497.77,394Z"/><path class="cls-4" d="M515.53,141.5l-2.62,17.68-4-.76a2.67,2.67,0,0,1-1.83-.87c-.58-.85,0-2,.72-2.76s1.66-1.37,1.93-2.37-.26-2.11-.26-3.17a5.56,5.56,0,0,1,1.13-3c.61-.9,1.35-1.46,1.35-4.34"/><path class="cls-15" d="M519.2,178.69c.22-4.42.37-9.07.37-9.07s-5.65-1.24-6.44-8.72c-.76-7.14,1.25-23.43,1.25-23.43h0a21.34,21.34,0,0,1,23.45,6.67h0L535.49,180a7.71,7.71,0,0,1-8.42,6.93H527A8.15,8.15,0,0,1,519.2,178.69Z"/><path class="cls-4" d="M514.58,150.35a1,1,0,0,0,.87,1,.91.91,0,0,0,1-.81,1,1,0,0,0-.87-1A.91.91,0,0,0,514.58,150.35Z"/><path class="cls-4" d="M514.34,149.2c.11.13.86-.36,1.89-.31s1.74.61,1.86.49-.05-.28-.36-.54a2.61,2.61,0,0,0-1.49-.54,2.53,2.53,0,0,0-1.51.4C514.4,148.92,514.29,149.14,514.34,149.2Z"/><path class="cls-4" d="M525.36,151.07a1,1,0,0,0,.87,1,.91.91,0,0,0,1-.81,1,1,0,0,0-.87-1A.91.91,0,0,0,525.36,151.07Z"/><path class="cls-4" d="M525,150.13c.11.13.86-.37,1.89-.31s1.74.6,1.86.48,0-.28-.36-.53a2.61,2.61,0,0,0-3-.15C525.07,149.85,524.91,150.07,525,150.13Z"/><path class="cls-4" d="M520.91,157.5a6.19,6.19,0,0,0-1.65-.38c-.26,0-.5-.11-.54-.29a1.33,1.33,0,0,1,.22-.77l.87-2a34.6,34.6,0,0,0,2-5.12,34.81,34.81,0,0,0-2.41,4.95c-.3.68-.58,1.34-.85,2a1.57,1.57,0,0,0-.19,1,.69.69,0,0,0,.41.41,1.63,1.63,0,0,0,.44.08A6.92,6.92,0,0,0,520.91,157.5Z"/><path class="cls-16" d="M519.57,169.62a18.82,18.82,0,0,0,10.07-2.12s-2.67,5-10.07,3.9Z"/><path class="cls-16" d="M524.05,159.5a2.92,2.92,0,0,0-1.11-.72,1,1,0,0,0-1.15.42c-.07.16-.13.36-.29.38s-.21-.07-.33-.09-.32.14-.35.31a.9.9,0,0,0,.12.51,5,5,0,0,0,.5.84,2.1,2.1,0,0,0,.92.8,1.61,1.61,0,0,0,1.06,0,1.81,1.81,0,0,0,1.06-.75,1.36,1.36,0,0,0,.1-1.27,1.11,1.11,0,0,0-1-.67"/><path class="cls-4" d="M523.91,158.4c-.17,0-.23,1.09-1.22,1.83s-2.17.56-2.19.71.26.23.76.27a2.82,2.82,0,0,0,1.82-.53,2.45,2.45,0,0,0,1-1.54A1.8,1.8,0,0,0,523.91,158.4Z"/><path class="cls-15" d="M534.68,152.18a4.5,4.5,0,0,1,2.38.28,3.09,3.09,0,0,1,1.67,1.68,3.24,3.24,0,0,1-.1,2.37,5.64,5.64,0,0,1-1.46,1.93,3.64,3.64,0,0,1-1.49.88A1.77,1.77,0,0,1,534,159"/><path class="cls-16" d="M534.91,157c-.09,0,.23.52,1,.36a1.53,1.53,0,0,0,.94-.73,3.57,3.57,0,0,0,.47-1.3,2.08,2.08,0,0,0-.27-1.42,1.39,1.39,0,0,0-1-.67c-.74,0-1,.45-.92.47a1.24,1.24,0,0,1,1.59,1.57c-.13.82-.48,1.55-.93,1.71S534.91,157,534.91,157Z"/><path class="cls-4" d="M516.23,135.55a5.4,5.4,0,0,0,2.09,6.13c2,1.27,4.49,1.1,6.81,1.4s5,1.55,5.22,3.87c.16,1.41-.62,2.91,0,4.21.67,1.52,2.8,1.88,3.62,3.32,1.31,2.32-1.7,5.08-1.13,7.68l15.33-2.78a4.86,4.86,0,0,0-2-3.62A9.34,9.34,0,0,1,549.7,159l4.54-1.54a11.52,11.52,0,0,0-7.14-6.54c-2.45-.79,1-5.16-.17-7.44-1.35-2.58-6.11-1.33-7.46-3.91-.49-.94-.32-2.08-.59-3.11-.61-2.34-3.35-3.47-5.77-3.51s-4.84.66-7.25.42c-1.32-.13-2.59-.55-3.9-.76a6,6,0,0,0-3.88.44,3,3,0,0,0-1.5,3.35"/><path class="cls-4" d="M518.1,140.5c-1,2.58-2.49,6.05-5.14,6.82-1-1.18-1.15-5.07-.94-6.89a8.77,8.77,0,0,1,2.13-5,5.46,5.46,0,0,1,5-1.71"/><path class="cls-11" d="M545.1,159.67a1.07,1.07,0,0,0,.19-.42,3,3,0,0,0,0-1.34,5.74,5.74,0,0,0-.77-2c-.42-.71-1-1.44-1.47-2.32a5.52,5.52,0,0,1-.53-3.15,9.29,9.29,0,0,0-.22-3.89,2.91,2.91,0,0,0-1.49-1.63,8.41,8.41,0,0,0-2.15-.56,3.64,3.64,0,0,1-1.91-.79,4.22,4.22,0,0,1-1-1.89,17.56,17.56,0,0,0-.72-2.23,6.78,6.78,0,0,0-1.3-1.92,6.14,6.14,0,0,0-3.88-1.9,11.74,11.74,0,0,0-3.86.54,14.77,14.77,0,0,1-3.24.57,4.38,4.38,0,0,1-2.54-.65,3.84,3.84,0,0,1-1.32-1.48,3.78,3.78,0,0,1-.33-1.69,1.17,1.17,0,0,0-.09.45,2.86,2.86,0,0,0,.23,1.32,4,4,0,0,0,1.35,1.65,4.69,4.69,0,0,0,2.7.76,13.51,13.51,0,0,0,3.34-.51,11.43,11.43,0,0,1,3.72-.48,5.79,5.79,0,0,1,3.56,1.77,6.68,6.68,0,0,1,1.19,1.78,16.58,16.58,0,0,1,.69,2.17,4.57,4.57,0,0,0,1.16,2.12,4.14,4.14,0,0,0,2.17.92,8,8,0,0,1,2,.5,2.35,2.35,0,0,1,1.33,1.38,8.89,8.89,0,0,1,.24,3.7,8.17,8.17,0,0,0,.08,1.78,5,5,0,0,0,.56,1.56c.51.92,1.11,1.63,1.54,2.3a5.84,5.84,0,0,1,.82,1.86A3.7,3.7,0,0,1,545.1,159.67Z"/><path class="cls-11" d="M516,135.88a2.64,2.64,0,0,0,.12.4,6,6,0,0,0,.53,1.08,8.07,8.07,0,0,0,3.24,3,7.91,7.91,0,0,0,3,.83,21.4,21.4,0,0,0,3.49-.11,11.34,11.34,0,0,1,3.72.16,4.37,4.37,0,0,1,3,2.22c.53,1.21.37,2.63.65,4a3.38,3.38,0,0,0,1,1.84,4.82,4.82,0,0,0,1.74.9,5.19,5.19,0,0,1,1.55.71,2.91,2.91,0,0,1,.92,1.24,8.6,8.6,0,0,1,.44,2.89,7.15,7.15,0,0,0,.93,4.27,2.5,2.5,0,0,0,.91.8,1.12,1.12,0,0,0,.4.14,3.58,3.58,0,0,1-1.14-1.05,7.34,7.34,0,0,1-.73-4.17,8.71,8.71,0,0,0-.41-3,3.39,3.39,0,0,0-1-1.45,6.12,6.12,0,0,0-1.67-.8,4.37,4.37,0,0,1-1.56-.8,3,3,0,0,1-.8-1.58c-.26-1.24-.07-2.69-.67-4.1a4.86,4.86,0,0,0-3.37-2.49,11.55,11.55,0,0,0-3.89-.15,23,23,0,0,1-3.42.16,7.55,7.55,0,0,1-2.83-.73,8.32,8.32,0,0,1-3.23-2.74C516.25,136.4,516.06,135.86,516,135.88Z"/><path class="cls-11" d="M510.23,146.82a14.63,14.63,0,0,1,.58-1.73,4,4,0,0,1,1.19-1.47,18.65,18.65,0,0,0,2-1.54,4.2,4.2,0,0,0,1.25-2.26c.15-.77.18-1.46.26-2a15.31,15.31,0,0,1,.41-1.78,2.93,2.93,0,0,0-.78,1.72c-.26,1.12-.21,2.82-1.5,4-.61.59-1.31,1.05-1.91,1.53A4,4,0,0,0,510.5,145,2.8,2.8,0,0,0,510.23,146.82Z"/><path class="cls-4" d="M525,147.83c.14.26.93.11,1.9.06s1.77,0,1.88-.29-.75-.82-1.94-.75S524.85,147.59,525,147.83Z"/><path class="cls-4" d="M514.67,147.21c0,.29.75.51,1.66.5s1.65-.26,1.65-.55-.75-.51-1.66-.49S514.67,146.92,514.67,147.21Z"/><rect class="cls-11" x="470.29" y="200.2" width="43.54" height="43.54" rx="5.4" ry="5.4" transform="translate(-45.13 168.92) rotate(-18.64)"/><path class="cls-22" d="M477.91,226.42a26,26,0,0,1-.6-3.51,14.48,14.48,0,0,1,2.5-9.14A14.28,14.28,0,0,1,492,207.55a13.28,13.28,0,0,1,4,.69,13.59,13.59,0,0,1,3.81,1.9,14.31,14.31,0,0,1,.71,22.83,14.38,14.38,0,0,1-20.21-2.26c-.28-.35-.54-.71-.79-1.09a27,27,0,0,1-1.65-3.15.86.86,0,0,0,.06.23l.23.65a6.38,6.38,0,0,0,.45,1,9.82,9.82,0,0,0,.74,1.35,14,14,0,0,0,2.73,3.21,14.69,14.69,0,0,0,11.57,3.46,14.79,14.79,0,0,0,7.14-3.06,15,15,0,0,0,4.9-7.08,14.64,14.64,0,0,0-5.57-16.52,14,14,0,0,0-4-2,13.81,13.81,0,0,0-4.18-.69,14.6,14.6,0,0,0-14.63,11.65,13.52,13.52,0,0,0-.24,4.21,9.79,9.79,0,0,0,.23,1.52,6.68,6.68,0,0,0,.27,1.09l.21.66A.74.74,0,0,0,477.91,226.42Z"/><path class="cls-22" d="M477.06,226.15a10,10,0,0,0,3.1-.78,9.77,9.77,0,0,0,2.93-1.26,10.08,10.08,0,0,0-3.1.77A9.8,9.8,0,0,0,477.06,226.15Z"/><path class="cls-22" d="M496.91,235.32a19.65,19.65,0,0,0-2-6,10.08,10.08,0,0,0,.77,3.1A10.3,10.3,0,0,0,496.91,235.32Z"/><path class="cls-22" d="M489.64,213.84a10.08,10.08,0,0,0-.77-3.1,9.55,9.55,0,0,0-1.27-2.93,10.08,10.08,0,0,0,.77,3.1A9.8,9.8,0,0,0,489.64,213.84Z"/><path class="cls-22" d="M499.17,218.69a10.08,10.08,0,0,0,3.1-.77,10,10,0,0,0,2.94-1.27,10.14,10.14,0,0,0-3.11.77A9.8,9.8,0,0,0,499.17,218.69Z"/><path class="cls-22" d="M482.8,216.71a55.45,55.45,0,0,0,9.73,4.8,27.68,27.68,0,0,0-4.73-2.63A28.42,28.42,0,0,0,482.8,216.71Z"/><path class="cls-22" d="M486.31,223.5a10.58,10.58,0,0,0,3.13-.78,10,10,0,0,0,3-1.28,10.58,10.58,0,0,0-3.13.78A10.07,10.07,0,0,0,486.31,223.5Z"/><path class="cls-15" d="M492.06,244l-3.33,1.82c-3.17,1.4-4.88,2.29-6.17,2-1.73-.45-.77-2.37-.77-2.37s-2.6.48-3.14-1a1.54,1.54,0,0,1,.61-1.67s-2.35.33-3.17-.25c-1.14-.8-.11-2.15-.11-2.15-3.52-.14-4.18-1.87-3.67-2.37s3.09-.71,3.09-.71c2-.47,7.52-1.68,4.31-3.3s-5-4.06-5.09-5.07a1.12,1.12,0,0,1,1.23-1,1.14,1.14,0,0,1,.77.43,12.79,12.79,0,0,0,2.86,2.21,8.56,8.56,0,0,0,2.69,1.11c1.11.24,2.06.4,2.87.52l4.54,1.19Z"/><path class="cls-7" d="M550.68,199.71c-1.6,6.63-7,18.56-12.23,28.34s-13.3,12.07-13.3,12.07l-36.32,7.38-2.78-16.05,34.13-9,17-33.12"/><path class="cls-4" d="M549.46,184.73a3.19,3.19,0,0,0-.66-.28,8.58,8.58,0,0,0-2-.48,8.7,8.7,0,0,0-3.25.27,11.1,11.1,0,0,0-3.82,2,25.29,25.29,0,0,0-6.74,8.87c-1.78,3.81-3.82,7.93-5.9,12.29L520,222.31l.15-.13-12.92,3.54-3.62,1-1,.29a1,1,0,0,0-.32.12,1.27,1.27,0,0,0,.34,0l1-.23,3.66-.9,13-3.35h.1v-.1c2.11-4.38,4.57-9.47,7.19-14.88,2.07-4.36,4.11-8.51,5.85-12.3a25.46,25.46,0,0,1,6.52-8.82,10.91,10.91,0,0,1,3.68-2,8.61,8.61,0,0,1,3.15-.35A18,18,0,0,1,549.46,184.73Z"/></g><polygon class="cls-19" points="291.22 204.97 293.16 208.89 297.49 209.52 294.35 212.57 295.09 216.87 291.22 214.84 287.36 216.87 288.1 212.57 284.97 209.52 289.3 208.89 291.22 204.97"/><polygon class="cls-19" points="490.91 126.46 492.4 129.49 495.75 129.98 493.33 132.33 493.9 135.66 490.91 134.09 487.92 135.66 488.49 132.33 486.07 129.98 489.42 129.49 490.91 126.46"/><polygon class="cls-19" points="413.21 238.8 414.5 240.56 416.68 240.5 415.42 242.27 416.15 244.33 414.07 243.67 412.35 245 412.33 242.81 410.53 241.59 412.6 240.9 413.21 238.8"/><path class="cls-19" d="M289.74,179a2.05,2.05,0,1,1,2-2.06v0A2,2,0,0,1,289.74,179Zm0-3a.93.93,0,0,0,0,1.86.92.92,0,0,0,.94-.92h0a.93.93,0,0,0-.89-1h0Z"/><path class="cls-19" d="M405.34,207.23a2.05,2.05,0,1,1,2-2.06v0A2,2,0,0,1,405.34,207.23Zm0-3a.94.94,0,0,0-.94.92.93.93,0,0,0,1.86,0h0A.93.93,0,0,0,405.34,204.26Z"/><path class="cls-19" d="M378.66,164.08a2.05,2.05,0,1,1,2-2.05h0a2,2,0,0,1-2,2Zm0-3a.93.93,0,0,0,0,1.86.93.93,0,0,0,.93-.93h0a.94.94,0,0,0-.9-1h0Z"/><circle class="cls-19" cx="278.62" cy="243.39" r="1.49"/><path class="cls-19" d="M348.57,264.58a1.49,1.49,0,1,1-1.49-1.49h0a1.48,1.48,0,0,1,1.49,1.47Z"/><circle class="cls-19" cx="332.69" cy="146.97" r="1.49"/><path class="cls-22" d="M353.92,381.07a3,3,0,1,0,1.64,3.84h0a3,3,0,0,0-1.62-3.84Z"/><polygon class="cls-19" points="568.06 164.41 570 168.33 574.33 168.96 571.19 172.01 571.93 176.31 568.06 174.28 564.2 176.31 564.94 172.01 561.81 168.96 566.13 168.33 568.06 164.41"/><polygon class="cls-19" points="449.18 19.98 450.67 23 454.02 23.49 451.6 25.85 452.17 29.17 449.18 27.61 446.19 29.17 446.76 25.85 444.34 23.49 447.69 23 449.18 19.98"/><polygon class="cls-19" points="535.18 86.64 536.67 89.67 540.02 90.16 537.6 92.51 538.17 95.84 535.18 94.27 532.18 95.84 532.76 92.51 530.34 90.16 533.69 89.67 535.18 86.64"/><polygon class="cls-19" points="146.21 114.32 147.5 116.08 149.68 116.01 148.41 117.78 149.15 119.85 147.07 119.19 145.34 120.52 145.33 118.33 143.53 117.11 145.6 116.42 146.21 114.32"/><path class="cls-19" d="M136.67,193.34a2.05,2.05,0,1,1,2-2.07v0A2.06,2.06,0,0,1,136.67,193.34Zm0-3a.92.92,0,0,0-.94.92.93.93,0,0,0,.91.94.94.94,0,0,0,1-.92h0a.94.94,0,0,0-.9-1h0Z"/><path class="cls-19" d="M226.94,114.38a2.05,2.05,0,1,1,2-2.06v0A2,2,0,0,1,226.94,114.38Zm0-3a.94.94,0,0,0-.94.92.93.93,0,0,0,1.86,0v0A.94.94,0,0,0,226.94,111.41Z"/><path class="cls-19" d="M227.33,189.34a2,2,0,1,1,2-2.05h0a2,2,0,0,1-2,2Zm0-3a.93.93,0,1,0,.93.93h0a.93.93,0,0,0-.89-1h0Z"/><circle class="cls-19" cx="121.33" cy="257.51" r="1.49"/><path class="cls-19" d="M213.49,257.51A1.49,1.49,0,1,1,212,256h0a1.48,1.48,0,0,1,1.49,1.47Z"/><circle class="cls-19" cx="152.8" cy="146.97" r="1.49"/><path class="cls-22" d="M174,381.07a3,3,0,1,0,1.64,3.84h0a3,3,0,0,0-1.62-3.84Z"/><rect class="cls-19" x="332.43" y="358.98" width="37.51" height="37.51" rx="5.12" ry="5.12"/><path class="cls-22" d="M356.24,371.17a7.79,7.79,0,0,1,1.51,1.47l1.93-.35,1.27,3-1.57,1.14a8.2,8.2,0,0,1,0,2.1l1.61,1.11-1.21,3-1.93-.32a8.2,8.2,0,0,1-1.48,1.52l.35,1.92-3,1.28-1.14-1.57a7.77,7.77,0,0,1-2.1,0l-1.12,1.61-3-1.2.3-1.94a8.13,8.13,0,0,1-1.51-1.48l-1.92.35-1.27-3,1.58-1.15a7.39,7.39,0,0,1,0-2.1l-1.62-1.11,1.21-3,1.94.31a8.09,8.09,0,0,1,1.47-1.51l-.35-1.93,3-1.27,1.15,1.57a7.7,7.7,0,0,1,2.09,0l1.12-1.61,3,1.2-.31,1.94Zm-3.35,3.22a3.48,3.48,0,1,0,1.93,4.53h0a3.49,3.49,0,0,0-1.91-4.53Z"/><rect class="cls-4" x="323.65" y="281.81" width="81.88" height="59.22"/><rect class="cls-11" x="296.76" y="281.81" width="71.38" height="59.22"/><polygon class="cls-11" points="296.76 281.81 284.09 269.14 316.2 269.14 328.12 281.81 296.76 281.81"/><polygon class="cls-11" points="368.13 281.81 382.7 269.14 422.69 269.14 405.52 281.81 368.13 281.81"/><path class="cls-4" d="M368.12,281.81c0,.16-16,.3-35.68.3s-35.68-.14-35.68-.3,16-.29,35.68-.29S368.12,281.65,368.12,281.81Z"/><g id="_--Marketing_Logos_HubSpot-Primary" data-name="--Marketing/Logos/HubSpot-Primary"><g id="Marketing_Logos_HubSpot-Primary" data-name="Marketing/Logos/HubSpot-Primary"><polygon id="Fill-1" class="cls-1" points="308.81 310.26 308.81 315.28 304.26 315.28 304.26 310.26 302.11 310.26 302.11 322.24 304.26 322.24 304.26 317.38 308.81 317.38 308.81 322.24 310.97 322.24 310.97 310.26 308.81 310.26"/><path id="Fill-2" class="cls-1" d="M317.87,318.37a1.79,1.79,0,1,1-3.57,0v-5.14h-2v5.14a3.83,3.83,0,1,0,7.66,0v-5.14h-2.05Z"/><path id="Fill-4" class="cls-1" d="M333,313.76a1.27,1.27,0,0,1,1.44-1.38,3.06,3.06,0,0,1,1.93,1l1.34-1.6a4.2,4.2,0,0,0-3.14-1.55c-2.23,0-3.83,1.32-3.83,3.5,0,4.06,4.89,2.77,4.89,5.05a1.42,1.42,0,0,1-1.44,1.32,2.53,2.53,0,0,1-2.16-1.24l-1.48,1.57a4.36,4.36,0,0,0,3.53,1.79,3.51,3.51,0,0,0,3.81-3.43c0-4.51-4.89-3.1-4.89-5.06"/><path id="Fill-6" class="cls-1" d="M363.28,320.33c-1.21,0-1.55-.53-1.55-1.35v-3.6h1.88v-1.82h-1.88v-2.41l-2.08,1v7.33a2.71,2.71,0,0,0,3,2.82,4,4,0,0,0,.81-.06l.51-1.89-.72,0"/><path id="Fill-8" class="cls-1" d="M325.65,320.16A2.36,2.36,0,1,1,328,317.8a2.35,2.35,0,0,1-2.33,2.36m0-6.87a3.11,3.11,0,0,0-2.4,1v-3.94h-2.05v7.31a4.33,4.33,0,0,0,4.14,4.61,4.52,4.52,0,0,0,4.57-4.48,4.38,4.38,0,0,0-4.26-4.48"/><g id="Group-12"><g class="cls-23"><path id="Fill-10" class="cls-1" d="M343.65,320a2.36,2.36,0,1,1,2.33-2.36,2.34,2.34,0,0,1-2.33,2.36m4.27-2.33a4.52,4.52,0,0,0-4.57-4.48,4.33,4.33,0,0,0-4.14,4.61v7.31h2.05v-3.94a3.11,3.11,0,0,0,2.4,1,4.38,4.38,0,0,0,4.26-4.48"/></g></g><g id="Group-15"><g class="cls-24"><path id="Fill-13" class="cls-7" d="M353.85,320a2.35,2.35,0,1,1,2.32-2.35,2.33,2.33,0,0,1-2.32,2.35m.7-6.87V311a1.62,1.62,0,0,0,.91-1.45v-.05a1.6,1.6,0,0,0-1.58-1.61h-.05a1.6,1.6,0,0,0-1.58,1.61v.05a1.6,1.6,0,0,0,.91,1.45v2.09a4.4,4.4,0,0,0-2.13,1l-5.66-4.46a1.76,1.76,0,0,0,.06-.46,1.8,1.8,0,1,0-.9,1.57l5.56,4.39a4.63,4.63,0,0,0,.07,5.16L348.47,322a1.54,1.54,0,0,0-.42-.07,1.49,1.49,0,0,0,0,3,1.47,1.47,0,0,0,1.46-1.49,1.42,1.42,0,0,0-.06-.42l1.67-1.7a4.42,4.42,0,0,0,2.73.94,4.58,4.58,0,0,0,.7-9.1"/></g></g></g></g><g id="Group-15-2" data-name="Group-15"><g class="cls-25"><path id="Fill-13-2" data-name="Fill-13" class="cls-7" d="M499.63,95.19a10.78,10.78,0,1,1,10.62-10.78,10.7,10.7,0,0,1-10.62,10.78m3.18-31.54V54.06A7.38,7.38,0,0,0,507,47.4v-.22a7.34,7.34,0,0,0-7.27-7.37h-.21a7.34,7.34,0,0,0-7.27,7.37v.22a7.4,7.4,0,0,0,4.19,6.66v9.59A20.48,20.48,0,0,0,486.65,68l-26-20.49a8.35,8.35,0,0,0,.29-2.08,8.2,8.2,0,1,0-8.21,8.31,8,8,0,0,0,4-1.11l25.53,20.15a21.25,21.25,0,0,0,.32,23.66l-7.76,7.88A6.56,6.56,0,0,0,473,104a6.84,6.84,0,1,0,6.74,6.84,6.7,6.7,0,0,0-.32-2l7.68-7.79a20.44,20.44,0,0,0,12.56,4.32,21,21,0,0,0,3.18-41.79"/></g></g></svg>