<svg width="28" height="20" viewBox="0 0 28 20" fill="none" xmlns="http://www.w3.org/2000/svg">
<rect x="0.25" y="0.25" width="27.5" height="19.5" rx="1.75" fill="white" stroke="#F5F5F5" stroke-width="0.5"/>
<mask id="mask0" mask-type="alpha" maskUnits="userSpaceOnUse" x="0" y="0" width="28" height="20">
<rect x="0.25" y="0.25" width="27.5" height="19.5" rx="1.75" fill="white" stroke="white" stroke-width="0.5"/>
</mask>
<g mask="url(#mask0)">
<rect x="20" width="8" height="20" fill="#FF3131"/>
<path fill-rule="evenodd" clip-rule="evenodd" d="M0 20H8V0H0V20Z" fill="#FF3131"/>
<path fill-rule="evenodd" clip-rule="evenodd" d="M16.1117 9.22169C15.8785 9.4549 15.4845 9.24401 15.5492 8.92062L15.9999 6.66683L14.6666 7.3335L13.9999 5.3335L13.3333 7.3335L11.9999 6.66683L12.4507 8.92062C12.5154 9.24401 12.1213 9.4549 11.8881 9.22169L11.569 8.90253C11.4388 8.77236 11.2277 8.77236 11.0975 8.90253L10.6666 9.3335L9.33325 8.66683L9.99992 10.0002L9.56895 10.4311C9.43878 10.5613 9.43878 10.7724 9.56895 10.9025L11.3333 12.6668H13.3333L13.6666 14.6668H14.3333L14.6666 12.6668H16.6666L18.4309 10.9025C18.5611 10.7724 18.5611 10.5613 18.4309 10.4311L17.9999 10.0002L18.6666 8.66683L17.3333 9.3335L16.9023 8.90253C16.7721 8.77236 16.5611 8.77236 16.4309 8.90253L16.1117 9.22169Z" fill="#FF3131"/>
</g>
</svg>
