<svg id="Layer_1" data-name="Layer 1" xmlns="http://www.w3.org/2000/svg" xmlns:xlink="http://www.w3.org/1999/xlink" viewBox="0 0 750 420"><defs><style>.cls-1{fill:#fff;}.cls-2,.cls-6{fill:#fff8f6;}.cls-3{fill:#fafafa;}.cls-4{fill:#cbd6e2;}.cls-5{fill:#ff7a59;}.cls-14,.cls-17,.cls-6{stroke:#33475b;}.cls-10,.cls-11,.cls-12,.cls-14,.cls-15,.cls-17,.cls-6{stroke-miterlimit:10;}.cls-6{stroke-width:0.6px;}.cls-7{fill:#eaf0f6;}.cls-8{fill:#33475b;}.cls-9{mask:url(#mask);}.cls-10,.cls-11,.cls-12,.cls-14,.cls-15,.cls-17{fill:none;}.cls-10,.cls-12{stroke:#fff;}.cls-10{stroke-width:0.68px;}.cls-11{stroke:#00bda5;}.cls-11,.cls-12,.cls-14{stroke-width:0.34px;}.cls-13{fill:#00bda5;}.cls-15{stroke:#ff7a59;stroke-width:1.02px;}.cls-16{fill:#7c98b6;}.cls-17{stroke-width:0.99px;}.cls-18{fill:#455a64;}.cls-19{opacity:0.3;}.cls-20{fill:#253342;}.cls-21{fill:#263238;}.cls-22{fill:#ffbe9d;}.cls-23{fill:#eb996e;}.cls-24{fill:#ff725e;}.cls-25{fill:#e0e0e0;}</style><mask id="mask" x="181.99" y="62.1" width="12.33" height="13.11" maskUnits="userSpaceOnUse"><g id="mask-4"><polygon id="path-3" class="cls-1" points="181.99 62.1 194.32 62.1 194.32 75.21 181.99 75.21 181.99 62.1"/></g></mask></defs><title>Artboard 1</title><rect class="cls-2" x="-0.59" y="0.06" width="749.99" height="420.02"/><polygon class="cls-3" points="576.1 41.7 177.74 41.7 177.74 268.55 393.84 268.55 408.26 268.35 420.72 268.55 576.1 268.55 576.1 41.7"/><rect class="cls-4" x="177.74" y="41.7" width="398.37" height="17.19"/><circle class="cls-5" cx="187.62" cy="50.6" r="2.23"/><circle class="cls-5" cx="195.93" cy="50.6" r="2.23"/><circle class="cls-5" cx="204.24" cy="50.6" r="2.23"/><polyline class="cls-6" points="575.45 267.27 575.45 183.29 575.45 77.22 575.45 58.86 178 58.86 178 77.22"/><rect class="cls-7" x="178.34" y="76.88" width="82.28" height="189.37"/><rect class="cls-7" x="492.83" y="76.88" width="82.28" height="189.37"/><polygon class="cls-8" points="575.45 77.22 177.66 77.22 178 58.86 575.45 58.86 575.45 77.22"/><g id="Group-15"><g class="cls-9"><path id="Fill-13" class="cls-5" d="M191,71.55a1.76,1.76,0,1,1,1.73-1.76A1.74,1.74,0,0,1,191,71.55Zm.51-5.14V64.85a1.19,1.19,0,0,0,.69-1.08v0a1.19,1.19,0,0,0-1.19-1.2h0a1.19,1.19,0,0,0-1.18,1.2v0a1.19,1.19,0,0,0,.68,1.08v1.56a3.48,3.48,0,0,0-1.6.71l-4.22-3.33a1.27,1.27,0,0,0,0-.34,1.34,1.34,0,1,0-1.34,1.35,1.36,1.36,0,0,0,.66-.18l4.15,3.28a3.47,3.47,0,0,0-.56,1.89,3.38,3.38,0,0,0,.62,2L186.92,73a.81.81,0,0,0-.31-.06,1.12,1.12,0,1,0,1.1,1.12,1.13,1.13,0,0,0-.06-.32l1.25-1.27a3.34,3.34,0,0,0,2,.7,3.42,3.42,0,0,0,.51-6.8Z"/></g></g><line class="cls-10" x1="204.18" y1="68.38" x2="222.2" y2="68.38"/><line class="cls-10" x1="276.6" y1="68.38" x2="297.34" y2="68.38"/><line class="cls-10" x1="360.91" y1="68.38" x2="386.07" y2="68.38"/><line class="cls-10" x1="333.38" y1="68.38" x2="349.01" y2="68.38"/><line class="cls-10" x1="397.97" y1="68.38" x2="413.61" y2="68.38"/><line class="cls-10" x1="309.92" y1="68.38" x2="320.8" y2="68.38"/><line class="cls-10" x1="234.78" y1="68.38" x2="264.02" y2="68.38"/><rect class="cls-1" x="181.4" y="83.34" width="73.78" height="13.6"/><line class="cls-11" x1="183.44" y1="106.46" x2="190.92" y2="106.46"/><line class="cls-11" x1="200.44" y1="106.46" x2="210.47" y2="106.46"/><line class="cls-11" x1="220.5" y1="106.46" x2="236.65" y2="106.46"/><line class="cls-12" x1="492.66" y1="69.23" x2="498.44" y2="69.23"/><line class="cls-12" x1="508.64" y1="69.23" x2="514.42" y2="69.23"/><line class="cls-12" x1="539.24" y1="69.23" x2="545.02" y2="69.23"/><line class="cls-12" x1="523.94" y1="69.23" x2="529.72" y2="69.23"/><circle class="cls-1" cx="566.44" cy="68.21" r="5.78"/><circle class="cls-13" cx="187.52" cy="122.43" r="2.04"/><circle class="cls-13" cx="187.52" cy="133.65" r="2.04"/><circle class="cls-13" cx="187.52" cy="144.87" r="2.04"/><circle class="cls-13" cx="187.52" cy="166.63" r="2.04"/><circle class="cls-13" cx="187.52" cy="177.85" r="2.04"/><line class="cls-14" x1="193.13" y1="122.6" x2="217.95" y2="122.6"/><line class="cls-14" x1="193.3" y1="133.82" x2="209.79" y2="133.82"/><line class="cls-14" x1="193.3" y1="166.8" x2="209.79" y2="166.8"/><line class="cls-14" x1="193.3" y1="178.02" x2="219.99" y2="178.02"/><line class="cls-14" x1="193.3" y1="144.7" x2="227.81" y2="144.7"/><rect class="cls-1" x="492.83" y="129.91" width="82.28" height="15.98"/><rect class="cls-1" x="492.83" y="97.62" width="82.28" height="15.98"/><rect class="cls-1" x="493.17" y="183.29" width="82.28" height="83.98"/><line class="cls-15" x1="498.27" y1="104.08" x2="564.23" y2="104.08"/><line class="cls-15" x1="498.27" y1="136.2" x2="564.23" y2="136.2"/><line class="cls-15" x1="498.27" y1="191.28" x2="564.23" y2="191.28"/><rect class="cls-8" x="284.42" y="100" width="183.25" height="152.31"/><rect class="cls-16" x="284.42" y="100" width="183.25" height="8.5"/><path class="cls-1" d="M293,102v5.07h-.94v-2.18h-2.62v2.18h-.94V102h.94v2.09h2.62V102Z"/><path class="cls-1" d="M295.38,102.84H293.7v-.79H298v.79h-1.68v4.28h-.94Z"/><path class="cls-1" d="M303.37,107.11v-3.36l-1.67,2.79h-.42l-1.67-2.74v3.32h-.9V102h.78l2,3.36,2-3.36h.77v5.07Z"/><path class="cls-1" d="M305.63,102h.94v4.28h2.65v.8h-3.59Z"/><g id="freepik--speech-bubble--inject-177"><path class="cls-5" d="M404.47,198.84a13.63,13.63,0,0,1,2-2.28l5.84-5.88c4.95-4.86,11.85-11.59,19.56-18.9h0v1c-7.75-7.17-14.7-13.77-19.7-18.54l-5.83-5.75a15.38,15.38,0,0,1-2.05-2.22,21.64,21.64,0,0,1,2.4,1.82l6.15,5.44c5.13,4.46,12.21,11.05,20,18.27l.49.49-.49.49h0c-7.71,7.31-14.71,13.91-19.83,18.63l-6.11,5.53A13.55,13.55,0,0,1,404.47,198.84Z"/><path class="cls-5" d="M404.47,199.42a.68.68,0,0,1-.4,0h0c-.4-.45-.26-.63,2-3l5.84-5.84c5-5,11.67-11.41,18.81-18.23-7.05-6.51-13.64-12.75-18.77-17.83l-5.84-5.75c-2.23-2.23-2.49-2.54-2.05-3s.72,0,3.17,1.83l6.15,5.44c5.26,4.45,12,10.87,19.12,17.47h0l.76.71,1,.89-1.16,1.07-.54.54h0c-7.26,6.9-14.08,13.37-19.21,17.82l-6,5.89C405.5,198.88,404.83,199.42,404.47,199.42Zm27.06-26.75-15,14.49c4.45-4.1,9.67-8.91,15.2-14.31h0Zm1.07-.84Zm-16-14.67c4.46,4.19,9.54,8.92,14.89,14h0c-5.22-5-10.43-9.76-14.89-13.82Z"/><path class="cls-5" d="M344.66,146.07a10.83,10.83,0,0,1-2,2.27l-5.8,5.84c-5,4.9-11.9,11.59-19.56,18.94h0v-1c7.75,7.18,14.7,13.73,19.7,18.54l5.83,5.75c1.39,1.34,2.1,2.14,2,2.23a18.64,18.64,0,0,1-2.36-1.87L336,191.57c-5.17-4.45-12.22-11.1-20-18.27l-.54-.49.54-.49h0c7.66-7.36,14.71-13.91,19.83-18.63l6.11-5.57A13.94,13.94,0,0,1,344.66,146.07Z"/><path class="cls-5" d="M344.93,199.42c-.36,0-1-.49-2.76-2L336,192c-5.17-4.45-11.95-10.78-19.12-17.47h0l-.76-.71-1-.89,1.11-1.07.58-.54h0c7.27-6.91,14-13.37,19.17-18l6.15-5.52c2.4-2.1,2.67-2.32,3.12-1.88s0,.81-2,3.08l-5.84,5.84c-5,4.94-11.63,11.36-18.76,18.18,7.08,6.64,13.73,12.88,18.72,17.83l5.88,5.75c2.23,2.27,2.45,2.49,2.05,3A.7.7,0,0,1,344.93,199.42ZM317.7,173.7c5.44,5.08,10.61,9.8,15.06,13.82l-14.88-14Zm-1-.89Zm1-.94h0c5.49-5.21,10.7-10.2,15.07-14.48-4.5,4.28-9.76,9.22-15.29,14.48Z"/><path class="cls-5" d="M360,211.49c-.36,0,5.93-17.82,14-39.44s15-39,15.29-38.91-5.93,17.83-14,39.4S360.39,211.49,360,211.49Z"/><path class="cls-5" d="M360.08,211.85h-.26c-.67-.22-.76-.27,3.52-12.34,2.67-7.45,6.28-17.3,10.2-27.77s7.62-20.28,10.52-27.63c4.68-11.9,4.81-11.9,5.48-11.64s.76.27-3.52,12.35c-2.67,7.44-6.28,17.34-10.2,27.77s-7.63,20.27-10.52,27.67C361.2,210.51,360.62,211.85,360.08,211.85Zm23-62.08c-2.37,6.1-5.22,13.63-8.47,22.28s-6,16.22-8.25,22.29c2.36-6.07,5.22-13.38,8.47-22.29s6-16.13,8.25-22.28Z"/></g><rect class="cls-17" x="178" y="41.79" width="397.47" height="227.06"/><path class="cls-18" d="M573.51,175.89A56.11,56.11,0,0,0,576,181c1,2,.1,4.82-1.57,6.36a8.39,8.39,0,0,1-4,1.71,24.14,24.14,0,0,1-9.77.68,14.35,14.35,0,0,1-8-4.47,14.63,14.63,0,0,1-3.69-8.42"/><g class="cls-19"><path class="cls-20" d="M573.51,175.89A56.11,56.11,0,0,0,576,181c1,2,.1,4.82-1.57,6.36a8.39,8.39,0,0,1-4,1.71,24.14,24.14,0,0,1-9.77.68,14.35,14.35,0,0,1-8-4.47,14.63,14.63,0,0,1-3.69-8.42"/></g><path class="cls-21" d="M571.25,183.39a46.9,46.9,0,0,0,2.16-7.88,16.42,16.42,0,0,0-.57-8.08c-.13-.39-1.33-3-1.74-3s.43,2.45.28,2.71a14.27,14.27,0,0,0-1.71,8.15,36.8,36.8,0,0,0,1.54,8.06"/><path class="cls-22" d="M557.77,209.71c4.24,0,13.5-7.05,13.55-11.28l.33-25.44c.3-6.83-3.41-12.7-10.25-12.82l-.63,0a12.21,12.21,0,0,0-11.71,11.73c-.23,5.92-.41,12.47-.24,15.64.35,6.54,6.79,7.27,6.79,7.27v4.53c0,4.32-1.14,10.37,3.16,10.34Z"/><path class="cls-23" d="M555.6,194.84a16,16,0,0,0,8.59-2.84s-2,5-8.59,4.69Z"/><path class="cls-21" d="M550.87,177.27a1,1,0,0,0,1,.92.9.9,0,0,0,.92-.88h0a1,1,0,0,0-.94-.91.91.91,0,0,0-.94.87Z"/><path class="cls-21" d="M550.56,174.59c.13.12.81-.44,1.82-.48s1.77.44,1.87.31-.07-.27-.41-.49a2.62,2.62,0,0,0-1.5-.4,2.52,2.52,0,0,0-1.44.53C550.6,174.31,550.51,174.54,550.56,174.59Z"/><path class="cls-21" d="M559.5,177.58a.93.93,0,0,0,.94.91.89.89,0,0,0,.93-.87h0a.94.94,0,0,0-.94-.91.9.9,0,0,0-.93.87Z"/><path class="cls-21" d="M560.45,174.31a16.58,16.58,0,0,1,1.82-.35c1,0,1.76.32,1.87.22s-.08-.2-.41-.36a3.38,3.38,0,0,0-1.5-.29,3,3,0,0,0-1.44.39C560.49,174.1,560.38,174.27,560.45,174.31Z"/><path class="cls-21" d="M557.16,182.49a6.14,6.14,0,0,0-1.65-.23c-.26,0-.5-.06-.57-.24a1.25,1.25,0,0,1,.14-.76l.68-2a34.19,34.19,0,0,0,1.5-5.19,30.87,30.87,0,0,0-1.92,5.06c-.23.7-.44,1.37-.65,2a1.62,1.62,0,0,0-.09,1,.69.69,0,0,0,.44.36,2.25,2.25,0,0,0,.44,0A6.74,6.74,0,0,0,557.16,182.49Z"/><path class="cls-21" d="M560.31,169.25c.12.27,1.14.1,2.28.19s2.16.37,2.31.12-.12-.37-.51-.62a3.92,3.92,0,0,0-1.71-.52,3.86,3.86,0,0,0-1.78.28C560.48,168.9,560.27,169.12,560.31,169.25Z"/><path class="cls-21" d="M550.84,169.55c.19.22.87,0,1.71-.09s1.55.09,1.71-.15,0-.35-.37-.57a2.49,2.49,0,0,0-2.74.2C550.85,169.2,550.76,169.44,550.84,169.55Z"/><path class="cls-22" d="M571.32,177.87c.1-.05,4.44-1.52,4.49,3s-4.48,3.61-4.48,3.48S571.32,177.87,571.32,177.87Z"/><path class="cls-23" d="M572.68,182.6a1.27,1.27,0,0,0,.21.12.8.8,0,0,0,.57,0,1.94,1.94,0,0,0,.89-1.74,2.77,2.77,0,0,0-.23-1.14.9.9,0,0,0-.57-.57.39.39,0,0,0-.46.21c-.06.14,0,.22-.05.23s-.1-.07-.07-.26a.53.53,0,0,1,.18-.28.56.56,0,0,1,.43-.12,1.09,1.09,0,0,1,.82.68,2.62,2.62,0,0,1,.29,1.26,2,2,0,0,1-1.14,1.95.84.84,0,0,1-.72-.12C572.69,182.71,572.67,182.6,572.68,182.6Z"/><path class="cls-20" d="M552,164.49c-.73-.4,1.46-2.75,3.24-3.57,2.7-1.22,6.83-2,9.3-1.27,3,.85,5.49,2.33,7,5.06a17.51,17.51,0,0,1,2,9,5.28,5.28,0,0,1-.63,2.75c-.62,1-1.83,1.61-1.77,3a1.88,1.88,0,0,1-.47,1.36c-.82.88-1.82.06-2.27-.77a19.37,19.37,0,0,1-.91-10.13c.22-.76.57-1.46.75-2.22a2.69,2.69,0,0,0-.32-2.24,4.17,4.17,0,0,0-.36-.37,4.69,4.69,0,0,0-4.65-.88c-2.53.89-6.83,2.23-8,1.38a7.2,7.2,0,0,1-2-2Z"/><path class="cls-16" d="M549,171.31a21.55,21.55,0,0,1,1.5-3.45c.75-1.2,3.17-2.21,3.7-2.4a45.39,45.39,0,0,1,10.85.74c4.29.88,8.25,9.8,8.25,9.8l.48-2.47s-.43-4.78-.43-5.86-1.82-4.64-2.28-5.19a57,57,0,0,0-5.59-3.42c-.5-.27-4.55-1.34-6.49-.95a31.36,31.36,0,0,0-8,3.58,6.07,6.07,0,0,0-2,2.22C548.42,165,549,171.31,549,171.31Zm4.73-7.56.06-.85a5.83,5.83,0,0,1,5.88-3.09c3.46.52,4.49,4.66,4.49,4.66Z"/><path class="cls-21" d="M553.86,165.46a.86.86,0,0,1-.21-.21.75.75,0,0,1-.11-.66,1.63,1.63,0,0,1,.35-.63c.11-.15.19-.25.18-.27a.82.82,0,0,0-.27.2,1.37,1.37,0,0,0-.41.66.8.8,0,0,0,.17.77C553.71,165.47,553.86,165.48,553.86,165.46Z"/><path class="cls-21" d="M555.21,164.38a.31.31,0,0,1,0,.2.22.22,0,0,1-.09.17.18.18,0,0,1-.2,0,.2.2,0,0,1-.09-.19.26.26,0,0,1,.11-.14c.1-.07.19,0,.2,0s-.07-.11-.24-.06a.35.35,0,0,0-.21.22.3.3,0,0,0,.14.35.33.33,0,0,0,.38,0,.33.33,0,0,0,.11-.28C555.34,164.38,555.21,164.35,555.21,164.38Z"/><path class="cls-21" d="M557.18,164.49a.28.28,0,0,1,0,.2.19.19,0,0,1-.09.16.15.15,0,0,1-.2,0,.18.18,0,0,1-.1-.18.29.29,0,0,1,.12-.15c.11-.06.19,0,.2,0s-.08-.11-.25-.06a.34.34,0,0,0-.2.22.33.33,0,0,0,.52.34.32.32,0,0,0,.11-.27C557.31,164.51,557.19,164.47,557.18,164.49Z"/><path class="cls-21" d="M559.16,164.61a.35.35,0,0,1,0,.2.24.24,0,0,1-.09.16.15.15,0,0,1-.2,0,.17.17,0,0,1-.09-.18.23.23,0,0,1,.11-.15c.1-.06.19,0,.2,0s-.07-.11-.25-.06a.35.35,0,0,0-.21.22.34.34,0,0,0,.53.34.3.3,0,0,0,.11-.27C559.29,164.63,559.17,164.59,559.16,164.61Z"/><path class="cls-21" d="M561.15,164.73a.31.31,0,0,1,0,.2.19.19,0,0,1-.09.16.15.15,0,0,1-.2,0,.17.17,0,0,1-.1-.18.29.29,0,0,1,.12-.15c.1-.06.19,0,.2,0s-.08-.11-.25-.06a.31.31,0,0,0-.2.22.29.29,0,0,0,.14.34.29.29,0,0,0,.37,0,.29.29,0,0,0,.12-.27C561.27,164.75,561.15,164.71,561.15,164.73Z"/><path class="cls-21" d="M563.12,164.85a.35.35,0,0,1,0,.2.24.24,0,0,1-.09.16.18.18,0,0,1-.2,0,.19.19,0,0,1-.1-.18.26.26,0,0,1,.12-.15c.1-.06.19,0,.2,0s-.08-.11-.25-.05a.32.32,0,0,0-.21.21.34.34,0,0,0,.28.39.32.32,0,0,0,.25,0,.36.36,0,0,0,.11-.28C563.25,164.87,563.13,164.83,563.12,164.85Z"/><path class="cls-21" d="M559.56,160c-.36,0-.53-.53-.9-.53a1.06,1.06,0,0,0-.9.53.86.86,0,0,0-1.12-.47.87.87,0,0,0-.52.6,1.28,1.28,0,0,0-.86-.07c-.27.12-.41.57-.17.71a1.12,1.12,0,0,0-1.18-.06.67.67,0,0,0-.21.93l.1.12a1,1,0,0,0-1.29.42.94.94,0,0,0,.15,1.09.38.38,0,0,0,.26.16c.18,0,.32-.19.35-.37a2.61,2.61,0,0,1,.08-.57c.08-.17.32-.29.45-.17-.18.32-.35.73-.13,1s.33.42.57.43c1.42,0,8.55.64,9.93.67C564.19,164.47,563,160.17,559.56,160Z"/><path class="cls-21" d="M572.94,175.23c0,.38.44.61.81.69a4.25,4.25,0,0,1,1.11.25c.33.18.57.65.31.94a.83.83,0,0,1-.88.1,4.35,4.35,0,0,1-2.85-2.94,1.23,1.23,0,0,1-1.56-.41,3.49,3.49,0,0,1-.52-1.71,3,3,0,0,1-3-2.85c0-.85.41-1.74.1-2.53a17,17,0,0,1,3,2.88C570.56,171.05,572.94,175.23,572.94,175.23Z"/><path class="cls-20" d="M574.69,177.1a.34.34,0,0,1,.34.34v0a.51.51,0,0,1-.34.41,1.1,1.1,0,0,1-.57,0,3.2,3.2,0,0,1-1.57-.61,1,1,0,0,1-1.09.46,1.43,1.43,0,0,1-.94-.79,2.58,2.58,0,0,1-.24-1.23,1.13,1.13,0,0,1-1.3,0,1.8,1.8,0,0,1-.67-1.19,4,4,0,0,1,.06-1.38.79.79,0,0,1-1.09-.22.31.31,0,0,1,0-.1,1.46,1.46,0,0,1,.19-1.34,1.13,1.13,0,0,1-.67-1.46s0-.07,0-.11a.64.64,0,0,1-.87-.23v0a1.33,1.33,0,0,1-.06-1,8.6,8.6,0,0,0,.25-1,1.7,1.7,0,0,0-.42-1.3,4.2,4.2,0,0,1,2.18,1.24,12.71,12.71,0,0,1,1.53,2.05l3.79,5.84"/><path class="cls-18" d="M565.88,166.42a1.12,1.12,0,0,1,.19.24,1.3,1.3,0,0,1,.06.87,4.44,4.44,0,0,1-.22.61,2.79,2.79,0,0,0-.21.75,1,1,0,0,0,.23.86.89.89,0,0,0,.47.22.58.58,0,0,0,.5-.19l-.12-.06A1.82,1.82,0,0,0,568,172a1.36,1.36,0,0,0,.35.07l-.07-.1a2.25,2.25,0,0,0,.08,1.71,2.37,2.37,0,0,0,1.09,1.14l0-.07a5.61,5.61,0,0,0,.23,1.08,1.93,1.93,0,0,0,.57.89,1.35,1.35,0,0,0,.94.32.92.92,0,0,0,.8-.44h-.1a2.08,2.08,0,0,0,1.16,1,2,2,0,0,0,1.19,0,1.77,1.77,0,0,0,.67-.34l.15-.13,0,0a2.09,2.09,0,0,1-.21.15,2.12,2.12,0,0,1-.67.3,1.85,1.85,0,0,1-1.14-.06,1.91,1.91,0,0,1-1.09-1l-.05-.1-.07.1a.78.78,0,0,1-.7.37,1.25,1.25,0,0,1-.84-.29,2,2,0,0,1-.52-.83,6.51,6.51,0,0,1-.21-1.05v0h0a2.24,2.24,0,0,1-1.1-2.68l0-.1h-.11a1.58,1.58,0,0,1-1.26-.77,1.54,1.54,0,0,1-.19-1.35l.12-.36-.24.29a.58.58,0,0,1-.78,0,.93.93,0,0,1-.21-.77,13.79,13.79,0,0,1,.4-1.35,1.23,1.23,0,0,0-.1-.9A.61.61,0,0,0,565.88,166.42Z"/><path class="cls-18" d="M553.9,162.35a.36.36,0,0,1,0-.25.27.27,0,0,1,.23-.17.29.29,0,0,1,.3.21h.09a1,1,0,0,1,.51-1,.93.93,0,0,1,1.24.43l.1-.1c-.09,0-.11-.2,0-.31a.38.38,0,0,1,.33-.2,1.94,1.94,0,0,1,1,.18,2.2,2.2,0,0,1,1.1,1.09l.11-.09a.32.32,0,0,1-.14-.31.39.39,0,0,1,.17-.31,1.07,1.07,0,0,1,.72-.15,2.28,2.28,0,0,1,1.18.45,2.74,2.74,0,0,1,.78.88v-.08a2,2,0,0,0-.1-.21,2.2,2.2,0,0,0-.57-.68,2.23,2.23,0,0,0-1.24-.5,1.16,1.16,0,0,0-.81.16.61.61,0,0,0-.23.41.48.48,0,0,0,.22.46l.19.09-.08-.2a2.34,2.34,0,0,0-1.19-1.17,2,2,0,0,0-1-.19.59.59,0,0,0-.46.28.53.53,0,0,0,0,.28.31.31,0,0,0,.17.23l.2.11-.1-.21a1.06,1.06,0,0,0-1.4-.5,1,1,0,0,0-.58,1.12h.09a.38.38,0,0,0-.4-.26.31.31,0,0,0-.26.21C553.8,162.27,553.9,162.37,553.9,162.35Z"/><path class="cls-20" d="M549,171.06a1.75,1.75,0,0,1-.39,1.14,7.13,7.13,0,0,0-.87,1.1.9.9,0,0,0,.29,1.22,2,2,0,0,0-.24,1.71c.21.57.45,1.53,1,1.71.09-2,.3-5.26.31-7.24"/><path class="cls-21" d="M560.23,183c-.15,0-.11,1-1,1.81s-2,.72-2,.86.26.19.73.19a2.63,2.63,0,0,0,1.65-.66,2.25,2.25,0,0,0,.75-1.52C560.43,183.28,560.3,183,560.23,183Z"/><polygon class="cls-22" points="518.92 254.69 550.38 255.39 550.95 244.9 513.05 247.99 518.92 254.69"/><path class="cls-8" d="M495.11,221.53s-.34.78-.34.78l12.71,24.2,12.25,5.94,25.85-1.14v-1.58l-11.64-6-18.79.46-10.13-20a1.86,1.86,0,0,0-1.3-1Z"/><path class="cls-21" d="M519.73,252.45a7.17,7.17,0,0,1-.78-1.19l-1.71-3c-.66-1.16-1.2-2.23-1.6-3a6,6,0,0,1-.57-1.3,6.54,6.54,0,0,1,.77,1.19c.45.76,1,1.8,1.71,3s1.21,2.23,1.61,3A6.18,6.18,0,0,1,519.73,252.45Z"/><polygon class="cls-20" points="522.46 249.86 534.99 249.45 525.53 244.52 515.42 244.75 522.46 249.86"/><path class="cls-21" d="M545.57,249.66a.84.84,0,0,1-.27,0l-.78,0-2.85.09c-2.4.08-5.74.23-9.41.39s-7,.28-9.42.29H520l-.78,0h-.27a.84.84,0,0,1,.27,0l.78,0,2.85-.09c2.4-.07,5.73-.22,9.41-.39s7-.27,9.42-.29h3.62A.65.65,0,0,1,545.57,249.66Z"/><path class="cls-21" d="M517.94,251.58a2.5,2.5,0,0,1-.21-.35l-.57-1c-.49-.94-1.14-2.24-2-3.82l-6.47-12.66-4.81-9.54.09.07-6.69-1.37-1.86-.39a4.77,4.77,0,0,1-.65-.17,3.73,3.73,0,0,1,.67.09l1.87.33L504,224h.05l0,.06,4.86,9.53,6.41,12.7c.79,1.61,1.44,2.91,1.9,3.86.21.44.37.79.51,1.06S517.9,251.45,517.94,251.58Z"/><path class="cls-22" d="M510.48,244.58s.52-.52,1.56.81a37,37,0,0,1,2.78,5.21l1.91.86s-1.68-2-1.68-2.77,1.27-.81,2,.35a34.06,34.06,0,0,0,2.71,3.41s-.63,2.34-.81,2.24-3.35-.27-3.35-.27l-.87-.41s-2.14,0-2.27-.57-3.65-3-3.65-3.53v-3.35s-1.62-3.93-1.27-4.34S509.32,240.94,510.48,244.58Z"/><path class="cls-23" d="M510.71,244.52a.34.34,0,0,0-.15,0,.31.31,0,0,0-.19.33h0a19,19,0,0,1,.47,1.89c.18.8.37,1.76.66,2.74a5.22,5.22,0,0,0,1,1.76l1.05,1.36a7,7,0,0,1,.91,1.31,8.86,8.86,0,0,1-1.07-1.14l-1.11-1.33a6.18,6.18,0,0,1-.62-.83,4.11,4.11,0,0,1-.47-1,26.77,26.77,0,0,1-.63-2.79c-.13-.72-.25-1.36-.35-1.91h0a.42.42,0,0,1,.31-.4C510.65,244.48,510.71,244.51,510.71,244.52Z"/><path class="cls-23" d="M510.19,251.32a20.38,20.38,0,0,1-1.39-4.77,19.2,19.2,0,0,1,1.39,4.77Z"/><path class="cls-23" d="M516.12,248.23a.89.89,0,0,1-.23,0,.75.75,0,0,0-.51.21c-.14.16-.08.45.07.75s.32.69.5,1.05l.5,1c.17.3.36.57.5.79.3.45.43.77.39.79s-.22-.25-.57-.67c-.2-.24-.39-.5-.57-.76s-.36-.68-.57-1.05a10.49,10.49,0,0,1-.47-1.06,1.44,1.44,0,0,1-.14-.53.6.6,0,0,1,.17-.49.83.83,0,0,1,.66-.18C516.05,248.18,516.13,248.2,516.12,248.23Z"/><path class="cls-24" d="M563.79,360.37l3.42,11.87s-11,7.49-10.52,9.75L580,376.16l-4.6-18.72Z"/><path class="cls-25" d="M574.16,369.45a1,1,0,0,1,.93.93.94.94,0,0,1-.91.92,1,1,0,0,1-1-1,1,1,0,0,1,1-.86"/><path class="cls-8" d="M580,376.18l-.57-1.87-22.15,6.29s-.92.72-.63,1.42Z"/><path class="cls-21" d="M566.79,372.24c0,.12.62,0,1.27.25s1.07.63,1.14.57-.25-.69-1-.95S566.74,372.15,566.79,372.24Z"/><path class="cls-21" d="M564.6,373.87c0,.11.57.19,1.06.57s.74.86.85.83,0-.7-.62-1.14S564.58,373.76,564.6,373.87Z"/><path class="cls-21" d="M564,377.14c.11,0,.12-.61-.33-1.14s-1-.66-1.06-.57.38.36.75.82S563.83,377.16,564,377.14Z"/><path class="cls-21" d="M566.32,369.44c.06.1.57-.19,1.2-.31s1.21,0,1.25-.15-.57-.4-1.32-.25S566.24,369.4,566.32,369.44Z"/><path class="cls-24" d="M571.94,363.17l.57,12.37s-12.4,4.71-12.53,7l24-.19L584,363.05Z"/><path class="cls-25" d="M579.9,374.44a1,1,0,0,1,.69,1.14.94.94,0,0,1-1.1.69,1,1,0,0,1-.72-1.18,1,1,0,0,1,1.22-.57"/><path class="cls-8" d="M584,382.36l-.08-1.95-23,.91s-1.06.47-.94,1.23Z"/><path class="cls-21" d="M572.09,375.42c0,.12.57.17,1.17.54s.89.87,1,.82-.07-.73-.78-1.14S572.06,375.32,572.09,375.42Z"/><path class="cls-21" d="M569.58,376.49c0,.11.48.3.88.8s.53,1,.65,1,.18-.67-.33-1.27S569.58,376.37,569.58,376.49Z"/><path class="cls-21" d="M568.17,379.52c.11,0,.26-.57,0-1.21s-.86-.89-.91-.79.3.44.57,1S568.05,379.51,568.17,379.52Z"/><path class="cls-21" d="M572.28,372.59c.05.11.57-.06,1.25,0s1.18.25,1.24.15-.44-.52-1.22-.57S572.22,372.5,572.28,372.59Z"/><path class="cls-8" d="M586.81,272.63v9.78l-2.63,38.12s1.64,18.48,2.64,28.92c.87,9.07-.57,24.86-.57,24.86H571l-5.47-52.65-3.42-32.83-5.91-14.95Z"/><polygon class="cls-8" points="545.73 274.37 549.46 327.51 564.93 367.32 565.64 369.72 574.78 367.51 567.99 273.3 545.73 274.37"/><path class="cls-18" d="M562.14,289.22v.87c0,.57.05,1.42.08,2.49.06,2.17.22,5.29.43,9.16.47,7.74,1.33,18.4,2.67,30.14s2.78,22.35,3.85,30c.54,3.82,1,6.92,1.29,9.08.15,1.06.27,1.88.36,2.47,0,.27.07.48.1.64a2.07,2.07,0,0,0,0,.22.89.89,0,0,0,0-.23c0-.16,0-.37-.07-.64-.07-.57-.18-1.41-.31-2.48-.28-2.16-.69-5.26-1.19-9.11-1-7.68-2.45-18.28-3.77-30s-2.23-22.39-2.74-30.12c-.25-3.86-.44-7-.53-9.15-.06-1.07-.1-1.91-.13-2.49,0-.28,0-.49,0-.65A1.18,1.18,0,0,0,562.14,289.22Z"/><path class="cls-18" d="M561.17,275.92a.79.79,0,1,0,.79-.79.79.79,0,0,0-.79.79Z"/><path class="cls-18" d="M547.73,283.35a5.44,5.44,0,0,0,1.07-1,12,12,0,0,0,2.89-6.44,4.9,4.9,0,0,0,0-1.48c-.05,0-.08.57-.24,1.44a14.08,14.08,0,0,1-2.84,6.35A11.46,11.46,0,0,0,547.73,283.35Z"/><path class="cls-24" d="M589.11,277.71s-1.76-13.39-1.94-14.92S584,241.85,584,241.85l2.77-36.9c-2.1-2.28-13.09-9.4-13.09-9.4l-2.16-5-13.32,10.54-1.82,5.65-.81-7.6-2.4,6.34a9.14,9.14,0,0,0-2.58,3.83l-2.07,12.87a41.22,41.22,0,0,0-.51,5.43l-.43,16.23-3.22,36.25,10.82,3.38a23.57,23.57,0,0,0,12,.53c5.74-1.25,13.7-3,15.14-3.07,2.27-.19,4.44,2.38,4.44,2.38C587.25,283.35,589.34,280.27,589.11,277.71Z"/><path class="cls-21" d="M573.25,195.21a4.4,4.4,0,0,1-.51.69c-.35.44-.86,1-1.53,1.78-1.31,1.47-3.24,3.42-5.32,5.57-1,1.08-2,2.11-2.85,3.09l-.1.11-.1-.1c-1.41-1.4-2.42-2.74-3.2-3.63l-.91-1a2.3,2.3,0,0,1-.32-.38,1.61,1.61,0,0,1,.38.31c.24.22.57.57,1,1,.82.86,1.87,2.17,3.27,3.53h-.21c.83-1,1.79-2,2.84-3.11,2.09-2.17,4-4.08,5.38-5.51.69-.71,1.22-1.3,1.6-1.71A4.25,4.25,0,0,1,573.25,195.21Z"/><path class="cls-21" d="M551.76,262.33a.33.33,0,0,1,0-.14v-.42c0-.4,0-.94.09-1.62.09-1.44.23-3.47.39-6,.35-5,.86-12,1.47-19.65s1.21-14.62,1.71-19.63c.24-2.52.47-4.56.64-5.94.09-.68.16-1.22.22-1.62l.06-.41a.57.57,0,0,1,0-.14.33.33,0,0,1,0,.14,1.76,1.76,0,0,1,0,.43c0,.39-.09.93-.16,1.61-.13,1.43-.32,3.45-.57,5.94-.44,5-1,12-1.62,19.64s-1.14,14.6-1.56,19.64c-.2,2.5-.37,4.52-.48,6-.06.68-.12,1.22-.15,1.61a2.19,2.19,0,0,1,0,.42A.34.34,0,0,1,551.76,262.33Z"/><path class="cls-21" d="M565.5,270.09c0,.07-4-2-8.79-4.74s-8.68-4.94-8.64-5,4,2.05,8.79,4.75S565.5,270,565.5,270.09Z"/><path class="cls-21" d="M553,282.83a3.22,3.22,0,0,1,0-.76c0-.57.07-1.26.11-2.09.08-1.76.09-4.2.06-6.89s0-5.12,0-6.9V264.1a3.29,3.29,0,0,1,.06-.77,3.29,3.29,0,0,1,.06.77c0,.57,0,1.25.08,2.09,0,1.76.09,4.2.12,6.89s0,5.13-.15,6.91c-.06.89-.14,1.6-.21,2.09A3.75,3.75,0,0,1,553,282.83Z"/><g class="cls-19"><path d="M556.39,206.78c.05-.1-.5.48,0,0a16.85,16.85,0,0,0,2-2.78,42.88,42.88,0,0,1,4.14,4.38c1.9-2,3.81-4,5.52-6.12a45,45,0,0,0,3.75-5.42l-8.83,9.42-4.74-5.1Z"/></g><path class="cls-22" d="M549.24,237.66l.45,8s11.78,5.5,19.49,7.49A69.56,69.56,0,0,0,586,254.78l-3.24-12.91Z"/><path class="cls-22" d="M526.45,239.29a1.72,1.72,0,0,1,.86-1.63c1-.63,3.17-2,3.17-2l6.51-.57,12.25,2.63.45,7.94s-6.27.34-7.7.29a35.13,35.13,0,0,1-5.49-1.34s-6.77.86-7.09.48-.75-.81-.32-1.08,5.64-1.61,5.64-1.61l-3.49-.27a47.66,47.66,0,0,1-5.48.92c-.36-.17-.86-.81-.57-1.29l.32-.49a1.08,1.08,0,0,1,.54-1.34l.48-.16Z"/><path class="cls-23" d="M535.72,239.19a4.16,4.16,0,0,1-1.56.26,16,16,0,0,0-3.74.33,19,19,0,0,0-1.92.8,15.56,15.56,0,0,1-1.62.57,5.48,5.48,0,0,1-1.56.32,14.85,14.85,0,0,1,1.49-.53c.46-.16,1-.37,1.58-.63a15.71,15.71,0,0,1,1.93-.85,7.61,7.61,0,0,1,2.12-.27h1.71C535.13,239.25,535.72,239.14,535.72,239.19Z"/><path class="cls-23" d="M535.16,237.36a3.34,3.34,0,0,1-1.4.18,7.48,7.48,0,0,0-3.28.43c-1.21.51-2.31,1-3.11,1.32a7,7,0,0,1-1.33.47,6.17,6.17,0,0,1,1.24-.67c.78-.37,1.86-.89,3.09-1.4a5,5,0,0,1,1.86-.42c.57,0,1.1,0,1.53.06C534.62,237.38,535.15,237.32,535.16,237.36Z"/><path class="cls-24" d="M586.78,205s3.27,5.22,3.78,7.76,1.78,29.34,1.27,29.85a13.93,13.93,0,0,1-1.4,1.14s2.93.63,2,2.15a25.28,25.28,0,0,1-1.78,2.67s-.44,5-1,5.08-3.63,1.87-3.63,1.87-8.9-4.79-9.68-7.33-2.71-7.62-2.71-7.62l1.49-3.55-4.55-21.59s-2.46-6.91,2-9.74S585.12,202.13,586.78,205Z"/><path class="cls-21" d="M571.49,219.49a1.59,1.59,0,0,1,.09.33l.23,1c.18.85.45,2.06.79,3.58.68,3.1,1.62,7.46,2.73,12.61V237l-1.51,3.56v-.11c.87,2.42,1.79,5.07,2.78,7.74l.15.34.24.32a4.62,4.62,0,0,0,.52.57c.37.37.76.72,1.16,1a29.92,29.92,0,0,0,2.5,1.82c1.71,1.14,3.37,2.13,5,3H586q1.17-.66,2.28-1.23c.37-.2.74-.38,1.14-.57l.15-.06.13-.05a.34.34,0,0,0,.11-.17,3.09,3.09,0,0,0,.17-.54,33.74,33.74,0,0,0,.62-4.25v0h0c.45-.57.86-1.17,1.21-1.71.18-.27.35-.54.51-.8a2.69,2.69,0,0,0,.19-.38.86.86,0,0,0,0-.39c-.1-.51-.6-.8-1-1a6.18,6.18,0,0,0-1.14-.41h-.1l.09-.07c.49-.34.85-.62,1.08-.81l.35-.29a.24.24,0,0,1-.08.09l-.24.24a12.81,12.81,0,0,1-1.06.86v-.09a5.74,5.74,0,0,1,1.17.39,3.33,3.33,0,0,1,.63.39,1.18,1.18,0,0,1,.45,1.18,2.67,2.67,0,0,1-.2.42c-.16.26-.32.53-.5.81-.35.57-.74,1.14-1.19,1.75v-.06a38.61,38.61,0,0,1-.57,4.3,4.23,4.23,0,0,1-.19.57.57.57,0,0,1-.23.3l-.16.06-.13,0c-.36.16-.73.35-1.09.54-.76.38-1.52.79-2.28,1.24l-.07,0-.06,0c-1.64-.89-3.32-1.88-5-3-.87-.57-1.72-1.18-2.53-1.83-.21-.17-.41-.34-.61-.53a5.11,5.11,0,0,1-.57-.57,5.46,5.46,0,0,1-.54-.62c-.08-.1-.17-.21-.25-.33l-.18-.39c-1-2.71-1.9-5.32-2.77-7.75v-.11l1.54-3.55V237c-1.08-5.15-2-9.52-2.62-12.63-.31-1.53-.57-2.74-.73-3.6-.07-.41-.13-.72-.18-1A1.91,1.91,0,0,1,571.49,219.49Z"/><path class="cls-21" d="M590.56,243.61a1.83,1.83,0,0,1-.45.19,4,4,0,0,1-1.32.2,2.23,2.23,0,0,1-.92-.23,6.46,6.46,0,0,1-.92-.53c-.62-.41-1.25-.91-2-1.39-1.38-1-2.69-1.77-3.62-2.36a11.55,11.55,0,0,1-1.49-1,10.54,10.54,0,0,1,1.6.83c1,.57,2.28,1.34,3.69,2.28.7.47,1.34,1,1.93,1.4a3.62,3.62,0,0,0,1.71.78,5.49,5.49,0,0,0,1.28-.1A2.31,2.31,0,0,1,590.56,243.61Z"/><path class="cls-21" d="M590.69,248.55a1.58,1.58,0,0,1-.57.13,3.14,3.14,0,0,1-1.57-.28,26.52,26.52,0,0,1-4.4-2.78,45.29,45.29,0,0,1-3.86-3.47c-.47-.47-.84-.86-1.09-1.14a2.54,2.54,0,0,1-.37-.44,14.47,14.47,0,0,1,1.61,1.42c1,.9,2.31,2.14,3.9,3.38a31.51,31.51,0,0,0,4.31,2.85,3.1,3.1,0,0,0,1.47.36A5.44,5.44,0,0,1,590.69,248.55Z"/><g class="cls-19"><path d="M580,238.61a10.57,10.57,0,0,0,2.15,2.28l3.78,3.29a3.43,3.43,0,0,0,2.53,1.18,3.15,3.15,0,0,0,1.32-.62c.37-.25.78-.64.68-1.07a3.72,3.72,0,0,1-3.23-.34,11.38,11.38,0,0,1-1.14-.94,28.65,28.65,0,0,0-6-3.71"/></g><path class="cls-23" d="M549.69,245.61a4.8,4.8,0,0,1-.75.09l-2,.12-3,.15-1.79.08a5.48,5.48,0,0,1-1-.17l-1-.22c-1.31-.33-2.56-.66-3.68-1h0l-4.12.35-1.18.07a1.48,1.48,0,0,1-.42,0,1.86,1.86,0,0,1,.41-.08l1.18-.16,4.1-.46h0l3.69.94.94.23a5.67,5.67,0,0,0,.9.16l1.79-.06,3-.08h2.05A3.76,3.76,0,0,1,549.69,245.61Z"/><path class="cls-21" d="M571.49,209.71a1.94,1.94,0,0,1,.3-.57,10.42,10.42,0,0,1,1.09-1.39,21.41,21.41,0,0,1,1.91-1.78,9.13,9.13,0,0,1,2.71-1.75,7.7,7.7,0,0,1,3.2-.32,23,23,0,0,1,2.58.39c.72.14,1.32.25,1.7.34a3.13,3.13,0,0,1,.62.16,2.3,2.3,0,0,1-.64,0c-.41-.05-1-.13-1.71-.25a24,24,0,0,0-2.57-.32,7.68,7.68,0,0,0-3.08.33,9.38,9.38,0,0,0-2.62,1.68,22.26,22.26,0,0,0-1.93,1.71A22.55,22.55,0,0,0,571.49,209.71Z"/><polygon class="cls-8" points="172.95 382.47 225.29 382.23 277.64 382.14 382.32 381.98 487 382.14 539.34 382.23 591.68 382.47 539.34 382.71 487 382.8 382.32 382.96 277.64 382.8 225.29 382.71 172.95 382.47"/></svg>