<svg id="Layer_1" data-name="Layer 1" xmlns="http://www.w3.org/2000/svg" viewBox="0 0 750 420"><defs><style>.cls-1{fill:#f3f4ff;}.cls-2{fill:#eaf0f6;}.cls-3{fill:#6a78d1;}.cls-4{fill:#263238;}.cls-5{fill:none;stroke:#253342;stroke-miterlimit:10;stroke-width:0.82px;}.cls-6{fill:#33475b;}.cls-7{fill:#253342;}.cls-8{fill:#455a64;}.cls-9{fill:#ffbe9d;}.cls-10{fill:#eb996e;}.cls-11{fill:#fff;}.cls-12{fill:#7c98b6;}</style></defs><title>Artboard 1</title><rect class="cls-1" x="-0.01" width="750" height="420"/><polygon class="cls-2" points="499.49 42.34 105.84 42.34 105.84 274.88 319.38 274.88 333.63 275.01 345.94 274.88 499.49 274.88 499.49 42.34"/><rect class="cls-3" x="105.84" y="42.34" width="393.66" height="17.18"/><path class="cls-4" d="M499.49,42.34c0,1.44.07,90.21.17,232.54v.18H345.94l.16-.07-12.31.06-.15.15-.15-.14L319.24,275l.14.05H105.61v-233h.21l393.65.21-393.63.3.21-.22V274.91l-.23-.23H319.44l.07.06,14.23.05h-.3l12.36-.06.06-.06H499.5l-.18.18C499.42,132.52,499.49,43.78,499.49,42.34Z"/><path class="cls-3" d="M181.1,158.78a19.26,19.26,0,0,0-2.7-6.15c-1.12-1.31-1.63-1.82-5.33-1.82h-4v29.48c0,5.26.63,5.64,6.21,6.08v2.32H154.45v-2.32c5.33-.44,5.89-.82,5.89-6.08V150.81h-3.82c-3.51,0-4.52.57-5.71,2.07a24.13,24.13,0,0,0-2.57,6h-2.38c.44-4.58.88-9.47,1-12.48h1.88c.94,1.44,1.7,1.57,3.58,1.57H177.4a4.16,4.16,0,0,0,3.64-1.57h1.82c.06,2.64.31,8.15.62,12.23Z"/><path class="cls-3" d="M215.72,163c-3,.44-3.64,1.07-5.21,4.45s-3.32,8-7,16.68c-4.26,10.16-5.46,14.3-6.65,17.87a2.17,2.17,0,0,1-2.25,1.82c-2.45,0-5-1.82-5-4,0-1,.38-1.51,1.69-2.32,2.45-1.38,4.14-2.57,5.27-4.52a21.85,21.85,0,0,0,1.57-3.51,3.19,3.19,0,0,0-.25-2.38c-3.26-9-7.27-17.62-8.4-20.26s-1.89-3.38-4.9-3.82v-2.13h15.68V163c-2.69.44-3.13.88-2.44,2.82L202.8,179c1.38-3.45,3.64-9.21,4.76-12.73.63-2-.18-2.82-3.32-3.32v-2.13h11.48Z"/><path class="cls-3" d="M216,162.29a105.31,105.31,0,0,0,11.54-2.82V164c.12-.06,4.2-2.51,4.39-2.57A8.07,8.07,0,0,1,236,160.1c6.9,0,10.85,6.33,10.85,12.35,0,9.15-7.27,15.24-15.36,17a11.62,11.62,0,0,1-4-.56v7.52c0,3.52.31,3.89,4.64,4.46v2.07H215.4v-2.07c3.83-.38,4.08-.94,4.08-4.39v-28c0-3.39-.38-3.76-3.45-4.14Zm11.54,21.82a8.61,8.61,0,0,0,5.14,2.32c3.32,0,5.77-4.07,5.77-10.85,0-7.71-3.83-10.66-7-10.66a6.81,6.81,0,0,0-4,1.38Z"/><path class="cls-3" d="M266.57,160.1A13.94,13.94,0,0,1,281,174.27c0,10.09-7.28,15.17-14.68,15.17-9.47,0-14.86-7.15-14.86-14.48C251.46,165.36,259.36,160.1,266.57,160.1Zm-.75,2.5c-2.7,0-5.33,2.83-5.33,10.54s2.57,13.73,6.52,13.73c2.39,0,5-1.63,5-10.78C272,167.37,269.71,162.6,265.82,162.6Z"/><path class="cls-3" d="M294.73,178.91A3.73,3.73,0,0,0,293.6,181c0,1,1.19,2.32,3.58,2.32h7.08c3.83,0,9.41,1.57,9.41,7.71,0,7.09-8.66,12.73-17,12.73s-11.91-4-11.91-7.46a3.87,3.87,0,0,1,1.88-3.45c1.69-1.19,3.32-2.26,4.7-3.13a9,9,0,0,1-4.7-3.52,5.41,5.41,0,0,1-1-3.44,19.63,19.63,0,0,0,6.77-4.58Zm3,.63c-7.15,0-11.79-3.83-11.79-9.47,0-6.78,6.52-10,12.17-10a15.25,15.25,0,0,1,7.08,1.63,46,46,0,0,0,8.66-.88l.31.5c-.38,1.13-1.19,3.2-2.32,3.89-1.07,0-2.82-.25-3.7-.32a7.75,7.75,0,0,1,1.5,5.15C309.65,176.34,303.89,179.54,297.74,179.54Zm.75,10.4c-3.2,0-4.76.38-5.7,1.2a4.54,4.54,0,0,0-1.76,3.45c0,3.32,3.14,5.89,8.53,5.89,4.83,0,7.84-2.26,7.84-5.64a4.35,4.35,0,0,0-3.45-4.33A20,20,0,0,0,298.49,189.94Zm-.69-27.46c-1.94,0-3.89,2.32-3.89,6.9,0,4.26,1.45,7.77,4.39,7.77,2.45,0,3.83-2.57,3.83-7.08C302.13,166.12,300.81,162.48,297.8,162.48Z"/><path class="cls-3" d="M332.73,188.69H316.18v-2.13c3.32-.38,3.63-.69,3.63-4.45V168.37c0-3.13-.25-3.45-3.2-4.07v-2A60.6,60.6,0,0,0,327.9,160v6.77c2.82-4.32,5.08-6.64,7.65-6.64a3.81,3.81,0,0,1,4.08,3.76,6.11,6.11,0,0,1-3.2,5.33,1.72,1.72,0,0,1-1.94-.32c-1.07-.87-1.88-1.88-2.95-1.88s-2.51.82-3.64,3.2v11.92c0,3.76.44,3.95,4.83,4.45Z"/><path class="cls-3" d="M362.64,189.44a5.76,5.76,0,0,1-3.88-1.31,6.3,6.3,0,0,1-1.63-2.32c-2.39,1.56-5.46,3.63-6.65,3.63a8.24,8.24,0,0,1-8.53-8.09c0-3.32,1.5-4.83,4.83-6.14,3.7-1.38,8.65-2.89,10.09-4.14v-2.76c0-3.26-1.19-5.08-3.88-5.08a3.08,3.08,0,0,0-2.51,1.25,12.06,12.06,0,0,0-1.51,4.14,2.48,2.48,0,0,1-2.69,2.14c-1.63,0-3.7-1.51-3.7-3.27,0-1.12.75-1.94,2.19-2.94a30.82,30.82,0,0,1,10-4.45,11,11,0,0,1,6.46,1.81c2.7,1.89,3.45,4.52,3.45,7.72v10.85c0,3,1,3.76,2,3.76a4.73,4.73,0,0,0,1.94-.5l.69,2.13Zm-5.77-15.8c-1.12.63-2.25,1.25-3.51,1.94-1.94,1-3.07,2.14-3.07,4.27,0,3.51,2.45,4.76,3.83,4.76a3.52,3.52,0,0,0,2.75-1Z"/><path class="cls-3" d="M371.05,162.29a104.63,104.63,0,0,0,11.53-2.82V164c.13-.06,4.21-2.51,4.39-2.57a8.07,8.07,0,0,1,4.08-1.31c6.9,0,10.85,6.33,10.85,12.35,0,9.15-7.27,15.24-15.36,17a11.72,11.72,0,0,1-4-.56v7.52c0,3.52.32,3.89,4.65,4.46v2.07H370.42v-2.07c3.82-.38,4.08-.94,4.08-4.39v-28c0-3.39-.38-3.76-3.45-4.14Zm11.53,21.82a8.66,8.66,0,0,0,5.15,2.32c3.32,0,5.77-4.07,5.77-10.85,0-7.71-3.83-10.66-7-10.66a6.87,6.87,0,0,0-4,1.38Z"/><path class="cls-3" d="M423.35,188.69v-2.13c2.76-.44,2.94-.88,2.94-4.27v-11c0-4.83-2-6.46-4.45-6.46a6.44,6.44,0,0,0-4.58,1.82v15.67c0,3.39.32,3.83,3.2,4.27v2.13H405.54v-2.13c3.07-.38,3.63-.57,3.63-4.52V153c0-2.89-.37-3.58-3.88-4.14v-2a63.19,63.19,0,0,0,12-2.13v19.44c2.2-2.13,5.27-4.07,8.47-4.07,5.45,0,8.72,3.57,8.72,10.47V182c0,4,.43,4,3.44,4.52v2.13Z"/><path class="cls-3" d="M468.87,163c-3,.44-3.63,1.07-5.2,4.45s-3.32,8-7,16.68A189.39,189.39,0,0,0,450.06,202a2.17,2.17,0,0,1-2.26,1.82c-2.44,0-4.95-1.82-4.95-4,0-1,.38-1.51,1.69-2.32,2.45-1.38,4.14-2.57,5.27-4.52a21.85,21.85,0,0,0,1.57-3.51,3.24,3.24,0,0,0-.25-2.38c-3.26-9-7.28-17.62-8.41-20.26s-1.88-3.38-4.89-3.82v-2.13h15.68V163c-2.7.44-3.13.88-2.44,2.82L456,179c1.38-3.45,3.63-9.21,4.76-12.73.63-2-.19-2.82-3.32-3.32v-2.13h11.47Z"/><line class="cls-5" x1="164.49" y1="148.55" x2="164.49" y2="80.66"/><line class="cls-5" x1="265.92" y1="173.91" x2="265.92" y2="106.02"/><line class="cls-5" x1="335.44" y1="165.73" x2="335.44" y2="110.11"/><line class="cls-5" x1="408.79" y1="148.55" x2="408.79" y2="129.74"/><line class="cls-5" x1="223.38" y1="178" x2="223.38" y2="144.74"/><line class="cls-5" x1="309.27" y1="163.28" x2="309.27" y2="143.1"/><path class="cls-6" d="M155.86,78.92V71.65h3.24a1.83,1.83,0,0,1,2,1.85,1.65,1.65,0,0,1-1.27,1.67A1.83,1.83,0,0,1,161.28,77a1.9,1.9,0,0,1-2.11,2Zm4.34-5.29a1.14,1.14,0,0,0-1.26-1.17h-2.18V74.8h2.18A1.13,1.13,0,0,0,160.2,73.63Zm.14,3.23A1.24,1.24,0,0,0,159,75.61h-2.23v2.51H159A1.2,1.2,0,0,0,160.34,76.86Z"/><path class="cls-6" d="M166,78.92v-.6a2.29,2.29,0,0,1-1.75.73,1.75,1.75,0,0,1-1.84-1.74,1.72,1.72,0,0,1,1.84-1.73,2.21,2.21,0,0,1,1.75.71v-.94c0-.71-.57-1.12-1.33-1.12A2.1,2.1,0,0,0,163,75l-.38-.56a2.75,2.75,0,0,1,2.11-.87c1.11,0,2,.5,2,1.77v3.62Zm0-1.11v-1a1.76,1.76,0,0,0-1.45-.66,1.16,1.16,0,1,0,0,2.3A1.75,1.75,0,0,0,166,77.81Z"/><path class="cls-6" d="M168.43,78.92V73.66h.82v.85a2.23,2.23,0,0,1,1.76-1v.84a1.11,1.11,0,0,0-.33,0,2,2,0,0,0-1.43.84v3.73Z"/><path class="cls-6" d="M136.06,232.77l.54-.69a3.08,3.08,0,0,0,2.29,1c1.29,0,1.71-.69,1.71-1.25,0-1.88-4.31-.84-4.31-3.43,0-1.2,1.07-2,2.5-2a3.42,3.42,0,0,1,2.58,1l-.54.67a2.8,2.8,0,0,0-2.11-.88c-.87,0-1.49.47-1.49,1.16,0,1.64,4.31.7,4.31,3.41,0,1.06-.72,2.14-2.69,2.14A3.62,3.62,0,0,1,136.06,232.77Z"/><path class="cls-6" d="M142.55,231.15a2.63,2.63,0,0,1,2.6-2.76,2.56,2.56,0,0,1,2.53,2.83v.2h-4.27a1.87,1.87,0,0,0,1.9,1.83,2.35,2.35,0,0,0,1.63-.67l.39.53a2.85,2.85,0,0,1-2.1.81A2.61,2.61,0,0,1,142.55,231.15Zm2.59-2.08a1.76,1.76,0,0,0-1.73,1.75h3.46A1.7,1.7,0,0,0,145.14,229.07Z"/><path class="cls-6" d="M149,233.79v-5.27h.81v.85a2.27,2.27,0,0,1,1.76-1v.84a1.61,1.61,0,0,0-.33,0,2,2,0,0,0-1.43.84v3.73Z"/><path class="cls-6" d="M152.45,227.23a.56.56,0,0,1,.55-.56.57.57,0,0,1,.56.56.56.56,0,0,1-.56.54A.55.55,0,0,1,152.45,227.23Zm.15,6.56v-5.27h.81v5.27Z"/><path class="cls-6" d="M155.28,233.79v-4.55h-.87v-.72h.87v-.4a1.5,1.5,0,0,1,1.53-1.71,1.56,1.56,0,0,1,1.11.4l-.34.54a.94.94,0,0,0-.65-.27c-.54,0-.83.37-.83,1v.4h1.07v.72H156.1v4.55Z"/><path class="cls-6" d="M167.85,245.24V238h2.49a3.64,3.64,0,1,1,0,7.27Zm5.28-3.63a2.65,2.65,0,0,0-2.79-2.83h-1.58v5.65h1.58A2.67,2.67,0,0,0,173.13,241.61Z"/><path class="cls-6" d="M175.15,242.6a2.64,2.64,0,0,1,2.6-2.76,2.56,2.56,0,0,1,2.53,2.83v.21H176a1.86,1.86,0,0,0,1.9,1.82,2.27,2.27,0,0,0,1.62-.67l.4.54a2.9,2.9,0,0,1-2.1.8A2.61,2.61,0,0,1,175.15,242.6Zm2.58-2.08a1.76,1.76,0,0,0-1.72,1.76h3.46A1.71,1.71,0,0,0,177.73,240.52Z"/><path class="cls-6" d="M181.14,244.54l.42-.59a2.38,2.38,0,0,0,1.74.76c.8,0,1.24-.38,1.24-.91,0-1.27-3.26-.49-3.26-2.44,0-.82.71-1.52,2-1.52a2.63,2.63,0,0,1,1.95.77l-.38.56a2,2,0,0,0-1.57-.66c-.72,0-1.16.36-1.16.83,0,1.15,3.26.39,3.26,2.44,0,.88-.71,1.59-2.08,1.59A2.77,2.77,0,0,1,181.14,244.54Z"/><path class="cls-6" d="M186.36,242.6a2.6,2.6,0,0,1,2.63-2.76,2.26,2.26,0,0,1,1.93.92l-.55.5a1.55,1.55,0,0,0-1.34-.69,2,2,0,0,0,0,4.07,1.57,1.57,0,0,0,1.34-.69l.55.51a2.25,2.25,0,0,1-1.93.91A2.61,2.61,0,0,1,186.36,242.6Z"/><path class="cls-6" d="M191.76,242.6a2.64,2.64,0,0,1,2.59-2.76,2.56,2.56,0,0,1,2.53,2.83v.21h-4.26a1.86,1.86,0,0,0,1.9,1.82,2.27,2.27,0,0,0,1.62-.67l.4.54a2.9,2.9,0,0,1-2.1.8A2.61,2.61,0,0,1,191.76,242.6Zm2.58-2.08a1.76,1.76,0,0,0-1.72,1.76h3.46A1.71,1.71,0,0,0,194.34,240.52Z"/><path class="cls-6" d="M201.76,245.24V241.8c0-.93-.47-1.23-1.18-1.23a2.07,2.07,0,0,0-1.56.82v3.85h-.81V240H199v.77a2.6,2.6,0,0,1,1.88-.9,1.5,1.5,0,0,1,1.68,1.71v3.69Z"/><path class="cls-6" d="M208,245.24v-.78a2.23,2.23,0,0,1-1.78.91c-1.37,0-2.34-1-2.34-2.76s1-2.77,2.34-2.77a2.2,2.2,0,0,1,1.78.93V238h.82v7.27Zm0-1.43v-2.38a2,2,0,0,0-1.58-.86c-1.06,0-1.69.88-1.69,2s.63,2,1.69,2A2,2,0,0,0,208,243.81Z"/><path class="cls-6" d="M210.18,242.6a2.64,2.64,0,0,1,2.6-2.76,2.56,2.56,0,0,1,2.53,2.83v.21H211a1.86,1.86,0,0,0,1.9,1.82,2.27,2.27,0,0,0,1.62-.67l.4.54a2.9,2.9,0,0,1-2.1.8A2.61,2.61,0,0,1,210.18,242.6Zm2.58-2.08a1.76,1.76,0,0,0-1.72,1.76h3.46A1.71,1.71,0,0,0,212.76,240.52Z"/><path class="cls-6" d="M216.63,245.24V240h.81v.86a2.24,2.24,0,0,1,1.76-1v.84a1.11,1.11,0,0,0-.33,0,2,2,0,0,0-1.43.84v3.73Z"/><path class="cls-6" d="M278.55,242.52v-7.28h.91v6.47h3.38v.81Z"/><path class="cls-6" d="M283.55,239.88a2.61,2.61,0,1,1,2.6,2.77A2.58,2.58,0,0,1,283.55,239.88Zm4.35,0a1.77,1.77,0,1,0-1.75,2A1.83,1.83,0,0,0,287.9,239.88Z"/><path class="cls-6" d="M289.78,239.88a2.61,2.61,0,1,1,2.61,2.77A2.59,2.59,0,0,1,289.78,239.88Zm4.36,0a1.77,1.77,0,1,0-1.75,2A1.84,1.84,0,0,0,294.14,239.88Z"/><path class="cls-6" d="M297.15,241.72v2.8h-.82v-7.27h.82V238a2.19,2.19,0,0,1,1.77-.91c1.39,0,2.35,1,2.35,2.76s-1,2.77-2.35,2.77A2.14,2.14,0,0,1,297.15,241.72Zm3.26-1.84c0-1.17-.64-2-1.69-2a1.93,1.93,0,0,0-1.57.84v2.37a1.94,1.94,0,0,0,1.57.86C299.77,241.92,300.41,241,300.41,239.88Z"/><path class="cls-6" d="M368,244.15v-7.27h3.24a1.84,1.84,0,0,1,2,1.85A1.65,1.65,0,0,1,372,240.4a1.82,1.82,0,0,1,1.42,1.79,1.89,1.89,0,0,1-2.1,2Zm4.34-5.29a1.14,1.14,0,0,0-1.25-1.18h-2.18V240h2.18A1.13,1.13,0,0,0,372.32,238.86Zm.14,3.23a1.23,1.23,0,0,0-1.35-1.25h-2.22v2.5h2.22A1.2,1.2,0,0,0,372.46,242.09Z"/><path class="cls-6" d="M374.81,244.15v-5.27h.82v.85a2.23,2.23,0,0,1,1.75-.95v.83a1.55,1.55,0,0,0-.33,0,1.93,1.93,0,0,0-1.42.84v3.73Z"/><path class="cls-6" d="M381.7,244.15v-.6a2.29,2.29,0,0,1-1.74.73,1.76,1.76,0,0,1-1.85-1.74A1.73,1.73,0,0,1,380,240.8a2.19,2.19,0,0,1,1.74.72v-1c0-.7-.57-1.11-1.33-1.11a2.09,2.09,0,0,0-1.61.73l-.39-.56a2.78,2.78,0,0,1,2.11-.88c1.11,0,2,.5,2,1.78v3.62Zm0-1.11v-1a1.76,1.76,0,0,0-1.45-.66,1.16,1.16,0,1,0,0,2.3A1.78,1.78,0,0,0,381.7,243Z"/><path class="cls-6" d="M383.85,241.51a2.6,2.6,0,0,1,2.63-2.76,2.27,2.27,0,0,1,1.93.92l-.55.5a1.56,1.56,0,0,0-1.34-.69,2,2,0,0,0,0,4.07,1.58,1.58,0,0,0,1.34-.69l.55.51a2.27,2.27,0,0,1-1.93.91A2.61,2.61,0,0,1,383.85,241.51Z"/><path class="cls-6" d="M393.14,244.15l-1.9-2.37-.87.87v1.5h-.82v-7.27h.82v4.81l2.77-2.81h1l-2.34,2.39,2.35,2.88Z"/><path class="cls-6" d="M394.82,241.51a2.64,2.64,0,0,1,2.6-2.76,2.56,2.56,0,0,1,2.53,2.83v.2h-4.27a1.87,1.87,0,0,0,1.9,1.83,2.27,2.27,0,0,0,1.62-.67l.4.53a2.85,2.85,0,0,1-2.1.81A2.61,2.61,0,0,1,394.82,241.51Zm2.59-2.08a1.76,1.76,0,0,0-1.73,1.76h3.46A1.71,1.71,0,0,0,397.41,239.43Z"/><path class="cls-6" d="M401.43,243.05V239.6h-.87v-.72h.87v-1.44h.82v1.44h1.07v.72h-1.07v3.28c0,.39.17.67.53.67a.8.8,0,0,0,.56-.22l.24.61a1.32,1.32,0,0,1-1,.34A1.08,1.08,0,0,1,401.43,243.05Z"/><path class="cls-6" d="M464.34,200.59l.53-.68a3.1,3.1,0,0,0,2.29,1c1.3,0,1.71-.7,1.71-1.25,0-1.88-4.3-.84-4.3-3.44,0-1.2,1.06-2,2.49-2a3.44,3.44,0,0,1,2.59,1l-.55.66A2.77,2.77,0,0,0,467,195c-.87,0-1.5.47-1.5,1.16,0,1.63,4.31.7,4.31,3.41,0,1.06-.72,2.14-2.68,2.14A3.58,3.58,0,0,1,464.34,200.59Z"/><path class="cls-6" d="M471.11,200.52v-3.45h-.87v-.72h.87v-1.44h.82v1.44H473v.72h-1.07v3.27c0,.39.17.68.53.68a.8.8,0,0,0,.56-.22l.24.61a1.32,1.32,0,0,1-1,.34A1.08,1.08,0,0,1,471.11,200.52Z"/><path class="cls-6" d="M473.85,199a2.63,2.63,0,0,1,2.59-2.76A2.56,2.56,0,0,1,479,199v.21h-4.26a1.85,1.85,0,0,0,1.9,1.82,2.3,2.3,0,0,0,1.62-.66l.39.53a2.86,2.86,0,0,1-2.09.81A2.61,2.61,0,0,1,473.85,199Zm2.58-2.08a1.75,1.75,0,0,0-1.72,1.75h3.46A1.72,1.72,0,0,0,476.43,196.9Z"/><path class="cls-6" d="M486.65,201.62V198c0-.66-.29-1.09-1-1.09a1.84,1.84,0,0,0-1.4.81v3.86h-.81V198c0-.66-.29-1.09-1-1.09a1.82,1.82,0,0,0-1.39.82v3.85h-.82v-5.27h.82v.76a2.31,2.31,0,0,1,1.7-.89,1.35,1.35,0,0,1,1.42,1,2.2,2.2,0,0,1,1.77-1c1,0,1.47.53,1.47,1.59v3.81Z"/><path class="cls-6" d="M338.53,231.06v-7.27h3.24a1.83,1.83,0,0,1,2,1.85,1.65,1.65,0,0,1-1.27,1.67A1.82,1.82,0,0,1,344,229.1a1.89,1.89,0,0,1-2.1,2Zm4.34-5.29a1.14,1.14,0,0,0-1.25-1.17h-2.18v2.34h2.18A1.13,1.13,0,0,0,342.87,225.77ZM343,229a1.24,1.24,0,0,0-1.36-1.25h-2.22v2.51h2.22A1.21,1.21,0,0,0,343,229Z"/><path class="cls-6" d="M345.06,228.42a2.61,2.61,0,1,1,2.6,2.77A2.58,2.58,0,0,1,345.06,228.42Zm4.35,0a1.77,1.77,0,1,0-1.75,2A1.83,1.83,0,0,0,349.41,228.42Z"/><path class="cls-6" d="M356.16,231.06l-1.38-4.23-1.37,4.23h-.82l-1.68-5.26h.85l1.29,4.2,1.39-4.2h.69l1.39,4.2,1.28-4.2h.86L357,231.06Z"/><path class="cls-6" d="M359.61,231.06v-7.27h.81v7.27Z"/><path class="cls-6" d="M171.13,107.18v-4.45h.9v4.43a2.06,2.06,0,1,0,4.12,0v-4.43h.91v4.44a3,3,0,1,1-5.93,0Z"/><path class="cls-6" d="M179.55,109.21V112h-.82v-7.27h.82v.78a2.19,2.19,0,0,1,1.77-.91c1.39,0,2.35,1,2.35,2.76s-1,2.77-2.35,2.77A2.14,2.14,0,0,1,179.55,109.21Zm3.26-1.84c0-1.17-.64-2-1.69-2a1.93,1.93,0,0,0-1.57.84v2.38a2,2,0,0,0,1.57.85C182.17,109.41,182.81,108.53,182.81,107.37Z"/><path class="cls-6" d="M185.78,109.21V112H185v-7.27h.81v.78a2.21,2.21,0,0,1,1.78-.91c1.39,0,2.35,1,2.35,2.76s-1,2.77-2.35,2.77A2.17,2.17,0,0,1,185.78,109.21Zm3.26-1.84c0-1.17-.63-2-1.69-2a2,2,0,0,0-1.57.84v2.38a2,2,0,0,0,1.57.85C188.41,109.41,189,108.53,189,107.37Z"/><path class="cls-6" d="M190.9,107.37a2.63,2.63,0,0,1,2.59-2.76,2.55,2.55,0,0,1,2.53,2.82v.21h-4.26a1.86,1.86,0,0,0,1.9,1.82,2.27,2.27,0,0,0,1.62-.67l.39.54a2.86,2.86,0,0,1-2.09.81A2.61,2.61,0,0,1,190.9,107.37Zm2.58-2.09a1.76,1.76,0,0,0-1.72,1.76h3.46A1.71,1.71,0,0,0,193.48,105.28Z"/><path class="cls-6" d="M197.34,110v-5.27h.82v.85a2.24,2.24,0,0,1,1.76-1v.84a1.61,1.61,0,0,0-.33,0,1.92,1.92,0,0,0-1.43.84V110Z"/><path class="cls-6" d="M200.64,107.37a2.6,2.6,0,0,1,2.63-2.76,2.28,2.28,0,0,1,1.93.91l-.55.51a1.57,1.57,0,0,0-1.34-.69,2,2,0,0,0,0,4.07,1.59,1.59,0,0,0,1.34-.69l.55.5a2.29,2.29,0,0,1-1.93.92A2.6,2.6,0,0,1,200.64,107.37Z"/><path class="cls-6" d="M209.63,110v-.6a2.26,2.26,0,0,1-1.74.73,1.76,1.76,0,0,1-1.84-1.75,1.72,1.72,0,0,1,1.84-1.73,2.19,2.19,0,0,1,1.74.72v-.95c0-.71-.56-1.11-1.33-1.11a2.09,2.09,0,0,0-1.61.73l-.38-.57a2.75,2.75,0,0,1,2.1-.87c1.12,0,2,.5,2,1.78V110Zm0-1.12v-1a1.74,1.74,0,0,0-1.45-.65,1.16,1.16,0,1,0,0,2.3A1.75,1.75,0,0,0,209.63,108.89Z"/><path class="cls-6" d="M211.63,109.31l.43-.59a2.37,2.37,0,0,0,1.73.75c.81,0,1.24-.38,1.24-.9,0-1.28-3.26-.49-3.26-2.45,0-.81.71-1.51,2-1.51a2.7,2.7,0,0,1,1.95.76l-.38.57a2.08,2.08,0,0,0-1.57-.67c-.72,0-1.17.36-1.17.83,0,1.16,3.26.39,3.26,2.44,0,.89-.71,1.6-2.07,1.6A2.83,2.83,0,0,1,211.63,109.31Z"/><path class="cls-6" d="M216.85,107.37a2.63,2.63,0,0,1,2.6-2.76,2.56,2.56,0,0,1,2.53,2.82v.21h-4.26a1.85,1.85,0,0,0,1.89,1.82,2.31,2.31,0,0,0,1.63-.67l.39.54a2.86,2.86,0,0,1-2.09.81A2.62,2.62,0,0,1,216.85,107.37Zm2.59-2.09a1.76,1.76,0,0,0-1.72,1.76h3.45A1.7,1.7,0,0,0,219.44,105.28Z"/><path class="cls-6" d="M245.81,100.1a3.64,3.64,0,0,1,3.74-3.76,3.25,3.25,0,0,1,2.76,1.44l-.76.43a2.47,2.47,0,0,0-2-1.06,3,3,0,0,0,0,5.91,2.45,2.45,0,0,0,2-1.06l.77.43a3.31,3.31,0,0,1-2.77,1.44A3.64,3.64,0,0,1,245.81,100.1Z"/><path class="cls-6" d="M253.14,101.1a2.61,2.61,0,1,1,2.61,2.77A2.58,2.58,0,0,1,253.14,101.1Zm4.35,0a1.77,1.77,0,1,0-1.74,2A1.83,1.83,0,0,0,257.49,101.1Z"/><path class="cls-6" d="M263.24,103.73V103a2.59,2.59,0,0,1-1.88.88,1.48,1.48,0,0,1-1.68-1.68V98.47h.82v3.47c0,.92.47,1.19,1.18,1.19a2,2,0,0,0,1.56-.79V98.47h.82v5.26Z"/><path class="cls-6" d="M269.25,103.73v-3.44c0-.93-.47-1.22-1.18-1.22a2,2,0,0,0-1.56.82v3.84h-.82V98.47h.82v.76a2.6,2.6,0,0,1,1.88-.89,1.5,1.5,0,0,1,1.68,1.7v3.69Z"/><path class="cls-6" d="M271.87,102.63V99.19H271v-.72h.88V97h.81v1.44h1.07v.72h-1.07v3.27c0,.39.18.67.54.67a.77.77,0,0,0,.55-.21l.24.61a1.35,1.35,0,0,1-1,.34C272.26,103.87,271.87,103.42,271.87,102.63Z"/><path class="cls-6" d="M274.6,101.1a2.63,2.63,0,0,1,2.6-2.76,2.56,2.56,0,0,1,2.53,2.82v.21h-4.27a1.86,1.86,0,0,0,1.9,1.82,2.31,2.31,0,0,0,1.63-.67l.39.54a2.86,2.86,0,0,1-2.09.81A2.62,2.62,0,0,1,274.6,101.1ZM277.19,99a1.76,1.76,0,0,0-1.73,1.76h3.46A1.7,1.7,0,0,0,277.19,99Z"/><path class="cls-6" d="M281.05,103.73V98.47h.82v.85a2.21,2.21,0,0,1,1.75-1v.84a1.55,1.55,0,0,0-.33,0,1.9,1.9,0,0,0-1.42.84v3.72Z"/><path class="cls-6" d="M315.2,107.34l.53-.68a3.1,3.1,0,0,0,2.29,1c1.3,0,1.71-.69,1.71-1.25,0-1.88-4.31-.84-4.31-3.44,0-1.2,1.07-2,2.5-2a3.45,3.45,0,0,1,2.59,1l-.55.67a2.78,2.78,0,0,0-2.1-.88c-.88,0-1.5.47-1.5,1.16,0,1.64,4.31.7,4.31,3.41,0,1.06-.72,2.14-2.68,2.14A3.58,3.58,0,0,1,315.2,107.34Z"/><path class="cls-6" d="M325.56,108.37V104.9c0-.92-.48-1.2-1.19-1.2a2,2,0,0,0-1.56.82v3.85H322V101.1h.82v2.77a2.6,2.6,0,0,1,1.88-.9,1.48,1.48,0,0,1,1.68,1.68v3.72Z"/><path class="cls-6" d="M327.7,105.73a2.61,2.61,0,1,1,2.61,2.77A2.59,2.59,0,0,1,327.7,105.73Zm4.36,0a1.77,1.77,0,1,0-1.75,2A1.84,1.84,0,0,0,332.06,105.73Z"/><path class="cls-6" d="M337.8,108.37v-.74a2.56,2.56,0,0,1-1.87.87,1.48,1.48,0,0,1-1.68-1.68V103.1h.82v3.47c0,.93.47,1.2,1.17,1.2a2,2,0,0,0,1.56-.8V103.1h.82v5.27Z"/><path class="cls-6" d="M340.26,108.37V101.1h.82v7.27Z"/><path class="cls-6" d="M346.53,108.37v-.79a2.21,2.21,0,0,1-1.78.92c-1.37,0-2.34-1-2.34-2.76s1-2.77,2.34-2.77a2.21,2.21,0,0,1,1.78.93v-2.8h.82v7.27Zm0-1.43v-2.39a2,2,0,0,0-1.58-.85c-1.06,0-1.69.87-1.69,2s.63,2,1.69,2A2,2,0,0,0,346.53,106.94Z"/><path class="cls-6" d="M348.68,105.73a2.63,2.63,0,0,1,2.59-2.76,2.56,2.56,0,0,1,2.53,2.83v.2h-4.26a1.85,1.85,0,0,0,1.9,1.82,2.3,2.3,0,0,0,1.62-.66l.39.53a2.83,2.83,0,0,1-2.09.81A2.61,2.61,0,0,1,348.68,105.73Zm2.58-2.08a1.75,1.75,0,0,0-1.72,1.75H353A1.72,1.72,0,0,0,351.26,103.65Z"/><path class="cls-6" d="M355.12,108.37V103.1h.82V104a2.27,2.27,0,0,1,1.76-1v.84a1.61,1.61,0,0,0-.33,0,1.92,1.92,0,0,0-1.43.84v3.73Z"/><path class="cls-6" d="M392.53,126.33l-.64-1.61h-3.62l-.64,1.61h-1l2.92-7.27h1.13l2.93,7.27ZM390.08,120l-1.55,3.91h3.09Z"/><path class="cls-6" d="M394,125.64l.42-.59a2.41,2.41,0,0,0,1.74.75c.8,0,1.24-.38,1.24-.9,0-1.28-3.26-.5-3.26-2.45,0-.81.71-1.51,2-1.51a2.7,2.7,0,0,1,2,.76l-.39.57a2,2,0,0,0-1.57-.67c-.72,0-1.16.36-1.16.83,0,1.16,3.26.39,3.26,2.44,0,.89-.71,1.6-2.07,1.6A2.82,2.82,0,0,1,394,125.64Z"/><path class="cls-6" d="M399.25,123.7a2.6,2.6,0,0,1,2.63-2.76,2.25,2.25,0,0,1,1.93.91l-.54.5a1.59,1.59,0,0,0-1.35-.68,2,2,0,0,0,0,4.07,1.6,1.6,0,0,0,1.35-.69l.54.5a2.26,2.26,0,0,1-1.93.92A2.61,2.61,0,0,1,399.25,123.7Z"/><path class="cls-6" d="M404.65,123.7a2.63,2.63,0,0,1,2.6-2.76,2.56,2.56,0,0,1,2.53,2.82V124h-4.27a1.86,1.86,0,0,0,1.9,1.82,2.27,2.27,0,0,0,1.62-.67l.4.54a2.91,2.91,0,0,1-2.1.81A2.61,2.61,0,0,1,404.65,123.7Zm2.59-2.09a1.76,1.76,0,0,0-1.73,1.76H409A1.7,1.7,0,0,0,407.24,121.61Z"/><path class="cls-6" d="M414.65,126.33v-3.44c0-.93-.47-1.22-1.18-1.22a2,2,0,0,0-1.56.82v3.84h-.81v-5.26h.81v.76a2.65,2.65,0,0,1,1.88-.89,1.5,1.5,0,0,1,1.68,1.7v3.69Z"/><path class="cls-6" d="M420.92,126.33v-.78a2.22,2.22,0,0,1-1.78.92c-1.37,0-2.34-1-2.34-2.76s1-2.77,2.34-2.77a2.21,2.21,0,0,1,1.78.92v-2.8h.82v7.27Zm0-1.42v-2.39a2,2,0,0,0-1.58-.85c-1.06,0-1.69.87-1.69,2s.63,2,1.69,2A2,2,0,0,0,420.92,124.91Z"/><path class="cls-6" d="M423.07,123.7a2.63,2.63,0,0,1,2.6-2.76,2.56,2.56,0,0,1,2.53,2.82V124h-4.27a1.86,1.86,0,0,0,1.9,1.82,2.31,2.31,0,0,0,1.63-.67l.39.54a2.89,2.89,0,0,1-2.1.81A2.61,2.61,0,0,1,423.07,123.7Zm2.59-2.09a1.76,1.76,0,0,0-1.73,1.76h3.46A1.7,1.7,0,0,0,425.66,121.61Z"/><path class="cls-6" d="M429.52,126.33v-5.26h.81v.85a2.24,2.24,0,0,1,1.76-1v.84a1.61,1.61,0,0,0-.33,0,1.92,1.92,0,0,0-1.43.84v3.72Z"/><path class="cls-6" d="M290,140.41v-6.47h-2.3v-.81h5.52v.81h-2.32v6.47Z"/><path class="cls-6" d="M292.85,137.77a2.63,2.63,0,0,1,2.6-2.76,2.56,2.56,0,0,1,2.53,2.82V138h-4.26a1.85,1.85,0,0,0,1.89,1.82,2.34,2.34,0,0,0,1.63-.66l.39.53a2.86,2.86,0,0,1-2.09.81A2.62,2.62,0,0,1,292.85,137.77Zm2.59-2.09a1.76,1.76,0,0,0-1.72,1.76h3.45A1.71,1.71,0,0,0,295.44,135.68Z"/><path class="cls-6" d="M299.3,140.41v-5.27h.82V136a2.21,2.21,0,0,1,1.75-1v.84a1.45,1.45,0,0,0-.32,0,1.9,1.9,0,0,0-1.43.84v3.73Z"/><path class="cls-6" d="M309.26,140.41v-3.58c0-.67-.3-1.09-1-1.09a1.83,1.83,0,0,0-1.4.81v3.86h-.82v-3.58c0-.67-.28-1.09-1-1.09a1.82,1.82,0,0,0-1.38.82v3.85h-.82v-5.27h.82v.76a2.24,2.24,0,0,1,1.7-.89,1.36,1.36,0,0,1,1.42,1,2.2,2.2,0,0,1,1.76-1c1,0,1.47.53,1.47,1.59v3.81Z"/><path class="cls-6" d="M311.57,133.84a.55.55,0,1,1,.54.55A.55.55,0,0,1,311.57,133.84Zm.14,6.57v-5.27h.82v5.27Z"/><path class="cls-6" d="M317.72,140.41V137c0-.93-.47-1.22-1.18-1.22a2,2,0,0,0-1.56.82v3.85h-.82v-5.27H315v.76a2.63,2.63,0,0,1,1.88-.89,1.5,1.5,0,0,1,1.68,1.7v3.7Z"/><path class="cls-6" d="M323.47,140.41v-.6a2.29,2.29,0,0,1-1.75.73,1.76,1.76,0,0,1-1.84-1.75,1.72,1.72,0,0,1,1.84-1.73,2.22,2.22,0,0,1,1.75.72v-.95c0-.71-.57-1.11-1.33-1.11a2.1,2.1,0,0,0-1.62.73l-.38-.57a2.75,2.75,0,0,1,2.11-.87c1.11,0,2,.5,2,1.78v3.62Zm0-1.12v-1a1.79,1.79,0,0,0-1.45-.65,1.16,1.16,0,1,0,0,2.3A1.77,1.77,0,0,0,323.47,139.29Z"/><path class="cls-6" d="M325.92,140.41v-7.28h.82v7.28Z"/><path class="cls-6" d="M198.66,142.18v-7.27h.91v6.46H203v.81Z"/><path class="cls-6" d="M203.66,139.54a2.61,2.61,0,1,1,2.6,2.77A2.58,2.58,0,0,1,203.66,139.54Zm4.35,0a1.77,1.77,0,1,0-1.75,2A1.83,1.83,0,0,0,208,139.54Z"/><path class="cls-6" d="M214.76,142.18,213.39,138,212,142.18h-.82l-1.67-5.27h.85l1.28,4.2,1.39-4.2h.7l1.38,4.2,1.29-4.2h.85l-1.68,5.27Z"/><path class="cls-6" d="M217.9,139.54a2.63,2.63,0,0,1,2.6-2.76,2.56,2.56,0,0,1,2.53,2.83v.2h-4.27a1.86,1.86,0,0,0,1.9,1.82,2.34,2.34,0,0,0,1.63-.66l.39.53a2.85,2.85,0,0,1-2.1.81A2.61,2.61,0,0,1,217.9,139.54Zm2.59-2.08a1.76,1.76,0,0,0-1.73,1.75h3.46A1.7,1.7,0,0,0,220.49,137.46Z"/><path class="cls-6" d="M224.35,142.18v-5.27h.82v.85a2.24,2.24,0,0,1,1.75-1v.84a1.61,1.61,0,0,0-.33,0,1.88,1.88,0,0,0-1.42.84v3.73Z"/><path class="cls-6" d="M227.64,139.54a2.6,2.6,0,0,1,2.63-2.76,2.24,2.24,0,0,1,1.93.92l-.55.5a1.56,1.56,0,0,0-1.34-.69,2,2,0,0,0,0,4.07,1.58,1.58,0,0,0,1.34-.69l.55.5a2.24,2.24,0,0,1-1.93.92A2.61,2.61,0,0,1,227.64,139.54Z"/><path class="cls-6" d="M236.64,142.18v-.6a2.29,2.29,0,0,1-1.75.73,1.76,1.76,0,0,1-1.84-1.75,1.73,1.73,0,0,1,1.84-1.73,2.22,2.22,0,0,1,1.75.72v-1c0-.71-.57-1.11-1.33-1.11a2.11,2.11,0,0,0-1.62.73l-.38-.57a2.77,2.77,0,0,1,2.11-.87c1.11,0,2,.5,2,1.78v3.62Zm0-1.11v-1a1.78,1.78,0,0,0-1.45-.65,1.16,1.16,0,1,0,0,2.3A1.78,1.78,0,0,0,236.64,141.07Z"/><path class="cls-6" d="M238.63,141.48l.43-.59a2.35,2.35,0,0,0,1.73.75c.81,0,1.25-.38,1.25-.9,0-1.28-3.26-.49-3.26-2.44,0-.82.7-1.52,2-1.52a2.68,2.68,0,0,1,1.95.76l-.38.57a2.07,2.07,0,0,0-1.57-.66c-.72,0-1.17.36-1.17.82,0,1.16,3.26.4,3.26,2.45,0,.88-.71,1.59-2.07,1.59A2.81,2.81,0,0,1,238.63,141.48Z"/><path class="cls-6" d="M243.86,139.54a2.63,2.63,0,0,1,2.59-2.76,2.55,2.55,0,0,1,2.53,2.83v.2h-4.26a1.86,1.86,0,0,0,1.9,1.82,2.3,2.3,0,0,0,1.62-.66l.39.53a2.83,2.83,0,0,1-2.09.81A2.61,2.61,0,0,1,243.86,139.54Zm2.58-2.08a1.75,1.75,0,0,0-1.72,1.75h3.46A1.71,1.71,0,0,0,246.44,137.46Z"/><line class="cls-5" x1="181.4" y1="148.83" x2="191.48" y2="113.11"/><line class="cls-5" x1="458.14" y1="176.91" x2="473.41" y2="192.18"/><line class="cls-5" x1="156.04" y1="187.54" x2="148.95" y2="224.9"/><line class="cls-5" x1="193.67" y1="201.18" x2="193.67" y2="236.62"/><line class="cls-5" x1="289.37" y1="198.72" x2="289.37" y2="234.17"/><line class="cls-5" x1="385.07" y1="201.18" x2="385.07" y2="236.62"/><line class="cls-5" x1="349.9" y1="186.73" x2="349.9" y2="222.17"/><g id="freepik--Character--inject-233"><path class="cls-7" d="M541.22,139.1a1.88,1.88,0,0,1,.65-1,4.58,4.58,0,0,1,2.79-.7,11.81,11.81,0,0,0,1.12-3.68,2.32,2.32,0,0,1-1.31-.37.51.51,0,0,1-.21-.06,1.85,1.85,0,0,1-.44-2.66,5.25,5.25,0,0,1,2.55-1.63,8.61,8.61,0,0,0-2,.69c-.69.21-1.61,0-1.69-.69a1.5,1.5,0,0,1,.11-.63l.39-1.24a1.41,1.41,0,0,1,.55-.86,3.34,3.34,0,0,1,.69-.18c.79-.2,1.2-1.16,2-1.39a3.62,3.62,0,0,1,1.75.26c.58.14,1.36,0,1.54-.55a5.59,5.59,0,0,1-2-1.68,1.9,1.9,0,0,1,.19-2.41,2.78,2.78,0,0,1,2-.41c.76,0,1.72.21,1.92,1a2,2,0,0,1,2.42,1.44l0,.12,2-.19c-.55-.6-1.34-1-1.81-1.61s-.39-1.84.4-2c.29-.07.61,0,.88-.08s.36-.26.58-.26a.8.8,0,0,1,.42.16l4.19,2.72c-.38-.87-.75-1.74-1.13-2.62s-.62-1.92.11-2.41,1.71.21,1.86,1a1.39,1.39,0,0,1,1.63,1.11.68.68,0,0,1,0,.14,1.39,1.39,0,0,1,1.61,2.09,3.9,3.9,0,0,1,2,.6,1.2,1.2,0,0,1,1.31-1.07,1.16,1.16,0,0,1,.62.24,2.05,2.05,0,0,1,.31-1.18.69.69,0,0,1,1-.22l.12.09a1.38,1.38,0,0,1,1-1.68,1.4,1.4,0,0,1,1.24.29l.69-.83a1.82,1.82,0,0,1,1.75,1c.29.64-.2,1.57-.9,1.5.49,0,.38.78.09,1.19L573,122a1.55,1.55,0,0,1,1.91-.17,1.2,1.2,0,0,1,1.69,0l0,0a1,1,0,0,1,1.34-.26,1,1,0,0,1,.4.56c.12-.32.57-.34.91-.31a2.33,2.33,0,0,1,1.39.47c.36.35.35,1.08-.11,1.25.42-.23,1,.23,1,.7a1.75,1.75,0,0,1-.7,1.23,4.12,4.12,0,0,0-1,1,2,2,0,0,1,1.4-.29,5.2,5.2,0,0,1,2.52.5c.16-.34.63-.35,1-.28a6,6,0,0,1,3,1.63,1.38,1.38,0,0,1,.47,1.46,1.4,1.4,0,0,1-.56.49L585,131.68a7.3,7.3,0,0,1,3.66,2.59c.53.32,1.22.35,1.7.73s.44,1.4-.17,1.4a1.14,1.14,0,0,1,.33,1.32,1.32,1.32,0,0,1-.42.46,1.47,1.47,0,0,1-.29.32,2.17,2.17,0,0,1-.7.38,1.38,1.38,0,0,1-1.2.56,5.54,5.54,0,0,1,1.27,1.5,2.37,2.37,0,0,1,0,2.46.47.47,0,0,1-.1.1,1.17,1.17,0,0,1-.51.75,1,1,0,0,1,.1.65,2.61,2.61,0,0,1,1.52,3.37,2.64,2.64,0,0,1-.93,1.21c-.62.44-1.76.35-1.82-.4a2,2,0,0,1-1.54,1.13,2,2,0,0,1-.88,2.64l-.16.07a2.1,2.1,0,0,1,0,3,2,2,0,0,1-.71.48,1.61,1.61,0,1,1-3,1.2l-.06-.15a3.35,3.35,0,0,1-1.2,1.51,1.17,1.17,0,0,1-1.62-.37.16.16,0,0,1,0-.07,2.21,2.21,0,0,1-2.87,1.25,2.69,2.69,0,0,1-.38-.19,1.43,1.43,0,0,1-2.84.25l-3.69,0a12.53,12.53,0,0,1-2.44-.18,6.61,6.61,0,0,1-2.79-1.29,1.54,1.54,0,0,0-2-.35,6,6,0,0,1-5.67-1.34,2.83,2.83,0,0,0-.75-.59,2.5,2.5,0,0,0-1.08-.16,10.65,10.65,0,0,1-2.69-.38,2.87,2.87,0,0,1-1.89-1.25c-.35-.7.06-1.76.84-1.74a1.7,1.7,0,0,0-.41-1.4,1,1,0,0,0-1.4,0,.69.69,0,0,0,0,1,.73.73,0,0,0,.33.19,1.49,1.49,0,0,1-2.15-1.24,2,2,0,0,1,2-1.86,4.68,4.68,0,0,1-.06-2.23,1.64,1.64,0,0,1-2.23.25,2.82,2.82,0,0,1-1.83,1.31,1.68,1.68,0,0,1-1.87-1,1.22,1.22,0,0,1,.82-1.52,1.27,1.27,0,0,1,.34,0,1.46,1.46,0,0,1,.67-2,1.51,1.51,0,0,1,.62-.14,2.27,2.27,0,0,1,1.4-2.41,1.19,1.19,0,0,1-1.61-.47,1.11,1.11,0,0,1-.09-.19c-.46.74-1.61.56-2.37.12A1.58,1.58,0,0,1,541.22,139.1Z"/><path class="cls-8" d="M541.22,139.1a1,1,0,0,0-.05.3,1.37,1.37,0,0,0,.29.85,2.79,2.79,0,0,0,1.23.85,2.38,2.38,0,0,0,.95.16,1.17,1.17,0,0,0,1-.51h-.08a1.25,1.25,0,0,0,1.58.78l.19-.08,0-.1a2.31,2.31,0,0,0-1.43,2.47l.07-.07a1.38,1.38,0,0,0-1.27.69,1.44,1.44,0,0,0-.1,1.53l.07-.1a1.21,1.21,0,0,0-1.23.92,1.35,1.35,0,0,0,.62,1.53,2,2,0,0,0,1.77.17,3.16,3.16,0,0,0,1.45-1.23h-.13a1.74,1.74,0,0,0,2.37-.27l-.17-.07a4.76,4.76,0,0,0,.05,2.28l.09-.13a2.28,2.28,0,0,0-1.39.51,1.89,1.89,0,0,0-.7,1.33,1.59,1.59,0,0,0,.7,1.4,1.4,1.4,0,0,0,1.58.08l.24-.16-.29,0c-.28,0-.46-.39-.41-.7a.64.64,0,0,1,.7-.51,1,1,0,0,1,.84.51,1.8,1.8,0,0,1,.2,1l.11-.1a.91.91,0,0,0-.73.34,1.42,1.42,0,0,0-.33.7,1.46,1.46,0,0,0,.1.8,2,2,0,0,0,.49.63,3.77,3.77,0,0,0,1.4.7,10.4,10.4,0,0,0,1.55.32c1,.22,2.25-.2,2.93.76a5.85,5.85,0,0,0,3,1.53,6.28,6.28,0,0,0,1.73.11,9,9,0,0,0,1.69-.37,1.05,1.05,0,0,1,.76.08c.24.16.48.33.7.51a7.07,7.07,0,0,0,1.61,1,9.36,9.36,0,0,0,3.6.51l3.7.05-.14-.12a1.57,1.57,0,0,0,3.13-.28l-.23.12a2.36,2.36,0,0,0,3.26-.69,2.26,2.26,0,0,0,.22-.44h-.28a1.1,1.1,0,0,0,.79.66,1.56,1.56,0,0,0,1-.12,3.45,3.45,0,0,0,1.31-1.59H581a1.84,1.84,0,0,0,2.17,1.11,1.81,1.81,0,0,0,1.15-2.26l-.09.19a2.25,2.25,0,0,0,1.21-3,2.56,2.56,0,0,0-.51-.75l-.05.27a2.13,2.13,0,0,0,1.19-2.76,1.42,1.42,0,0,0-.08-.18l-.11.23a2.19,2.19,0,0,0,1.65-1.25l-.3-.06a.76.76,0,0,0,.25.51,1,1,0,0,0,.48.25,1.73,1.73,0,0,0,1-.08,2.77,2.77,0,0,0,1.22-3.62,2.85,2.85,0,0,0-1.53-1.39l.09.18a1.12,1.12,0,0,0-.1-.76l-.06.21a1.31,1.31,0,0,0,.58-.85v.07a2.3,2.3,0,0,0,.3-2.33A5.17,5.17,0,0,0,588,139.4l-.12.27a1.57,1.57,0,0,0,1.34-.62l-.09.06a2,2,0,0,0,1.1-.77l0,0a1.15,1.15,0,0,0,.57-1,1.27,1.27,0,0,0-.47-1.07l-.1.28a.62.62,0,0,0,.5-.25.93.93,0,0,0,.16-.51,1.18,1.18,0,0,0-.39-.93,12.21,12.21,0,0,0-1.72-.74l0,0a7.52,7.52,0,0,0-3.74-2.65l0,.29,1.23-.76.93-.58a7.16,7.16,0,0,0,.93-.62,1,1,0,0,0,.3-.56,1.21,1.21,0,0,0-.1-.62,2.55,2.55,0,0,0-.69-.9,5.92,5.92,0,0,0-2.94-1.5,1.47,1.47,0,0,0-.59,0,.69.69,0,0,0-.53.39l.22-.08a4.61,4.61,0,0,0-2-.5h-1a1.7,1.7,0,0,0-1,.33l.24.19c.3-.59,1-.9,1.46-1.57a1.17,1.17,0,0,0,.14-1.17,1,1,0,0,0-.44-.45.7.7,0,0,0-.66,0l.13.29a.76.76,0,0,0,.42-.46,1,1,0,0,0,0-.58,1.1,1.1,0,0,0-.29-.5,1.44,1.44,0,0,0-.48-.28,3.43,3.43,0,0,0-1-.21,1.63,1.63,0,0,0-.54,0,.62.62,0,0,0-.48.38l.3,0a1.12,1.12,0,0,0-1.35-.83,1.17,1.17,0,0,0-.69.48h.26a1.36,1.36,0,0,0-1.91,0l-.05,0h.2a1.7,1.7,0,0,0-2.09.18l.24.21,1-1.4a2,2,0,0,0,.43-.82,1.06,1.06,0,0,0,0-.5.56.56,0,0,0-.17-.26.51.51,0,0,0-.3-.1v.31a1,1,0,0,0,1-.61,1.29,1.29,0,0,0,0-1.15,2,2,0,0,0-1.9-1h-.07l0,0-.7.83h.21a1.54,1.54,0,0,0-2.18.2,1.51,1.51,0,0,0-.32,1.32l.26-.12a.74.74,0,0,0-.7-.24,1,1,0,0,0-.6.38,2.19,2.19,0,0,0-.33,1.25l.25-.1a1.33,1.33,0,0,0-1.88.19,1.28,1.28,0,0,0-.3.75l.22-.14a4.16,4.16,0,0,0-2.06-.61l.12.24a1.53,1.53,0,0,0-.31-2.13,1.51,1.51,0,0,0-1.48-.19l.2.13a1.5,1.5,0,0,0-1.54-1.44l-.29,0,.17.12a1.67,1.67,0,0,0-.55-1,1.47,1.47,0,0,0-1-.38,1.08,1.08,0,0,0-.88.7,1.83,1.83,0,0,0-.08,1.06,9,9,0,0,0,.69,1.88l.78,1.79.19-.17-2.58-1.68-1.25-.82a3.21,3.21,0,0,0-.7-.39.59.59,0,0,0-.45.07c-.12.06-.22.14-.31.18a2.06,2.06,0,0,1-.7.06,1,1,0,0,0-.73.35,1.6,1.6,0,0,0-.15,1.5,2.82,2.82,0,0,0,1,1.12,8.93,8.93,0,0,1,1.07.88l.07-.21-2,.2.13.1a2.1,2.1,0,0,0-2.42-1.7l-.18,0,.15.09a1.35,1.35,0,0,0-1-.88,5,5,0,0,0-1.27-.17,3.82,3.82,0,0,0-1.26.14,1.52,1.52,0,0,0-.94.85,2.28,2.28,0,0,0,.4,2.32,6.67,6.67,0,0,0,1.82,1.39l-.05-.12a.81.81,0,0,1-.7.51,2.1,2.1,0,0,1-.93-.08,5.39,5.39,0,0,0-1-.24,1.46,1.46,0,0,0-1,.19c-.57.35-.9.91-1.39,1.16-.25.14-.55.09-.87.22a1.13,1.13,0,0,0-.58.7c-.18.55-.34,1.09-.52,1.62a1,1,0,0,0,.07.87,1.12,1.12,0,0,0,.7.46,1.84,1.84,0,0,0,.81,0,3.81,3.81,0,0,0,.71-.4,4.09,4.09,0,0,1,1.36-.48v-.15a8.63,8.63,0,0,0-1.62.78,3,3,0,0,0-1.14,1.24,2.22,2.22,0,0,0-.11,1.52,1.4,1.4,0,0,0,1,1h0a2.35,2.35,0,0,0,1.34.38l-.12-.09a12,12,0,0,1-1.11,3.67h0a6.75,6.75,0,0,0-1.85.23,2.59,2.59,0,0,0-1.12.65,1.91,1.91,0,0,0-.4.65,1,1,0,0,0-.06.25,1.84,1.84,0,0,1,.49-.87,2.61,2.61,0,0,1,1.11-.63,6.67,6.67,0,0,1,1.83-.2h0a11.33,11.33,0,0,0,1.15-3.69v-.07h-.07a2.23,2.23,0,0,1-1.26-.36h0a1.26,1.26,0,0,1-.89-.9,2.13,2.13,0,0,1,.11-1.43,2.87,2.87,0,0,1,1.09-1.15,9.33,9.33,0,0,1,1.6-.75l.45-.18h-.49a3.85,3.85,0,0,0-1.39.49,4.54,4.54,0,0,1-.7.26,1.84,1.84,0,0,1-.74,0,1,1,0,0,1-.61-.4.83.83,0,0,1,0-.69l.52-1.61a1,1,0,0,1,.49-.61,8.33,8.33,0,0,0,.86-.22c.59-.29.93-.86,1.44-1.17a2.29,2.29,0,0,1,1.79.08,2.08,2.08,0,0,0,1,.08,1,1,0,0,0,.85-.64v-.07l-.07,0A6.55,6.55,0,0,1,548,123a2.09,2.09,0,0,1-.37-2.09,1.34,1.34,0,0,1,.81-.7,3.37,3.37,0,0,1,1.18-.12,4.47,4.47,0,0,1,1.21.16,1.12,1.12,0,0,1,.85.69V121l.12,0a1.87,1.87,0,0,1,2.27,1.37s0,.06,0,.1v.12h.11l2-.2h.25l-.17-.18a9.66,9.66,0,0,0-1.1-.91,2.58,2.58,0,0,1-.87-1,1.35,1.35,0,0,1,.11-1.25.71.71,0,0,1,.54-.25,2.22,2.22,0,0,0,.77-.08c.26-.13.42-.29.6-.24a3.67,3.67,0,0,1,.6.36l1.26.82,2.57,1.69.38.24-.18-.41-.77-1.79a8.43,8.43,0,0,1-.66-1.82,1.54,1.54,0,0,1,.07-.9.79.79,0,0,1,.65-.49,1.35,1.35,0,0,1,1.29,1.09v.15l.15,0a1.22,1.22,0,0,1,1.44.93,1.1,1.1,0,0,1,0,.18v.22l.2-.09a1.23,1.23,0,0,1,1.6.7,1.22,1.22,0,0,1-.15,1.18l-.18.23h.29a3.68,3.68,0,0,1,1.91.57l.24.15v-.28a1,1,0,0,1,1.18-.9,1.16,1.16,0,0,1,.5.21l.23.23v-.33a2,2,0,0,1,.27-1.1c.19-.26.7-.37.85-.13l.41.56-.15-.7a1.26,1.26,0,0,1,1-1.48,1.28,1.28,0,0,1,1,.26l.12.1.1-.12.69-.83-.11,0a1.71,1.71,0,0,1,1.61.81c.27.52-.14,1.39-.73,1.32v.3a.15.15,0,0,1,.16.14h0a.69.69,0,0,1,0,.35,1.69,1.69,0,0,1-.37.7l-1,1.39.23.21a1.39,1.39,0,0,1,1.71-.16l.11.09.1-.11a1,1,0,0,1,1.46,0l0,0,.16.19.1-.22a.82.82,0,0,1,1.15-.18.8.8,0,0,1,.3.42l.06.78.24-.74c.06-.2.4-.25.7-.21a3.66,3.66,0,0,1,.92.18.85.85,0,0,1,.58.58c.07.26,0,.58-.23.65l.13.29c.21-.14.53.05.7.32a.89.89,0,0,1-.13.86c-.35.57-1.09.87-1.48,1.59l-.37.7.62-.5c.46-.37,1.19-.24,1.84-.23a4.12,4.12,0,0,1,1.89.46l.16.09.07-.16c.08-.23.46-.26.78-.2a5.76,5.76,0,0,1,1,.3,5.66,5.66,0,0,1,1.77,1.12,2.28,2.28,0,0,1,.61.8.68.68,0,0,1-.12.82,6.47,6.47,0,0,1-.89.58l-.92.58-1.13.71-.3.18.33.11a7.17,7.17,0,0,1,3.59,2.53h0c.59.34,1.24.37,1.67.7a.85.85,0,0,1,.28.7c0,.26-.14.47-.34.45h-.51l.41.32a.94.94,0,0,1,.35.8.85.85,0,0,1-.43.7h0a1.66,1.66,0,0,1-.93.65h0l0,0a1.25,1.25,0,0,1-1.06.49l-.47,0,.35.32a4.8,4.8,0,0,1,1.4,1.82,2,2,0,0,1-.24,2h0v0a1.07,1.07,0,0,1-.44.65l-.13.07.07.13a.84.84,0,0,1,.08.56v.13l.13,0a2.47,2.47,0,0,1,1.35,1.27,2.37,2.37,0,0,1,.1,1.83,2.32,2.32,0,0,1-1.14,1.34,1.38,1.38,0,0,1-.85.07.57.57,0,0,1-.49-.48l0-.61-.25.55a1.91,1.91,0,0,1-1.43,1h-.22l.11.2a1.83,1.83,0,0,1-.83,2.44l-.12.05-.27.09.22.18a1.81,1.81,0,0,1,.53,1.8,1.78,1.78,0,0,1-1.14,1.39l-.15.05.06.15a1.46,1.46,0,0,1-2.76.95l-.11-.33-.16.31a3.22,3.22,0,0,1-1.18,1.47,1,1,0,0,1-1.4-.37l-.14-.42-.13.42a2.06,2.06,0,0,1-3,1l-.23-.18v.3a1.29,1.29,0,0,1-2.56.23v-.12h-.16l-3.7,0a9,9,0,0,1-3.49-.49,6.55,6.55,0,0,1-1.51-.84,5.15,5.15,0,0,0-.7-.53,1.31,1.31,0,0,0-.93-.11,8.65,8.65,0,0,1-1.66.37,5.93,5.93,0,0,1-4.51-1.55,3.39,3.39,0,0,0-.66-.54,1.88,1.88,0,0,0-.84-.19,12,12,0,0,1-1.58-.1,11.34,11.34,0,0,1-1.52-.3,3.59,3.59,0,0,1-1.33-.65,1.31,1.31,0,0,1-.52-1.22.92.92,0,0,1,.83-.88h.1v-.1a2,2,0,0,0-.21-1.2,1.22,1.22,0,0,0-1-.62.85.85,0,0,0-.91.7.79.79,0,0,0,.59.94l0-.19a1.21,1.21,0,0,1-1.34-.09,1.33,1.33,0,0,1-.65-1.18,1.93,1.93,0,0,1,1.9-1.66h.13V149a4.53,4.53,0,0,1-.12-2.07l.09-.4-.25.32a1.55,1.55,0,0,1-2.09.24l-.07-.06-.06.08a3,3,0,0,1-1.35,1.17,1.77,1.77,0,0,1-1.63-.15,1.17,1.17,0,0,1-.57-1.35,1.09,1.09,0,0,1,1.07-.83h.14l-.07-.12a1.41,1.41,0,0,1,.64-1.87,1.38,1.38,0,0,1,.59-.14H545v-.08a2.21,2.21,0,0,1,1.33-2.35l-.05-.09a1.15,1.15,0,0,1-1.55-.48,1,1,0,0,1-.07-.15v-.1l0,.09a1.08,1.08,0,0,1-.9.48,2.24,2.24,0,0,1-.93-.14,2.88,2.88,0,0,1-1.28-.76,1.34,1.34,0,0,1-.3-.83A.78.78,0,0,1,541.22,139.1Z"/><path class="cls-9" d="M575,142.14a11.76,11.76,0,0,0-11.1-12.38h-.44a12.11,12.11,0,0,0-12.27,11.06,122.5,122.5,0,0,0-.7,13c.47,6,4.18,8.1,5.68,8.7a8.34,8.34,0,0,0,1.63.3h0s0,0,0,0h0l-.91,7c-.32,4.54-1.32,20,3.31,20.37s11.85-14.94,12.24-19.52Z"/><path class="cls-4" d="M553,145.15a1,1,0,0,0,.83,1.07h0a.94.94,0,0,0,1.07-.76v0a1,1,0,0,0-1.93-.29Z"/><path class="cls-4" d="M552.68,142.34c.11.14.89-.34,1.93-.25s1.77.65,1.89.53,0-.28-.36-.55a2.73,2.73,0,0,0-1.5-.58,2.59,2.59,0,0,0-1.54.36A.8.8,0,0,0,552.68,142.34Z"/><path class="cls-4" d="M562.75,145.93a1,1,0,0,0,.86,1h0a.93.93,0,0,0,1.06-.77h0a1,1,0,0,0-.86-1,.93.93,0,0,0-1.07.77Z"/><path class="cls-4" d="M563,143.33c.11.14.88-.34,1.93-.25s1.76.65,1.89.53,0-.28-.37-.55a2.7,2.7,0,0,0-1.49-.58,2.6,2.6,0,0,0-1.55.36C563,143.06,562.89,143.27,563,143.33Z"/><path class="cls-4" d="M558.53,150.64a6.52,6.52,0,0,0-1.67-.43c-.26-.05-.52-.13-.54-.31a1.29,1.29,0,0,1,.24-.76l1-1.93a33.59,33.59,0,0,0,2.19-5.07A34.17,34.17,0,0,0,557.1,147l-.94,2a1.5,1.5,0,0,0-.22,1,.64.64,0,0,0,.4.42,2.42,2.42,0,0,0,.45.1A7.24,7.24,0,0,0,558.53,150.64Z"/><path class="cls-10" d="M557.86,162.79a16.89,16.89,0,0,0,9.28-1.95c-.32.16-1.84,6-9.53,3.82Z"/><path class="cls-10" d="M558.76,153.14a1.9,1.9,0,0,1,1.75-.55,1.74,1.74,0,0,1,1.13.69,1.07,1.07,0,0,1,0,1.23,1.29,1.29,0,0,1-1.4.23,3.81,3.81,0,0,1-1.29-.85,1.18,1.18,0,0,1-.27-.32.33.33,0,0,1,0-.38"/><path class="cls-4" d="M561.54,151.59c-.17,0-.27,1.09-1.3,1.8s-2.23.5-2.25.65.25.24.76.29a2.88,2.88,0,0,0,1.87-.48,2.44,2.44,0,0,0,1-1.51C561.74,151.87,561.61,151.58,561.54,151.59Z"/><path class="cls-4" d="M563,140c.08.28,1.13.23,2.34.48s2.18.64,2.36.4-.07-.39-.45-.7a3.8,3.8,0,0,0-1.7-.73,3.86,3.86,0,0,0-1.88.07C563.19,139.68,563,139.88,563,140Z"/><path class="cls-4" d="M553.24,139.65c.17.25.9.07,1.77.12s1.59.29,1.77,0,0-.35-.31-.6a2.63,2.63,0,0,0-2.85-.13C553.29,139.31,553.17,139.54,553.24,139.65Z"/><path class="cls-7" d="M549.6,133.58a6.87,6.87,0,0,1,.14-1,3.06,3.06,0,0,1,.89-1.24c1.27-1.24,2.6-2.53,4.18-2.94,1-.25,2-.15,3-.4a15.55,15.55,0,0,0,1.77-.64,14.38,14.38,0,0,1,7.53-.4,11.71,11.71,0,0,1,4,1.31,14.19,14.19,0,0,1,3.62,3.29,21.89,21.89,0,0,1,4,6.5,10.79,10.79,0,0,1,.58,6.13c-.48,2-1.93,3.88-3.7,4.19-.2-.29-.4-.57-.61-.85l-1-1.24c.16.5,0,.46-.42.7a.86.86,0,0,1-1.15-.39s0,0,0,0c-.36.4-1.05-.1-.9-.65-.42.19-.9-.39-.7-.87-.47.13-.7-.63-.89-1.15-.11-.28-.27-.53-.4-.8a5.09,5.09,0,0,1-.52-2.82,5,5,0,0,1-.65-2.79c0-.61,0-1.23-.07-1.84l-.3-.45a1,1,0,0,1-.74.89,2.17,2.17,0,0,1-1.1-.11l-1.08-.3-.69.14a2.78,2.78,0,0,1-.35,1.76,1.77,1.77,0,0,1-.7.94.53.53,0,0,1-.68-.3.69.69,0,0,1,0-.32.57.57,0,0,1-.8-.09.75.75,0,0,1-.07-.12,1.86,1.86,0,0,1-.15-1.14,4.81,4.81,0,0,1,1.09-2.57l-2,1.62a1,1,0,0,1-.49.25.5.5,0,0,1-.5.51h-.08a1.37,1.37,0,0,1-.66-.53c-.42-.53-.84-1.4-.39-1.91-.21-.05-.29-.42-.13-.61l-2.3,1.45c.23-.11.44.25.37.52a1.23,1.23,0,0,1-.5.6,1.64,1.64,0,0,1,.16,1c.42-.31.95.38.77.92a1.2,1.2,0,0,1-1.2.79.85.85,0,0,1-.91-.69c-.48.05-.88-.63-.69-1.15-.36.21-.61-.43-.6-.9a6.67,6.67,0,0,1,.55-2.36.13.13,0,0,1-.18,0h0a.19.19,0,0,1,0-.1l-1.36,2.67a6.65,6.65,0,0,0-.86,2.4c0,.35-.12.83-.42.83a.39.39,0,0,1-.23-.07,4.46,4.46,0,0,1-1.75-2.42,3.38,3.38,0,0,1-.21-1.05A14.21,14.21,0,0,1,549.6,133.58Z"/><path class="cls-9" d="M573.84,145.64c.11,0,4.19-1,3.8,3.13s-4.4,2.84-4.4,2.73S573.84,145.64,573.84,145.64Z"/><path class="cls-10" d="M574.63,150.07a1,1,0,0,0,.19.12.7.7,0,0,0,.53.06,1.76,1.76,0,0,0,1-1.5,2.45,2.45,0,0,0-.1-1,.87.87,0,0,0-.48-.59.36.36,0,0,0-.44.15c-.07.12,0,.2-.07.2s-.09-.08,0-.24a.5.5,0,0,1,.19-.24.48.48,0,0,1,.4-.06,1,1,0,0,1,.7.69,2.44,2.44,0,0,1,.13,1.17,1.84,1.84,0,0,1-1.2,1.66.79.79,0,0,1-.64-.17C574.63,150.17,574.62,150.08,574.63,150.07Z"/><path class="cls-8" d="M559.05,132.65a1,1,0,0,1-.23-.55.74.74,0,0,1,.24-.6.78.78,0,0,1,.8-.13l.17.07-.07-.17a.77.77,0,0,1,1.31-.76l.14-.11,0-.12a.49.49,0,0,1,.1-.37.5.5,0,0,1,.36-.18.91.91,0,0,1,.4,0,.93.93,0,0,0,.45.15c.2,0,.3-.16.4-.21a1.54,1.54,0,0,1,.34-.17,1.63,1.63,0,0,1,.69-.09,1.83,1.83,0,0,1,.94.3c.19.14.28.25.29.23a.84.84,0,0,0-.25-.28,1.7,1.7,0,0,0-1-.39,1.87,1.87,0,0,0-.7.08,2.12,2.12,0,0,0-.37.18c-.13.07-.23.18-.32.18a1,1,0,0,1-.38-.14,1.21,1.21,0,0,0-.5-.07.71.71,0,0,0-.46.25.62.62,0,0,0-.14.54.53.53,0,0,0,.08.17l.14-.12a.94.94,0,0,0-1.59.94l.11-.1a.92.92,0,0,0-1,.19.82.82,0,0,0-.25.69.78.78,0,0,0,.2.44A.41.41,0,0,0,559.05,132.65Z"/><path class="cls-8" d="M554.39,133.44a1.16,1.16,0,0,1-.3-.54.9.9,0,0,1,.1-.7,1,1,0,0,1,.76-.46h.13l-.07-.11a1.11,1.11,0,0,1-.23-1,.57.57,0,0,1,.4-.38.46.46,0,0,1,.53.12l.47.6-.32-.7a1,1,0,0,1,0-.8.89.89,0,0,1,.7-.48.88.88,0,0,1,.61.11l.2.12-.07-.23a.6.6,0,0,1,.57-.69,1.49,1.49,0,0,1,1,.32l.17.11,0-.2a.7.7,0,0,1,.27-.63,1.3,1.3,0,0,1,.66-.22,3.1,3.1,0,0,1,1.17.12,5.46,5.46,0,0,1,1,.44.86.86,0,0,0-.22-.18,3.1,3.1,0,0,0-1.92-.52,1.37,1.37,0,0,0-.73.23.84.84,0,0,0-.35.79l.14-.08a1.79,1.79,0,0,0-1.06-.37.86.86,0,0,0-.56.28.67.67,0,0,0-.17.63l.13-.1a1.14,1.14,0,0,0-.7-.14,1.07,1.07,0,0,0-.82.59,1.13,1.13,0,0,0,0,1l.15-.09a.65.65,0,0,0-.7-.16.77.77,0,0,0-.5.48,1.28,1.28,0,0,0,.27,1.17l0-.11a1.07,1.07,0,0,0-.85.54,1,1,0,0,0-.08.76,1.14,1.14,0,0,0,.24.43C554.34,133.42,554.39,133.45,554.39,133.44Z"/><path class="cls-8" d="M544.49,133.45a.69.69,0,0,1,.27-.48.85.85,0,0,1,.63-.17,2.89,2.89,0,0,1,.86.28l.1,0V133a.79.79,0,0,1,.69-.7,2.34,2.34,0,0,1,1.29.32l.55.26-.46-.41a.65.65,0,0,1,.11-.92h0a1.52,1.52,0,0,1,1.16-.17h.06l.36.06-.29-.22a.69.69,0,0,1,0-1,.83.83,0,0,1,.16-.12,1.08,1.08,0,0,1,1.17.22l.35.32-.22-.42a1.6,1.6,0,0,1,.15-1.61,1.47,1.47,0,0,1,1.14-.59,1.58,1.58,0,0,1,.85.18c.18.09.27.17.28.16l-.06-.06a1.39,1.39,0,0,0-.19-.15,1.63,1.63,0,0,0-.89-.24,1.6,1.6,0,0,0-1.25.61,1.76,1.76,0,0,0-.18,1.78l.12-.14a1.22,1.22,0,0,0-1.39-.25.86.86,0,0,0-.45.63.78.78,0,0,0,.25.77l.07-.16h-.06a1.6,1.6,0,0,0-1.31.21.93.93,0,0,0-.33.57.68.68,0,0,0,.2.62l.09-.14a2.48,2.48,0,0,0-1.39-.32,1,1,0,0,0-.82.88l.1-.06a2.92,2.92,0,0,0-.9-.27,1,1,0,0,0-.7.22.73.73,0,0,0-.24.38A1.16,1.16,0,0,0,544.49,133.45Z"/><path class="cls-8" d="M550.44,124.53a.66.66,0,0,0,.24.11,2.67,2.67,0,0,0,.69.09,2.23,2.23,0,0,1,1,.25.68.68,0,0,1,.32.48.48.48,0,0,1-.24.52l.12.1c.06-.23.37-.36.64-.49a3.66,3.66,0,0,1,.9-.3,1.1,1.1,0,0,1,.86.21.74.74,0,0,1,.32.7l0,.22.18-.13a2,2,0,0,1,1.25-.39,2.21,2.21,0,0,1,1,.24,2.45,2.45,0,0,1,.75.57,1.22,1.22,0,0,0-.14-.22,1.88,1.88,0,0,0-.56-.45,2.31,2.31,0,0,0-1.06-.29,2.17,2.17,0,0,0-1.35.4l.14.08a.88.88,0,0,0-.38-.88,1.26,1.26,0,0,0-1-.25,2.79,2.79,0,0,0-1,.31l-.43.22a.73.73,0,0,0-.3.39l0,.18.16-.07a.64.64,0,0,0,.33-.7.83.83,0,0,0-.4-.58,2.16,2.16,0,0,0-1.09-.22,3.3,3.3,0,0,1-.7,0Z"/><path class="cls-8" d="M559.86,121.78a2,2,0,0,1,.49.11,1.37,1.37,0,0,1,.43.33,1,1,0,0,1,.24.65V123h.1a.61.61,0,0,1,.64.44,1.83,1.83,0,0,1,0,1l-.09.37.25-.28,0,0a.74.74,0,0,1,.65-.21.82.82,0,0,1,.58.31,1.4,1.4,0,0,1,.28,1.12,2.52,2.52,0,0,1-.28.78,1.09,1.09,0,0,0-.13.28.92.92,0,0,0,.19-.25,2.25,2.25,0,0,0,.35-.79,1.49,1.49,0,0,0-.28-1.25,1,1,0,0,0-1.45-.17l0,0,0,.06.16.08a2,2,0,0,0,0-1.13.75.75,0,0,0-.84-.52l.1.08a1.14,1.14,0,0,0-.3-.7,1.31,1.31,0,0,0-.5-.34,1,1,0,0,0-.38,0A.22.22,0,0,0,559.86,121.78Z"/><path class="cls-8" d="M567.43,128.09h.25a1.41,1.41,0,0,0,.59-.34,1.66,1.66,0,0,0,.5-.88.9.9,0,0,1,.16-.5c.12-.12.35-.18.51-.38a.91.91,0,0,0-.14-1.26v.13a2.92,2.92,0,0,0,.88-1,1.33,1.33,0,0,0,.18-.48,3.23,3.23,0,0,0-.27.44,3.28,3.28,0,0,1-.89.93l-.09.07.09.07a.76.76,0,0,1,.09,1c-.1.15-.31.21-.49.38a.93.93,0,0,0-.2.58,1.65,1.65,0,0,1-.42.83A2.25,2.25,0,0,1,567.43,128.09Z"/><path class="cls-8" d="M569.66,129.89l.15,0a3.23,3.23,0,0,0,.44,0,2.52,2.52,0,0,0,1.43-.65h-.12a1.64,1.64,0,0,0,1.73.64,1,1,0,0,0,.62-.41,1.39,1.39,0,0,0,.1-.26.34.34,0,0,1,.13-.16,1.46,1.46,0,0,1,.44-.16,1.08,1.08,0,0,0,.49-.15.51.51,0,0,0,.3-.43l-.12.08a1.61,1.61,0,0,0,1.12.11,1.75,1.75,0,0,0,.78-.39,1.7,1.7,0,0,0,.35-.45.7.7,0,0,0,.06-.19,2.54,2.54,0,0,1-.47.56,1.76,1.76,0,0,1-.75.34,1.48,1.48,0,0,1-1-.14l-.12-.06v.14a.37.37,0,0,1-.22.28,1.25,1.25,0,0,1-.44.13,1.16,1.16,0,0,0-.51.18.52.52,0,0,0-.2.24,2.25,2.25,0,0,1-.08.24.9.9,0,0,1-.51.32,1.62,1.62,0,0,1-.62,0,1.4,1.4,0,0,1-.93-.58l-.05-.07-.07.07a2.55,2.55,0,0,1-1.33.69C569.88,129.89,569.66,129.87,569.66,129.89Z"/><path class="cls-8" d="M583.72,136.8v-.06a1.05,1.05,0,0,0,0-.19,1.84,1.84,0,0,0,0-.74,4.26,4.26,0,0,0-.4-1.08,4.83,4.83,0,0,0-.37-.62,1,1,0,0,0-.3-.27.46.46,0,0,0-.44,0l.1.09a1.2,1.2,0,0,0-1.87-1.22l.14.09a.82.82,0,0,0-.28-.7.84.84,0,0,0-.78-.16.75.75,0,0,0-.38.25l.16.07a.54.54,0,0,0-.16-.45.68.68,0,0,0-.4-.21,1.75,1.75,0,0,0-.81.13l.12.05a1.39,1.39,0,0,0-.76-.63,1.83,1.83,0,0,0-.9-.07,4.46,4.46,0,0,0-1.45.54l.09.09a.31.31,0,0,0,0-.32.48.48,0,0,0-.21-.19.85.85,0,0,0-.49-.12,2.71,2.71,0,0,0-.75.16,2,2,0,0,0-.44.21.32.32,0,0,0-.13.1,6.07,6.07,0,0,1,.59-.24,3.1,3.1,0,0,1,.74-.13.92.92,0,0,1,.42.12c.13.08.24.22.16.35l-.12.19.21-.1a4.76,4.76,0,0,1,1.4-.53,1.64,1.64,0,0,1,.82.08,1.12,1.12,0,0,1,.65.54l0,.07H578a1.53,1.53,0,0,1,.7-.13.44.44,0,0,1,.41.45l-.06.32.22-.24a.6.6,0,0,1,.3-.19.62.62,0,0,1,.6.12.68.68,0,0,1,.22.57V133l.17-.11a1.09,1.09,0,0,1,1.22,0,1.12,1.12,0,0,1,.42,1V134l.14-.07c.21-.1.44.09.58.26a4.43,4.43,0,0,1,.36.59,5,5,0,0,1,.43,1A2.48,2.48,0,0,1,583.72,136.8Z"/><path class="cls-8" d="M582.23,142.11a.27.27,0,0,0,.1-.11c.09-.11.17-.23.25-.35a1.32,1.32,0,0,0,.21-.66,1,1,0,0,0-.11-.44.69.69,0,0,0-.37-.34v.1a.88.88,0,0,0,.11-.91.9.9,0,0,0-.92-.49l.07.14a.71.71,0,0,0,0-.83,1.08,1.08,0,0,0-.76-.43,2.8,2.8,0,0,1-.41,0,.3.3,0,0,1-.23-.24,1.65,1.65,0,0,0-.21-.42.87.87,0,0,0-.42-.28,4.5,4.5,0,0,0-1-.1,1.12,1.12,0,0,1-.78-.3c-.09-.11-.13-.25-.23-.38a1,1,0,0,0-1.21-.34l.1.12a.69.69,0,0,0,0-.86,1,1,0,0,0-.66-.4,3.33,3.33,0,0,0-1.22,0,5,5,0,0,0-.75.23,1.36,1.36,0,0,0-.24.13,8.8,8.8,0,0,1,1-.26,3.29,3.29,0,0,1,1.17,0,.94.94,0,0,1,.57.36.59.59,0,0,1,0,.69l-.22.28.32-.15a.85.85,0,0,1,.7,0,.68.68,0,0,1,.27.26c.07.14.15.27.23.4a.9.9,0,0,0,.42.27,2,2,0,0,0,.48.09,5,5,0,0,1,.95.11.62.62,0,0,1,.32.21,1.46,1.46,0,0,1,.18.38.51.51,0,0,0,.36.34,3.29,3.29,0,0,0,.44.05.84.84,0,0,1,.63.34.54.54,0,0,1,0,.62l-.16.18.23,0a.72.72,0,0,1,.68,1.15l-.06.07h.09a.7.7,0,0,1,.42.67,1.33,1.33,0,0,1-.16.62C582.34,141.94,582.22,142.1,582.23,142.11Z"/><path class="cls-8" d="M582.8,152.13a.41.41,0,0,0,.19,0,1.2,1.2,0,0,0,.45-.29,1.34,1.34,0,0,0,.37-.75,1.41,1.41,0,0,0-.28-1.07v.11a2.71,2.71,0,0,0,.55-.88,1,1,0,0,0,0-.59.76.76,0,0,0-.39-.5v.16a1,1,0,0,0,.53-.92,1.12,1.12,0,0,0-.13-.62,1,1,0,0,0-.44-.42.35.35,0,0,1-.24-.36,1.47,1.47,0,0,0-.08-.55,1.87,1.87,0,0,0-.62-.8l-.65-.55a2.8,2.8,0,0,0-1.08-.62,1.37,1.37,0,0,0-.34-.07h-.12l.43.11a3.27,3.27,0,0,1,1,.66l.63.57a1.7,1.7,0,0,1,.57.73,1.4,1.4,0,0,1,.06.5.48.48,0,0,0,.08.31.58.58,0,0,0,.24.2,1,1,0,0,1,.36,1.32.89.89,0,0,1-.31.33l-.17.08.17.09a.7.7,0,0,1,.3.87,2.51,2.51,0,0,1-.51.82l0,.05,0,.05a1.27,1.27,0,0,1,.28.95,1.28,1.28,0,0,1-.31.7A1.91,1.91,0,0,1,582.8,152.13Z"/><path class="cls-8" d="M567.32,135.85a2,2,0,0,0,1.09-.56,1,1,0,0,0,.25-.79,1.05,1.05,0,0,0,0-.19l-.05.11a.87.87,0,0,0,.5-.56.81.81,0,0,0-.06-.61c-.18-.31-.42-.37-.41-.34a1.1,1.1,0,0,1,.29.39.74.74,0,0,1,0,.51.79.79,0,0,1-.41.45h-.09l0,.09a.74.74,0,0,1,0,.14.89.89,0,0,1-.2.65,1.57,1.57,0,0,1-.46.39A5.4,5.4,0,0,1,567.32,135.85Z"/><path class="cls-8" d="M563.21,133.49a1.12,1.12,0,0,1-.07-.7.77.77,0,0,1,.48-.54.83.83,0,0,1,.87.22l.11.11,0-.15a1.74,1.74,0,0,1,.26-.53.67.67,0,0,1,.49-.28c.3,0,.6.28.51.52l.16.05a1.41,1.41,0,0,1,.59-.87,1.31,1.31,0,0,1,.81-.24,2.19,2.19,0,0,1,.76.2.5.5,0,0,0-.16-.13,1.23,1.23,0,0,0-.59-.18,1.45,1.45,0,0,0-.91.21,1.55,1.55,0,0,0-.69,1l.17,0a.52.52,0,0,0-.14-.55.75.75,0,0,0-.53-.22.82.82,0,0,0-.63.36,1.71,1.71,0,0,0-.29.59h.16a1,1,0,0,0-1.06-.23.84.84,0,0,0-.53.65.93.93,0,0,0,.05.55C563.13,133.45,563.2,133.5,563.21,133.49Z"/><polygon class="cls-9" points="526.48 344.51 524.13 356.08 516.4 356.8 513.15 352.97 516.12 339.16 526.48 344.51"/><path class="cls-3" d="M511.61,351.68v.91s-14.8,5.71-15,8.61l29.05.7-.17-10.14A15.87,15.87,0,0,1,511.61,351.68Z"/><path class="cls-11" d="M522.42,355a1.26,1.26,0,0,1,.79,1.44,1.15,1.15,0,0,1-1.38.84h0a1.32,1.32,0,0,1-.82-1.53,1.17,1.17,0,0,1,1.49-.7h0"/><path class="cls-7" d="M525.6,361.93l0-2.44-27.83.2a2.65,2.65,0,0,0-1.39,2.39Z"/><path class="cls-4" d="M511.47,352.67c0,.15.7.23,1.4.73s1,1.13,1.17,1.07-.06-.92-.9-1.5S511.45,352.53,511.47,352.67Z"/><path class="cls-4" d="M508.4,353.92c0,.13.57.41,1,1.05s.59,1.3.7,1.3a1.6,1.6,0,0,0-.35-1.62C509.2,353.87,508.41,353.78,508.4,353.92Z"/><path class="cls-4" d="M506.58,357.69c.13,0,.35-.69,0-1.52s-1-1.17-1.07-1,.35.56.62,1.24S506.44,357.67,506.58,357.69Z"/><path class="cls-9" d="M571.42,341.8c.12.37,0,14.79,0,14.79l-4.33,2.7-5.66-3.56-1.2-14Z"/><path class="cls-3" d="M561,354.47s7.72,5.73,11.46.77l1,2.41,4.39,17.14a2.34,2.34,0,0,1-1.24,2.75,2,2,0,0,1-2.24-.45c-3.17-3.16-14.79-14.86-14.68-16.44l0-4.18a2.12,2.12,0,0,1,1.29-2Z"/><path class="cls-7" d="M576.22,377.68l-16.57-18.49v.92a2.41,2.41,0,0,0,.79,2,175.5,175.5,0,0,0,13.92,15.55c.51.52,1.48.06,1.86,0Z"/><path class="cls-11" d="M562.09,356.45a1.39,1.39,0,0,1,.36,1.75,1.19,1.19,0,0,1-1.65.39h0a1.45,1.45,0,0,1-.37-1.86,1.23,1.23,0,0,1,1.72-.24l.05,0"/><path class="cls-4" d="M571.44,368.19c.12.07.59-1.07,1.82-1.69a7,7,0,0,1,2.38-.49c0-.13-.24-.22-.73-.28a3.11,3.11,0,0,0-1.85.34,3.35,3.35,0,0,0-1.4,1.34C571.42,367.86,571.4,368.18,571.44,368.19Z"/><path class="cls-4" d="M572.94,371.09c.09.1.76-.61,1.82-.94s2-.14,2-.28a2.24,2.24,0,0,0-2.16-.17C573.42,370.1,572.83,371,572.94,371.09Z"/><path class="cls-4" d="M568.71,364.48a23.43,23.43,0,0,1,2.73-1.65,23.7,23.7,0,0,1,3.08-.76,4.32,4.32,0,0,0-3.24.32A4.87,4.87,0,0,0,568.71,364.48Z"/><path class="cls-4" d="M568.32,359.26c.06.13,1.19-.37,2.69-.43s2.67.31,2.71.17a3.86,3.86,0,0,0-2.74-.65A4.06,4.06,0,0,0,568.32,359.26Z"/><path class="cls-4" d="M571.86,358.78a2.21,2.21,0,0,0-.12-.81,5.9,5.9,0,0,0-1-2,2.4,2.4,0,0,0-1.23-1,.83.83,0,0,0-.91.38,1.54,1.54,0,0,0-.15,1,3,3,0,0,0,3.09,2.35,3.51,3.51,0,0,0,3-2.53,1.33,1.33,0,0,0-.13-1.05.82.82,0,0,0-.94-.29,2.93,2.93,0,0,0-1.21,1,6.32,6.32,0,0,0-1.1,1.94,2.17,2.17,0,0,0-.18.79,10.29,10.29,0,0,1,1.51-2.5,2.85,2.85,0,0,1,1.08-.84.43.43,0,0,1,.51.15.9.9,0,0,1,0,.7,3.16,3.16,0,0,1-2.65,2.17,2.61,2.61,0,0,1-2.65-2,1.13,1.13,0,0,1,.07-.7.46.46,0,0,1,.5-.21,2.14,2.14,0,0,1,1.06.81A8.64,8.64,0,0,1,571.86,358.78Z"/><path class="cls-6" d="M579.59,222.78a72.15,72.15,0,0,1,5.4,14.58c2.39,9,5.07,13.53,4.09,30.14-.49,8.47-7.5,31.46-9.12,39.56-1.33,6.66-5.48,38-7.59,46.23h-12l-1.23-92.65S539.94,314.71,537.51,321s-11,31-11,31l-15.08-4,11.45-55.35c2.28-11,8.49-42.17,11.12-51.54s5.13-19.27,5.13-19.27Z"/><path class="cls-8" d="M578.12,239.18a1.35,1.35,0,0,0,.12.46,7,7,0,0,0,.55,1.17,9.89,9.89,0,0,0,2.78,3.12,9.4,9.4,0,0,0,3.78,1.64,5.17,5.17,0,0,0,1.24.12,1.14,1.14,0,0,0,.45,0c0-.07-.64-.09-1.64-.33a10.4,10.4,0,0,1-3.63-1.69,11.08,11.08,0,0,1-2.79-3C578.42,239.78,578.17,239.15,578.12,239.18Z"/><path class="cls-8" d="M532.81,245.92a1.59,1.59,0,0,0,.44.12,6.54,6.54,0,0,0,1.24.14,7.6,7.6,0,0,0,1.85-.19,8.51,8.51,0,0,0,2.14-.81,10.53,10.53,0,0,0,3.15-2.79,6,6,0,0,0,.94-1.49s-.42.52-1.11,1.33a11.74,11.74,0,0,1-3.13,2.61,8.65,8.65,0,0,1-3.84,1.07C533.46,246,532.81,245.85,532.81,245.92Z"/><path class="cls-8" d="M558.89,240.68a3.28,3.28,0,0,0-.13.75c-.07.48-.14,1.19-.21,2-.14,1.75-.26,4.19-.23,6.82s.18,5.07.35,6.81c.09.87.17,1.56.24,2.05a2.38,2.38,0,0,0,.15.74,4.82,4.82,0,0,0,0-.76c0-.56-.09-1.25-.14-2.09-.11-1.74-.23-4.13-.26-6.79s.06-5,.15-6.79c0-.81.06-1.5.09-2.09A3.28,3.28,0,0,0,558.89,240.68Z"/><path class="cls-12" d="M575,169.26,586,174.47l-1.53,19.93s-1.29,1.5-3.38,12.18S585.93,238,585.93,238l-51.38,1.29s6-43.09,6.74-48.8l2.56-21.79,10.34-.57h3l2.57,18.57,12.94-18Z"/><path class="cls-4" d="M527.51,207.9a3,3,0,0,0,.15-1.18,8.56,8.56,0,0,0-.47-2.79,8.18,8.18,0,0,0-1.4-2.47c-.46-.55-.82-.81-.85-.78a13.76,13.76,0,0,1,1.93,3.37A15.2,15.2,0,0,1,527.51,207.9Z"/><path class="cls-12" d="M506.66,203,525,202.8l6.92-20.46h0c1.09-2.46,2.3-4.87,3.63-7.21,3.66-6.75,8.33-6.4,8.33-6.4l5.62,8.75-6,13.36s-5.71,25.26-12.32,26.37c-11,1.84-30.68-5.75-30.68-5.75Z"/><path class="cls-4" d="M542.46,183.45a5.44,5.44,0,0,1-.35,1,17,17,0,0,0-.64,2.53c-.35,2-.78,11.86-.87,11.86a105.61,105.61,0,0,1,.52-11.93,11.4,11.4,0,0,1,.75-2.56A2.46,2.46,0,0,1,542.46,183.45Z"/><path class="cls-3" d="M636,203.41l4.18.11a4.35,4.35,0,0,1,4.24,4.46v.52a4.35,4.35,0,0,1-4.46,4.23l-4.19-.1h0l.24-9.22Z"/><path class="cls-3" d="M452.19,199.47l37.5-3.75,140.89,3.63a2.48,2.48,0,0,1,2.42,2.54l-.34,13.25a2.5,2.5,0,0,1-2.55,2.42h0l-141.42-3.71L452,206.32Z"/><path class="cls-7" d="M452.14,201.4l-3.45-.08-2.92,1c-.25.18-.19.41,0,.7l2.94,1,3.38.08Z"/><rect class="cls-7" x="481.83" y="203.35" width="18.2" height="2.92" transform="translate(273.6 690.32) rotate(-88.53)"/><path class="cls-3" d="M633.48,200.12h0a3.24,3.24,0,0,1-3.33,3.15l-70.31-1.81a3.24,3.24,0,0,1-3.16-3.32h0A3.24,3.24,0,0,1,560,195l70.32,1.8A3.26,3.26,0,0,1,633.48,200.12Z"/><path class="cls-4" d="M633.48,200.12a3.68,3.68,0,0,0-.4-1.56,3.24,3.24,0,0,0-1.39-1.35,3.13,3.13,0,0,0-1.19-.34c-.44,0-.93,0-1.44,0l-17.23-.42-25.58-.62-15.11-.38-8-.17-2-.05a7.38,7.38,0,0,0-2,.07,3.06,3.06,0,0,0-.15,5.86,7.31,7.31,0,0,0,2,.18l2,.05,8,.21,15.11.4,25.58.7,17.25.5c.51,0,1,0,1.44,0a3.06,3.06,0,0,0,1.2-.28,3.19,3.19,0,0,0,1.44-1.28,3.61,3.61,0,0,0,.48-1.53,2.81,2.81,0,0,1,0,.41,3,3,0,0,1-.39,1.16,3.26,3.26,0,0,1-2.7,1.64h-1.45l-17.25-.39-25.59-.62L571,201.94l-8-.2-2-.05h-1a3.93,3.93,0,0,1-1.07-.18A3.41,3.41,0,0,1,559,195a3.2,3.2,0,0,1,1.07-.12h1l2,.05,8,.21,15.11.4,25.58.7,17.25.5a13.39,13.39,0,0,1,1.44,0,3.31,3.31,0,0,1,1.23.37,3.14,3.14,0,0,1,1.73,2.57A3,3,0,0,1,633.48,200.12Z"/><polygon class="cls-7" points="633.02 200.96 636.63 202.8 636.37 213.25 632.65 215.33 633.02 200.96"/><path class="cls-12" d="M590.42,208.32l-8-12.31h0l-.7-1.1h0l-1.07-1.66,4.68-19.09a18,18,0,0,1,6.21,4.88,72.87,72.87,0,0,1,4.88,8.71s7.81,17.86,9.07,20.53,3.36,7.6,0,10.36-25.8,2.86-25.8,2.86l-1.51-11.29Z"/><path class="cls-4" d="M580.56,191.24c.07,0-.11-.84-.18-2.19a17.32,17.32,0,0,1,2.56-10c.7-1.15,1.26-1.79,1.21-1.83s-.16.13-.42.42a10.17,10.17,0,0,0-1,1.28,15.72,15.72,0,0,0-2.6,10.2,10.89,10.89,0,0,0,.26,1.6A1.88,1.88,0,0,0,580.56,191.24Z"/><path class="cls-9" d="M575.61,212.32a7.74,7.74,0,0,0-2-2.66c-1.47-1.27-4.7-2.26-5.12-3.48s-1.64-.28-1.35,1.25c.18,1,2.18,3.48,2.18,3.48a6.16,6.16,0,0,1-3.91-.31c-1.57-.89-7-2.52-7.62-1.75s.77,1.16,1.39,1.5,4.11,2.1,4.11,2.1-7.24-.25-8.15.09,0,1.26.48,1.27a11.29,11.29,0,0,1,2.4,1.94,3.32,3.32,0,0,0,2.19.89h1.69l-5.11.53s-.89.81.34,1.23c.55.19,14.72,1.47,15.92,1.39,2.72-.09,6.52-.28,6.52-.28l-.69-7.66Z"/><path class="cls-10" d="M555.47,213.89a15.32,15.32,0,0,0,7,1.25c0-.09-1.6-.18-3.53-.53S555.47,213.8,555.47,213.89Z"/><path class="cls-9" d="M514.79,214.64l-3.64-.76s-3.28-5.23-5-5.86l-1-.43s-1.27-2.79-3-2.42c-1-.69-1.93-.4-2,.62,0,0-.51-2.32-2.41-1.4s2.63,9,2.63,9,1.58,4.12,3.56,2.74a5.38,5.38,0,0,0,3.29-.28s1.22,1.73,4.1.42Z"/><path class="cls-10" d="M506.87,214.92a.65.65,0,0,0,0,.39,1.67,1.67,0,0,0,.5.93,2.37,2.37,0,0,0,1.43.7,4.7,4.7,0,0,0,1.9-.21,12,12,0,0,0,3.13-1.39,4.12,4.12,0,0,0,1.12-.87,21.44,21.44,0,0,1-4.33,1.91,4.91,4.91,0,0,1-1.78.23,2.29,2.29,0,0,1-1.3-.54A2,2,0,0,1,506.87,214.92Z"/><path class="cls-10" d="M503.38,213.07c.08,0-1-1.63-1.95-3.78s-1.4-4-1.47-4a3.5,3.5,0,0,0,.19,1.24,18.17,18.17,0,0,0,1,2.89,16.9,16.9,0,0,0,1.47,2.67A3.55,3.55,0,0,0,503.38,213.07Z"/><path class="cls-10" d="M505.46,212.9c.1-.05-.83-1.7-1.73-3.82s-1.44-3.93-1.54-3.91A20.38,20.38,0,0,0,505.46,212.9Z"/><path class="cls-10" d="M502.67,214.76c-.09,0,0,.7.58,1.16s1.26.46,1.25.37a11.3,11.3,0,0,1-1-.62C503,215.24,502.76,214.73,502.67,214.76Z"/><path class="cls-10" d="M507.74,211.76a14.13,14.13,0,0,0-1.18-2,12.91,12.91,0,0,0-1.27-2,9.89,9.89,0,0,0,2.45,4Z"/></g><polygon class="cls-6" points="106.94 362.04 173.04 361.77 239.14 361.68 371.34 361.49 503.54 361.68 569.63 361.77 635.73 362.04 569.63 362.31 503.54 362.41 371.34 362.59 239.14 362.41 173.04 362.31 106.94 362.04"/><circle class="cls-11" cx="117.53" cy="50.57" r="2.94"/><circle class="cls-11" cx="124.23" cy="50.57" r="2.94"/><circle class="cls-11" cx="130.94" cy="50.57" r="2.94"/></svg>