<svg width="157" height="45" viewBox="0 0 157 45" fill="none" xmlns="http://www.w3.org/2000/svg">
<path d="M16.8977 7.4231V20.0677H5.43978V7.4231H0V37.6071H5.43978V25.373H16.8977V37.6071H22.3375V7.4231H16.8977Z" fill="#33475B"/>
<path d="M39.7469 27.8501C39.7469 29.0598 39.2728 30.2199 38.4288 31.0753C37.5848 31.9307 36.4402 32.4112 35.2466 32.4112C34.0531 32.4112 32.9084 31.9307 32.0645 31.0753C31.2205 30.2199 30.7464 29.0598 30.7464 27.8501V14.9218H25.5864V27.8501C25.5864 30.4443 26.6032 32.9322 28.4131 34.7665C30.223 36.6009 32.6777 37.6314 35.2373 37.6314C37.7969 37.6314 40.2516 36.6009 42.0615 34.7665C43.8714 32.9322 44.8882 30.4443 44.8882 27.8501V14.9218H39.7469V27.8501Z" fill="#33475B"/>
<path d="M77.9774 16.2536C77.9774 13.6036 79.7071 12.7635 81.6021 12.7635C83.1293 12.7635 85.1469 13.9413 86.4662 15.3702L89.8457 11.3345C88.1586 9.02225 84.7364 7.4231 81.9353 7.4231C76.3382 7.4231 72.2897 10.7457 72.2897 16.2536C72.2897 26.4725 84.6138 23.2309 84.6138 28.9495C84.6138 30.7135 82.9241 32.2721 80.9891 32.2721C77.9374 32.2721 76.9486 30.7594 75.5466 29.1602L71.7966 33.1122C74.1954 36.0971 77.1538 37.6125 80.6986 37.6125C86.0158 37.6125 90.2935 34.2494 90.2935 28.9927C90.2935 17.6474 77.9694 21.1726 77.9694 16.2536" fill="#33475B"/>
<path d="M154.219 32.7853C151.17 32.7853 150.304 31.4482 150.304 29.4006V20.3379H155.043V15.7457H150.304V9.68675L145.072 12.0666V30.5271C145.072 35.2489 148.287 37.6287 152.695 37.6287C153.386 37.6415 154.077 37.5854 154.758 37.4612L156.034 32.6989C155.459 32.7394 154.798 32.7799 154.219 32.7799" fill="#33475B"/>
<path d="M59.3871 15.0731C56.8312 15.0731 55.0481 15.824 53.3237 17.5394V7.60408H48.1558V26.0186C48.1558 32.9123 53.0732 37.6341 58.5982 37.6341C64.7283 37.6341 70.1201 32.8285 70.1201 26.3563C70.1201 19.9651 65.1574 15.0758 59.3871 15.0758V15.0731ZM59.3551 32.3639C58.1954 32.3639 57.0618 32.0154 56.0975 31.3624C55.1333 30.7094 54.3817 29.7812 53.9379 28.6953C53.4941 27.6094 53.378 26.4145 53.6043 25.2618C53.8305 24.109 54.389 23.0501 55.209 22.2189C56.029 21.3878 57.0738 20.8218 58.2112 20.5925C59.3486 20.3632 60.5276 20.4809 61.599 20.9307C62.6705 21.3805 63.5862 22.1422 64.2305 23.1195C64.8748 24.0968 65.2187 25.2458 65.2187 26.4211C65.2187 27.9973 64.6009 29.5088 63.5013 30.6233C62.4017 31.7378 60.9103 32.3639 59.3551 32.3639Z" fill="#33475B"/>
<path d="M115.501 26.0808C115.501 19.5977 110.12 14.803 103.98 14.803C98.4545 14.803 93.5371 19.5248 93.5371 26.4184V44.8438H98.705V34.895C100.427 36.6076 102.212 37.3613 104.766 37.3613C110.536 37.3613 115.499 32.4747 115.499 26.0808H115.501ZM110.608 26.0159C110.608 27.1913 110.264 28.3403 109.62 29.3176C108.976 30.2949 108.06 31.0566 106.988 31.5064C105.917 31.9562 104.738 32.0738 103.601 31.8445C102.463 31.6152 101.418 31.0492 100.598 30.2181C99.7783 29.387 99.2198 28.3281 98.9936 27.1753C98.7674 26.0225 98.8835 24.8276 99.3273 23.7417C99.7711 22.6558 100.523 21.7277 101.487 21.0747C102.451 20.4217 103.585 20.0731 104.744 20.0731C106.3 20.0731 107.791 20.6993 108.891 21.8137C109.99 22.9282 110.608 24.4398 110.608 26.0159Z" fill="#33475B"/>
<path d="M132.196 14.549V9.28697C132.883 8.96204 133.464 8.44628 133.872 7.79972C134.28 7.15316 134.498 6.40241 134.502 5.63485V5.51329C134.502 4.43866 134.081 3.40804 133.331 2.64816C132.581 1.88828 131.564 1.46139 130.504 1.46139H130.384C129.324 1.46139 128.307 1.88828 127.557 2.64816C126.807 3.40804 126.386 4.43866 126.386 5.51329V5.63485C126.39 6.40241 126.608 7.15316 127.016 7.79972C127.425 8.44628 128.006 8.96204 128.692 9.28697V14.549C126.72 14.8548 124.862 15.6833 123.308 16.9505L109.07 5.71049C109.171 5.33983 109.225 4.95768 109.23 4.57325C109.232 3.67024 108.969 2.78703 108.475 2.03535C107.981 1.28367 107.279 0.697278 106.456 0.350351C105.634 0.00342532 104.728 -0.0884515 103.854 0.0863421C102.98 0.261136 102.176 0.694747 101.545 1.33233C100.914 1.96991 100.484 2.78282 100.309 3.66824C100.134 4.55366 100.222 5.4718 100.562 6.30654C100.902 7.14127 101.478 7.8551 102.219 8.35774C102.959 8.86037 103.829 9.12923 104.72 9.1303C105.499 9.12677 106.264 8.91627 106.938 8.51981L120.96 19.5761C119.7 21.5048 119.042 23.7734 119.073 26.0862C119.104 28.3991 119.822 30.6489 121.133 32.5422L116.869 36.8642C116.524 36.7526 116.164 36.6935 115.802 36.6887C115.071 36.6892 114.356 36.9095 113.748 37.3217C113.14 37.7339 112.667 38.3195 112.387 39.0045C112.107 39.6894 112.034 40.4431 112.177 41.1702C112.32 41.8972 112.672 42.565 113.189 43.0892C113.707 43.6134 114.365 43.9705 115.083 44.1152C115.8 44.26 116.544 44.1859 117.22 43.9025C117.895 43.6191 118.473 43.1389 118.88 42.5227C119.287 41.9066 119.504 41.1821 119.505 40.4407C119.5 40.0738 119.442 39.7097 119.331 39.3602L123.55 35.0841C124.926 36.1571 126.526 36.8967 128.227 37.2464C129.929 37.596 131.686 37.5463 133.366 37.1012C135.045 36.656 136.602 35.8272 137.917 34.6782C139.231 33.5292 140.269 32.0905 140.95 30.4723C141.632 28.854 141.938 27.0992 141.847 25.3422C141.756 23.5853 141.27 21.8727 140.425 20.3358C139.58 18.7988 138.399 17.4783 136.973 16.4753C135.546 15.4722 133.913 14.8133 132.196 14.549ZM130.448 31.8534C129.294 31.8523 128.166 31.5045 127.207 30.854C126.248 30.2034 125.501 29.2793 125.059 28.1984C124.618 27.1175 124.503 25.9283 124.729 24.7812C124.955 23.6341 125.511 22.5805 126.327 21.7536C127.143 20.9267 128.183 20.3636 129.315 20.1354C130.447 19.9073 131.62 20.0244 132.686 20.4719C133.753 20.9194 134.664 21.6772 135.306 22.6496C135.947 23.6219 136.29 24.7652 136.29 25.9349C136.29 27.5039 135.675 29.0086 134.581 30.118C133.486 31.2274 132.001 31.8507 130.453 31.8507" fill="#33475B"/>
</svg>
