<svg width="192" height="42" viewBox="0 0 192 42" fill="none" xmlns="http://www.w3.org/2000/svg">
<path d="M68.0246 24.2542L66.8896 27.4751H66.7976C66.6136 26.7389 66.2455 25.6346 65.6933 24.3156L59.589 8.94749H53.6074V33.426H57.5645V18.3033C57.5645 17.3524 57.5645 16.2788 57.5338 14.9598C57.5031 14.2849 57.4418 13.7941 57.4111 13.3953H57.5031C57.6872 14.3463 57.9019 15.0518 58.0859 15.4812L65.4479 33.334H68.2393L75.5399 15.2972C75.6933 14.8984 75.8467 14.0702 76.0001 13.3647H76.0921C76.0001 15.1745 75.9387 16.8002 75.908 17.7818V33.3033H80.0491V8.85546H74.2823L68.0246 24.2542ZM84.0675 15.788H88.178V33.334H84.0675V15.788ZM86.1534 8.39534C85.4479 8.39534 84.8958 8.64074 84.405 9.10087C83.9448 9.53031 83.6688 10.1131 83.6688 10.8186C83.6688 11.4935 83.9142 12.0456 84.405 12.5058C84.8651 12.9352 85.4479 13.1806 86.1534 13.1806C86.859 13.1806 87.4418 12.9352 87.9019 12.5058C88.362 12.0763 88.6381 11.4935 88.6381 10.8186C88.6381 10.1438 88.3927 9.59166 87.9019 9.10087C87.4725 8.64074 86.859 8.39534 86.1534 8.39534ZM102.779 15.6346C102.012 15.4812 101.215 15.3892 100.479 15.3892C98.6074 15.3892 96.8896 15.788 95.4786 16.6162C94.0675 17.4444 92.9019 18.5794 92.1964 19.9904C91.4295 21.4628 91.0614 23.1193 91.0614 25.0518C91.0614 26.7389 91.4295 28.2113 92.1657 29.5916C92.9019 30.9107 93.9142 31.9843 95.2639 32.7205C96.5522 33.4567 98.0859 33.8248 99.8037 33.8248C101.767 33.8248 103.454 33.426 104.773 32.6591L104.804 32.6285V28.8248L104.65 28.9475C104.037 29.3769 103.362 29.7757 102.657 29.9904C101.92 30.2358 101.276 30.3585 100.693 30.3585C99.0369 30.3585 97.7485 29.8984 96.8283 28.8248C95.8774 27.8125 95.4172 26.4321 95.4172 24.6837C95.4172 22.8739 95.8774 21.4628 96.8896 20.4199C97.8712 19.3769 99.1596 18.8248 100.755 18.8248C102.074 18.8248 103.454 19.2542 104.681 20.1438L104.834 20.2665V16.2481L104.804 16.2174C104.19 16.064 103.607 15.788 102.779 15.6346ZM116.368 15.5119C115.356 15.5119 114.405 15.8186 113.577 16.4935C112.871 17.0763 112.411 17.8739 111.982 18.8555H111.951V15.788H107.841V33.334H111.951V24.3769C111.951 22.8432 112.258 21.5855 112.963 20.6653C113.669 19.7144 114.558 19.2542 115.632 19.2542C116 19.2542 116.399 19.3463 116.859 19.4076C117.288 19.5303 117.626 19.653 117.841 19.8064L117.994 19.9291V15.8187L117.902 15.788C117.626 15.6039 117.074 15.5119 116.368 15.5119ZM127.564 15.4199C124.681 15.4199 122.38 16.2788 120.755 17.9659C119.098 19.653 118.301 21.9536 118.301 24.8677C118.301 27.5978 119.129 29.8064 120.693 31.4321C122.288 33.0272 124.436 33.8248 127.135 33.8248C129.957 33.8248 132.196 32.9659 133.822 31.2481C135.479 29.5303 136.276 27.2604 136.276 24.4383C136.276 21.6469 135.509 19.4383 133.976 17.8125C132.472 16.2174 130.295 15.4199 127.564 15.4199ZM130.877 28.9168C130.11 29.8984 128.914 30.3892 127.411 30.3892C125.908 30.3892 124.712 29.9291 123.853 28.8555C122.994 27.8739 122.595 26.4628 122.595 24.653C122.595 22.7818 123.025 21.3708 123.853 20.3585C124.712 19.3463 125.877 18.8248 127.38 18.8248C128.853 18.8248 129.988 19.2849 130.816 20.2972C131.644 21.3094 132.074 22.6898 132.074 24.561C132.012 26.4321 131.675 27.9352 130.877 28.9168ZM145.479 23.0886C144.19 22.5364 143.362 22.1377 142.963 21.8002C142.657 21.4935 142.503 21.0334 142.503 20.4812C142.503 20.0211 142.687 19.5303 143.178 19.2236C143.638 18.9168 144.19 18.7634 144.988 18.7634C145.693 18.7634 146.399 18.8861 147.104 19.0702C147.81 19.2542 148.423 19.5303 148.945 19.9291L149.098 20.0518V16.1867L149.006 16.1561C148.546 15.972 147.902 15.788 147.135 15.6039C146.368 15.4812 145.663 15.4199 145.11 15.4199C143.147 15.4199 141.522 15.88 140.264 16.9536C139.006 17.9352 138.393 19.2542 138.393 20.8186C138.393 21.6469 138.515 22.3831 138.791 22.9659C139.068 23.5794 139.497 24.1315 140.049 24.6223C140.632 25.0518 141.43 25.5732 142.595 26.0334C143.546 26.4321 144.282 26.7696 144.712 27.015C145.141 27.2604 145.448 27.5671 145.663 27.7818C145.816 28.0272 145.908 28.3647 145.908 28.7634C145.908 29.9291 145.018 30.5119 143.209 30.5119C142.503 30.5119 141.798 30.3892 140.939 30.1131C140.08 29.837 139.282 29.4076 138.638 28.9475L138.485 28.8248V32.8432L138.577 32.8739C139.19 33.1499 139.896 33.334 140.785 33.5794C141.675 33.7327 142.472 33.8554 143.147 33.8554C145.264 33.8554 147.012 33.3953 148.239 32.3217C149.497 31.3094 150.172 30.0211 150.172 28.334C150.172 27.1683 149.865 26.1254 149.16 25.3278C148.27 24.4996 147.135 23.7328 145.479 23.0886ZM161.061 15.4199C158.178 15.4199 155.877 16.2788 154.252 17.9659C152.626 19.653 151.798 21.9536 151.798 24.8677C151.798 27.5978 152.626 29.8064 154.19 31.4321C155.785 33.0272 157.933 33.8248 160.632 33.8248C163.454 33.8248 165.693 32.9659 167.319 31.2481C168.976 29.5303 169.773 27.2604 169.773 24.4383C169.773 21.6469 169.006 19.4383 167.472 17.8125C165.969 16.2174 163.791 15.4199 161.061 15.4199ZM164.313 28.9168C163.546 29.8984 162.35 30.3892 160.847 30.3892C159.313 30.3892 158.147 29.9291 157.288 28.8555C156.43 27.8739 156.031 26.4628 156.031 24.653C156.031 22.7818 156.46 21.3708 157.288 20.3585C158.147 19.3463 159.313 18.8248 160.816 18.8248C162.227 18.8248 163.423 19.2849 164.252 20.2972C165.08 21.2788 165.509 22.6898 165.509 24.561C165.54 26.4321 165.111 27.9352 164.313 28.9168Z" fill="#33475B"/>
<path d="M191.798 19.1929V15.8187H187.656V10.6346L187.534 10.6653L183.607 11.8309L183.515 11.8616V15.788H177.288V13.5794C177.288 12.5671 177.534 11.7696 177.994 11.2788C178.454 10.788 179.098 10.5119 179.926 10.5119C180.509 10.5119 181.092 10.6346 181.767 10.9107L181.92 11.0027V7.41375L181.828 7.38307C181.245 7.19902 180.509 7.07632 179.528 7.07632C178.301 7.07632 177.227 7.3524 176.245 7.8432C175.264 8.39534 174.528 9.10086 174.006 10.0825C173.454 11.0334 173.178 12.107 173.178 13.334V15.788H170.233V19.1622H173.117V33.3647H177.288V19.1929H183.485V28.2113C183.485 31.923 185.233 33.7941 188.699 33.7941C189.282 33.7941 189.865 33.7021 190.448 33.6101C191.061 33.4874 191.491 33.334 191.736 33.2113L191.767 33.1806V29.8064L191.614 29.9291C191.368 30.0825 191.153 30.2052 190.755 30.2972C190.448 30.3892 190.141 30.4199 189.926 30.4199C189.098 30.4199 188.546 30.2358 188.117 29.745C187.748 29.3156 187.534 28.5794 187.534 27.5058V19.1929H191.798Z" fill="#33475B"/>
<path d="M0.478516 0.726639H19.8957V20.1438H0.478516V0.726639Z" fill="#33475B"/>
<path d="M21.9202 0.726639H41.3373V20.1438H21.9202V0.726639Z" fill="#33475B"/>
<path d="M0.478516 22.1684H19.8957V41.5856H0.478516V22.1684Z" fill="#33475B"/>
<path d="M21.9202 22.1684H41.3373V41.5856H21.9202V22.1684Z" fill="#33475B"/>
</svg>
