<svg width="214" height="35" viewBox="0 0 214 35" fill="none" xmlns="http://www.w3.org/2000/svg">
<path d="M15 2.15787V27.4165C15 29.2268 15.0862 30.3475 15.2586 30.7786C15.6034 31.813 16.6379 32.3303 18.4483 32.3303H19.6552V34.0544H5.68965V32.3303H6.89655C8.18966 32.3303 9.05172 32.0717 9.56897 31.5544C10.0862 31.0372 10.3448 29.6579 10.3448 27.4165V2.15787H9.31034C7.67241 2.15787 6.2069 2.67511 4.91379 3.62339C2.93103 5.0889 1.81034 7.93373 1.55172 12.2441H0L0.258621 0.433731H25.1724L25.3448 12.1579H23.8793C23.2759 7.24408 21.8103 4.14063 19.4828 2.93373C18.4483 2.41649 17.1552 2.15787 15.7759 2.15787H15Z" fill="#33475B"/>
<path d="M7.06897 15.2613H0V22.3303H7.06897V15.2613Z" fill="#33475B"/>
<path d="M25.3448 15.2613H18.2759V22.3303H25.3448V15.2613Z" fill="#33475B"/>
<path d="M46.4657 15.2613H39.3967V22.3303H46.4657V15.2613Z" fill="#33475B"/>
<path d="M67.5863 15.2613H60.5173V22.3303H67.5863V15.2613Z" fill="#33475B"/>
<path d="M86.9828 34.1406H85.4311L76.5518 3.53718V25.5199C76.5518 27.7613 76.638 29.2268 76.8104 29.7441C77.3277 31.4682 78.5346 32.4165 80.2587 32.4165H80.9484V34.1406H70.5173V32.4165H71.3794C72.6725 32.4165 73.5346 31.8992 74.0518 30.8648C74.4828 30.0027 74.6553 28.2786 74.6553 25.5199V6.12339C74.6553 5.0027 74.5691 4.22683 74.4828 3.7958C74.3104 3.01994 73.8794 2.5027 73.1897 2.33028C72.7587 2.15787 72.2415 2.15787 71.4656 2.15787H70.5173V0.433731H80.2587L87.4139 25.0889L94.7415 0.433731H104.655V2.07166H103.966C102.673 2.07166 101.724 2.33028 101.207 2.84752C100.69 3.36477 100.431 4.74408 100.431 6.98546V27.4165C100.431 29.2268 100.517 30.3475 100.69 30.7786C101.035 31.813 102.069 32.3303 103.879 32.3303H104.569V34.0544H91.8104V32.3303H92.2415C93.5346 32.3303 94.4828 32.0717 95.0001 31.4682C95.4311 30.951 95.6897 29.5717 95.6897 27.4165V3.45097L86.9828 34.1406Z" fill="#33475B"/>
<path d="M109.914 13.882C108.19 16.1234 107.414 19.0544 107.414 22.5027C107.414 26.0372 108.276 28.882 110 31.1234C111.983 33.6234 114.483 34.8303 117.673 34.8303C120.862 34.8303 123.362 33.6234 125.345 31.1234C127.069 28.9682 127.931 26.0372 127.931 22.5027C127.931 18.9682 127.069 16.0372 125.345 13.882C123.362 11.382 120.862 10.1751 117.845 10.1751C114.397 10.0889 111.724 11.382 109.914 13.882ZM121.811 14.8303C122.586 16.5544 123.018 19.1406 123.018 22.5027C123.018 29.5717 121.207 33.1924 117.673 33.1924C114.052 33.1924 112.328 29.5717 112.328 22.4165C112.328 19.1406 112.759 16.6406 113.535 14.9165C114.397 12.9337 115.776 11.8993 117.673 11.8993C119.483 11.8131 120.949 12.8475 121.811 14.8303Z" fill="#33475B"/>
<path d="M137.155 0.00270081L129.914 0.347528V1.98546H130.259C131.207 1.98546 131.897 2.15787 132.241 2.58891C132.672 3.01994 132.845 4.14063 132.845 6.03718V29.1406C132.845 31.382 132.759 32.7613 132.586 33.2786C132.5 33.5372 132.414 33.7958 132.328 34.1406H133.966C134.914 32.5027 135.603 31.7268 136.035 31.7268C136.293 31.7268 136.552 31.813 136.897 32.0717C137.759 32.7613 138.362 33.1924 138.535 33.3648C139.741 34.1406 141.121 34.5717 142.672 34.5717C145.776 34.5717 148.103 33.1924 149.828 30.4337C151.293 28.1061 151.983 25.3475 151.983 22.0717C151.983 18.2786 150.948 15.2613 148.966 13.0199C147.414 11.2958 145.431 10.4337 142.931 10.4337C140.086 10.4337 138.103 11.6406 136.983 14.1406V0.00270081H137.155ZM147.328 22.2441C147.328 29.313 145.69 32.8475 142.328 32.8475C140.431 32.8475 138.966 31.8993 138.103 29.9165C137.241 28.1062 136.81 25.6061 136.81 22.4165C136.81 19.2268 137.328 16.7268 138.276 14.9165C139.31 13.1061 140.69 12.1579 142.414 12.1579C145.69 12.1579 147.328 15.5199 147.328 22.2441Z" fill="#33475B"/>
<path d="M159.914 0.175125C160.69 0.175125 161.293 0.433746 161.81 1.03719C162.327 1.55444 162.586 2.24409 162.586 2.93375C162.586 3.70961 162.327 4.31306 161.81 4.9165C161.293 5.43375 160.603 5.69237 159.827 5.69237C159.052 5.69237 158.448 5.43375 157.931 4.9165C157.414 4.39926 157.155 3.70961 157.155 2.93375C157.155 2.15788 157.414 1.55444 158.017 0.950987C158.448 0.433746 159.138 0.175125 159.914 0.175125ZM162.327 10.4337V28.451C162.327 30.3475 162.5 31.4682 162.931 31.8993C163.276 32.3303 163.965 32.5027 164.827 32.5027H165.603V34.0544H154.655V32.5027H155.431C156.379 32.5027 156.983 32.2441 157.414 31.8131C157.758 31.382 158.017 30.2613 158.017 28.3648V16.2958C158.017 14.3993 157.845 13.2786 157.414 12.8475C157.069 12.4165 156.379 12.2441 155.431 12.2441H154.827V10.7786L162.327 10.4337Z" fill="#33475B"/>
<path d="M175.086 0.00270081V28.451C175.086 30.3475 175.259 31.4682 175.69 31.8993C176.035 32.3303 176.724 32.5027 177.586 32.5027H178.362V34.0544H167.414V32.5027H168.19C169.138 32.5027 169.741 32.2441 170.172 31.813C170.517 31.382 170.776 30.2613 170.776 28.3648V5.95098C170.776 4.14063 170.603 2.93374 170.172 2.5027C169.828 2.07167 169.138 1.89925 168.19 1.89925H167.586V0.347528L175.086 0.00270081Z" fill="#33475B"/>
<path d="M197.845 15.3475C196.121 11.8993 193.534 10.0889 190 10.0889C187.672 10.0889 185.69 11.0372 183.966 12.8475C181.897 15.1751 180.776 18.3648 180.776 22.2441C180.776 26.5544 181.81 29.7441 183.966 32.0717C185.69 33.882 187.845 34.8303 190.517 34.8303C194.138 34.8303 196.983 32.6751 199.138 28.451L197.672 27.6751C197.069 28.9682 196.379 30.0889 195.776 30.7786C194.569 32.1579 193.19 32.8475 191.379 32.8475C189.138 32.8475 187.586 31.7268 186.638 29.5717C185.948 28.0199 185.603 25.6062 185.603 22.3303H199.397C199.31 19.5717 198.793 17.2441 197.845 15.3475ZM185.603 20.6062C185.603 18.882 185.776 17.5027 186.121 16.2958C186.897 13.3648 188.276 11.8993 190.259 11.8993C191.983 11.8993 193.19 13.0199 193.966 15.1751C194.483 16.6406 194.741 18.451 194.741 20.6062H185.603Z" fill="#33475B"/>
<path d="M213.535 15.2613H206.466V22.3303H213.535V15.2613Z" fill="#33475B"/>
</svg>
