<svg width="120" height="42" viewBox="0 0 120 42" fill="none" xmlns="http://www.w3.org/2000/svg">
<path d="M6.89408 29.5553C7.40046 30.892 8.10152 32.035 8.99741 32.9842C9.8933 33.9335 10.9547 34.6599 12.1815 35.1636C13.4085 35.6673 14.7425 35.9191 16.1837 35.9191C17.5859 35.9191 18.9004 35.6576 20.1274 35.1344C21.3543 34.6113 22.4254 33.8752 23.3407 32.926C24.256 31.9767 24.9669 30.8435 25.4732 29.5262C25.9796 28.2089 26.2327 26.7367 26.2327 25.1093V0.00270081H32.3673V40.6846H26.2912V36.907C24.9279 38.3405 23.3212 39.4447 21.4711 40.2198C19.6209 40.9946 17.6248 41.382 15.4826 41.382C13.3013 41.382 11.2662 41.0042 9.3771 40.2487C7.48811 39.4932 5.85211 38.4181 4.46949 37.0232C3.08687 35.6284 1.99616 33.9529 1.19775 31.9962C0.399207 30.0396 0 27.8602 0 25.4579V0.00270081H6.13458V25.1093C6.13458 26.7367 6.3877 28.2185 6.89408 29.5553Z" fill="#33475B"/>
<path d="M42.9416 0.00270081V14.8225C44.3048 13.4665 45.8824 12.3914 47.6741 11.5971C49.4657 10.8027 51.4133 10.4056 53.5165 10.4056C55.6978 10.4056 57.7424 10.8124 59.6511 11.626C61.5596 12.4396 63.2148 13.5439 64.6171 14.9388C66.0194 16.3337 67.1295 17.9802 67.9474 19.8787C68.7653 21.7773 69.1742 23.792 69.1742 25.9229C69.1742 28.0538 68.7653 30.0589 67.9474 31.9379C67.1295 33.8171 66.0194 35.4541 64.6171 36.8487C63.2148 38.2436 61.5596 39.3479 59.6511 40.1615C57.7424 40.9751 55.6976 41.3819 53.5165 41.3819C51.4131 41.3819 49.456 40.9848 47.6448 40.1904C45.8337 39.3962 44.2464 38.321 42.8832 36.965V40.6845H37.0408V0.00270081H42.9416ZM43.6135 29.933C44.1392 31.1729 44.8697 32.2577 45.8045 33.1876C46.7393 34.1175 47.8298 34.8537 49.0762 35.3961C50.3227 35.9385 51.6664 36.2097 53.1076 36.2097C54.5098 36.2097 55.834 35.9385 57.0804 35.3961C58.3267 34.8537 59.4075 34.1176 60.323 33.1876C61.2383 32.2579 61.9686 31.1729 62.5139 29.933C63.0592 28.6932 63.3318 27.3565 63.3318 25.9229C63.3318 24.4894 63.0592 23.143 62.5139 21.8837C61.9686 20.6245 61.2383 19.53 60.323 18.6002C59.4076 17.6704 58.3269 16.9438 57.0804 16.4208C55.8339 15.8978 54.5097 15.6361 53.1076 15.6361C51.7054 15.6361 50.3811 15.8977 49.1348 16.4208C47.8884 16.944 46.7978 17.6704 45.8629 18.6002C44.9282 19.53 44.1881 20.6245 43.6428 21.8837C43.0975 23.143 42.8249 24.4894 42.8249 25.9229C42.8248 27.3565 43.0877 28.6932 43.6135 29.933Z" fill="#33475B"/>
<path d="M72.504 19.9369C73.2829 18.0772 74.3542 16.4403 75.7173 15.0261C77.0804 13.6119 78.697 12.498 80.5666 11.6844C82.4362 10.8708 84.4616 10.464 86.6427 10.464C88.785 10.464 90.7714 10.8515 92.6021 11.6263C94.4327 12.4012 96.0101 13.4764 97.3344 14.8518C98.6588 16.2272 99.691 17.8546 100.431 19.7336C101.171 21.6128 101.541 23.6566 101.541 25.8651V27.783H77.2948C77.4897 28.984 77.8792 30.0979 78.4634 31.1245C79.0477 32.1512 79.7779 33.0424 80.6542 33.7979C81.5306 34.5535 82.5238 35.1444 83.6339 35.5705C84.744 35.9967 85.9221 36.2099 87.1686 36.2099C90.7131 36.2099 93.576 34.7569 95.7571 31.851L100.022 34.9892C98.542 36.9652 96.7115 38.5151 94.5303 39.6386C92.349 40.7622 89.8952 41.324 87.1688 41.324C84.9486 41.324 82.8746 40.9364 80.9465 40.1616C79.0185 39.3868 77.3437 38.3019 75.922 36.907C74.5004 35.5121 73.3806 33.8752 72.5627 31.9962C71.7447 30.1171 71.3357 28.0732 71.3357 25.8648C71.3354 23.7727 71.7251 21.7967 72.504 19.9369ZM80.7127 17.6412C79.0573 19.0167 77.957 20.8474 77.4117 23.1333H95.5818C95.0755 20.8474 93.9946 19.0167 92.3392 17.6412C90.6838 16.2659 88.7461 15.5781 86.526 15.5781C84.3058 15.5781 82.3681 16.2659 80.7127 17.6412Z" fill="#33475B"/>
<path d="M112.583 18.3095C111.336 19.6656 110.713 21.5059 110.713 23.8307V40.6848H104.812V11.045H110.655V14.7064C111.395 13.5053 112.359 12.556 113.547 11.8586C114.735 11.1611 116.147 10.8124 117.783 10.8124H119.827V16.2754H117.374C115.426 16.2755 113.829 16.9535 112.583 18.3095Z" fill="#33475B"/>
</svg>
