<svg width="28" height="20" viewBox="0 0 28 20" fill="none" xmlns="http://www.w3.org/2000/svg">
<rect width="28" height="20" rx="2" fill="white"/>
<mask id="mask0" mask-type="alpha" maskUnits="userSpaceOnUse" x="0" y="0" width="28" height="20">
<rect width="28" height="20" rx="2" fill="white"/>
</mask>
<g mask="url(#mask0)">
<path fill-rule="evenodd" clip-rule="evenodd" d="M28 0H0V1.33333H28V0ZM28 2.66667H0V4H28V2.66667ZM0 5.33333H28V6.66667H0V5.33333ZM28 8H0V9.33333H28V8ZM0 10.6667H28V12H0V10.6667ZM28 13.3333H0V14.6667H28V13.3333ZM0 16H28V17.3333H0V16ZM28 18.6667H0V20H28V18.6667Z" fill="#D02F44"/>
<rect width="12" height="9.33333" fill="#46467F"/>
<g filter="url(#filter0_d)">
<path fill-rule="evenodd" clip-rule="evenodd" d="M2.66659 2.00016C2.66659 2.36835 2.36811 2.66683 1.99992 2.66683C1.63173 2.66683 1.33325 2.36835 1.33325 2.00016C1.33325 1.63197 1.63173 1.3335 1.99992 1.3335C2.36811 1.3335 2.66659 1.63197 2.66659 2.00016ZM5.33325 2.00016C5.33325 2.36835 5.03478 2.66683 4.66659 2.66683C4.2984 2.66683 3.99992 2.36835 3.99992 2.00016C3.99992 1.63197 4.2984 1.3335 4.66659 1.3335C5.03478 1.3335 5.33325 1.63197 5.33325 2.00016ZM7.33325 2.66683C7.70144 2.66683 7.99992 2.36835 7.99992 2.00016C7.99992 1.63197 7.70144 1.3335 7.33325 1.3335C6.96506 1.3335 6.66659 1.63197 6.66659 2.00016C6.66659 2.36835 6.96506 2.66683 7.33325 2.66683ZM10.6666 2.00016C10.6666 2.36835 10.3681 2.66683 9.99992 2.66683C9.63173 2.66683 9.33325 2.36835 9.33325 2.00016C9.33325 1.63197 9.63173 1.3335 9.99992 1.3335C10.3681 1.3335 10.6666 1.63197 10.6666 2.00016ZM3.33325 4.00016C3.70144 4.00016 3.99992 3.70169 3.99992 3.3335C3.99992 2.96531 3.70144 2.66683 3.33325 2.66683C2.96506 2.66683 2.66659 2.96531 2.66659 3.3335C2.66659 3.70169 2.96506 4.00016 3.33325 4.00016ZM6.66659 3.3335C6.66659 3.70169 6.36811 4.00016 5.99992 4.00016C5.63173 4.00016 5.33325 3.70169 5.33325 3.3335C5.33325 2.96531 5.63173 2.66683 5.99992 2.66683C6.36811 2.66683 6.66659 2.96531 6.66659 3.3335ZM8.66658 4.00016C9.03477 4.00016 9.33325 3.70169 9.33325 3.3335C9.33325 2.96531 9.03477 2.66683 8.66658 2.66683C8.2984 2.66683 7.99992 2.96531 7.99992 3.3335C7.99992 3.70169 8.2984 4.00016 8.66658 4.00016ZM10.6666 4.66683C10.6666 5.03502 10.3681 5.3335 9.99992 5.3335C9.63173 5.3335 9.33325 5.03502 9.33325 4.66683C9.33325 4.29864 9.63173 4.00016 9.99992 4.00016C10.3681 4.00016 10.6666 4.29864 10.6666 4.66683ZM7.33325 5.3335C7.70144 5.3335 7.99992 5.03502 7.99992 4.66683C7.99992 4.29864 7.70144 4.00016 7.33325 4.00016C6.96506 4.00016 6.66659 4.29864 6.66659 4.66683C6.66659 5.03502 6.96506 5.3335 7.33325 5.3335ZM5.33325 4.66683C5.33325 5.03502 5.03478 5.3335 4.66659 5.3335C4.2984 5.3335 3.99992 5.03502 3.99992 4.66683C3.99992 4.29864 4.2984 4.00016 4.66659 4.00016C5.03478 4.00016 5.33325 4.29864 5.33325 4.66683ZM1.99992 5.3335C2.36811 5.3335 2.66659 5.03502 2.66659 4.66683C2.66659 4.29864 2.36811 4.00016 1.99992 4.00016C1.63173 4.00016 1.33325 4.29864 1.33325 4.66683C1.33325 5.03502 1.63173 5.3335 1.99992 5.3335ZM3.99992 6.00016C3.99992 6.36835 3.70144 6.66683 3.33325 6.66683C2.96506 6.66683 2.66659 6.36835 2.66659 6.00016C2.66659 5.63197 2.96506 5.3335 3.33325 5.3335C3.70144 5.3335 3.99992 5.63197 3.99992 6.00016ZM5.99992 6.66683C6.36811 6.66683 6.66659 6.36835 6.66659 6.00016C6.66659 5.63197 6.36811 5.3335 5.99992 5.3335C5.63173 5.3335 5.33325 5.63197 5.33325 6.00016C5.33325 6.36835 5.63173 6.66683 5.99992 6.66683ZM9.33325 6.00016C9.33325 6.36835 9.03477 6.66683 8.66658 6.66683C8.2984 6.66683 7.99992 6.36835 7.99992 6.00016C7.99992 5.63197 8.2984 5.3335 8.66658 5.3335C9.03477 5.3335 9.33325 5.63197 9.33325 6.00016ZM9.99992 8.00016C10.3681 8.00016 10.6666 7.70169 10.6666 7.3335C10.6666 6.96531 10.3681 6.66683 9.99992 6.66683C9.63173 6.66683 9.33325 6.96531 9.33325 7.3335C9.33325 7.70169 9.63173 8.00016 9.99992 8.00016ZM7.99992 7.3335C7.99992 7.70169 7.70144 8.00016 7.33325 8.00016C6.96506 8.00016 6.66659 7.70169 6.66659 7.3335C6.66659 6.96531 6.96506 6.66683 7.33325 6.66683C7.70144 6.66683 7.99992 6.96531 7.99992 7.3335ZM4.66659 8.00016C5.03478 8.00016 5.33325 7.70169 5.33325 7.3335C5.33325 6.96531 5.03478 6.66683 4.66659 6.66683C4.2984 6.66683 3.99992 6.96531 3.99992 7.3335C3.99992 7.70169 4.2984 8.00016 4.66659 8.00016ZM2.66659 7.3335C2.66659 7.70169 2.36811 8.00016 1.99992 8.00016C1.63173 8.00016 1.33325 7.70169 1.33325 7.3335C1.33325 6.96531 1.63173 6.66683 1.99992 6.66683C2.36811 6.66683 2.66659 6.96531 2.66659 7.3335Z" fill="url(#paint0_linear)"/>
</g>
</g>
<defs>
<filter id="filter0_d" x="1.33325" y="1.3335" width="9.33333" height="7.66667" filterUnits="userSpaceOnUse" color-interpolation-filters="sRGB">
<feFlood flood-opacity="0" result="BackgroundImageFix"/>
<feColorMatrix in="SourceAlpha" type="matrix" values="0 0 0 0 0 0 0 0 0 0 0 0 0 0 0 0 0 0 127 0"/>
<feOffset dy="1"/>
<feColorMatrix type="matrix" values="0 0 0 0 0 0 0 0 0 0 0 0 0 0 0 0 0 0 0.06 0"/>
<feBlend mode="normal" in2="BackgroundImageFix" result="effect1_dropShadow"/>
<feBlend mode="normal" in="SourceGraphic" in2="effect1_dropShadow" result="shape"/>
</filter>
<linearGradient id="paint0_linear" x1="1.33325" y1="1.3335" x2="1.33325" y2="8.00016" gradientUnits="userSpaceOnUse">
<stop stop-color="white"/>
<stop offset="1" stop-color="#F0F0F0"/>
</linearGradient>
</defs>
</svg>
